<svg class="button" xmlns="http://www.w3.org/2000/svg" xmlns:xlink="http://www.w3.org/1999/xlink" viewBox="0 0 398.4 398.4">
	<defs>
		<style>
			.cls-1 {
				fill: none;
				stroke: #fff;
				stroke-miterlimit: 10;
				stroke-width: 20px;
			}
			.cls-2 {
				fill: #fff;
			}
		</style>
	</defs>
	<desc>Button that represents a link to a Blog page</desc>
	<g id="blogButton">
		<a class="link" xlink:href="https://ryanairth.blogspot.ie/">
			<circle id="Blog" class="cls-1" cx="199.2" cy="199.2" r="189.2"/>
			<path class="cls-2" d="M199.2,10C94.71,10,10,94.71,10,199.2S94.71,388.4,199.2,388.4s189.2-84.71,189.2-189.2S303.69,10,199.2,10Zm2.63,301.53q-21.58,22.61-52,22.61-30.67,0-52.24-22.48T76,257.21V148.84q0-10.92,6.53-16.89a22.88,22.88,0,0,1,30.85,0q6.54,6,6.54,16.92V257.43a31.45,31.45,0,0,0,8.8,22.52A28.24,28.24,0,0,0,150,289.18q12.16,0,21.09-9.27A31.32,31.32,0,0,0,180,257.34q0-13.31-8.19-20.62t-22.22-7.31q-10.14,0-16.11-7-5.46-6-5.46-15.07a22.94,22.94,0,0,1,5.72-15.47q5.71-6.63,15.85-6.63,32.22,0,53,20.14t20.79,51.85Q223.41,288.93,201.83,311.53Zm49.08-71.07A82.25,82.25,0,0,0,226.86,182a81.31,81.31,0,0,0-58-24.13V124.14c63.88,0,115.85,52.18,115.85,116.33Zm59.67,0C310.58,161.94,247,98,168.89,98V64.26c96.75,0,175.47,79.06,175.47,176.24Z"/>
		</a>
	</g>
</svg>