<?xml version="1.0" encoding="utf-8"?>
<!-- Generator: Adobe Illustrator 19.2.1, SVG Export Plug-In . SVG Version: 6.00 Build 0)  -->
<svg version="1.1" class="headerButton" xmlns="http://www.w3.org/2000/svg" xmlns:xlink="http://www.w3.org/1999/xlink" x="0px" y="0px"
	 viewBox="0 0 398.4 398.4" style="enable-background:new 0 0 398.4 398.4;" xml:space="preserve">
	<style type="text/css">
		.st0{fill:none;stroke:#FFFFFF;stroke-width:20;stroke-miterlimit:10;}
		.st5{fill:#FFFFFF;}
	</style>
	<g id="blogButton">
		<a class="link" xlink:href="http://ryanairth.weebly.com/blog">
			<circle id="blog" class="st0" cx="199.2" cy="199.2" r="189.2"/>
			<path class="st5" d="M199.2,10C94.7,10,10,94.7,10,199.2s84.7,189.2,189.2,189.2c104.5,0,189.2-84.7,189.2-189.2S303.7,10,199.2,10
				z M201.8,311.5c-14.4,15.1-31.7,22.6-52,22.6c-20.4,0-37.9-7.5-52.2-22.5c-14.4-15-21.6-33.1-21.6-54.4V148.8
				c0-7.3,2.2-12.9,6.5-16.9c4.4-4,9.5-6,15.4-6c5.9,0,11.1,2,15.4,6c4.4,4,6.5,9.6,6.5,16.9v108.6c0,8.9,2.9,16.4,8.8,22.5
				c5.9,6.2,12.9,9.2,21.2,9.2c8.1,0,15.1-3.1,21.1-9.3c6-6.2,8.9-13.7,8.9-22.6c0-8.9-2.7-15.7-8.2-20.6c-5.5-4.9-12.9-7.3-22.2-7.3
				c-6.8,0-12.1-2.3-16.1-7c-3.6-4-5.5-9-5.5-15.1c0-5.9,1.9-11,5.7-15.5c3.8-4.4,9.1-6.6,15.9-6.6c21.5,0,39.2,6.7,53,20.1
				c13.9,13.4,20.8,30.7,20.8,51.9C223.4,278.4,216.2,296.5,201.8,311.5z M250.9,240.5c0-22.1-8.5-42.8-24.1-58.4
				c-15.5-15.6-36.1-24.1-58-24.1v-33.8c63.9,0,115.8,52.2,115.8,116.3H250.9z M310.6,240.5C310.6,161.9,247,98,168.9,98V64.3
				c96.8,0,175.5,79.1,175.5,176.2H310.6z"/>
		</a>
	</g>
</svg>
