<?xml version="1.0" encoding="utf-8"?>
<!-- Generator: Adobe Illustrator 19.2.1, SVG Export Plug-In . SVG Version: 6.00 Build 0)  -->
<svg version="1.1" class="headerButton" xmlns="http://www.w3.org/2000/svg" xmlns:xlink="http://www.w3.org/1999/xlink" x="0px" y="0px"
	 viewBox="0 0 398.4 398.4" style="enable-background:new 0 0 398.4 398.4;" xml:space="preserve">
	<style type="text/css">
		.st0{fill:none;stroke:#FFFFFF;stroke-width:20;stroke-miterlimit:10;}
		.st5{fill:#FFFFFF;}
	</style>
	<g id="githubButton">
		<a class="link" xlink:href="https://github.com/bogieman987">
			<circle id="github" class="st0" cx="199.2" cy="199.2" r="189.2"/>
			<path class="st5" d="M198.7,17.5c-100,0-181.1,81.1-181.1,181.1c0,80.1,52,148,124,172c-0.1,0-0.2-0.1-0.2-0.1
				c9.1,1.7,12.4-3.9,12.4-8.7c0-4.3-0.2-18.6-0.2-33.7c-50.4,11-61-21.4-61-21.4c-8.2-20.9-20.1-26.5-20.1-26.5
				c-16.4-11.2,1.2-11,1.2-11c18.2,1.3,27.8,18.7,27.8,18.7c16.2,27.7,42.4,19.7,52.7,15.1c1.6-11.7,6.3-19.7,11.5-24.2
				c-40.2-4.6-82.5-20.1-82.5-89.5c0-19.8,7.1-35.9,18.7-48.6c-1.9-4.6-8.1-23,1.8-47.9c0,0,15.2-4.9,49.8,18.6
				c14.5-4,29.9-6,45.3-6.1c15.4,0.1,30.9,2.1,45.4,6.1c34.6-23.4,49.8-18.6,49.8-18.6c9.9,25,3.7,43.4,1.8,47.9
				c11.6,12.7,18.6,28.8,18.6,48.6c0,69.6-42.4,84.9-82.7,89.4c6.5,5.6,12.3,16.6,12.3,33.5c0,24.2-0.2,43.7-0.2,49.7
				c0,4.8,3.3,10.5,12.4,8.7c-2,0.7-4.1,1.3-6.2,1.9c75.1-22.1,130-91.5,130-173.8C379.8,98.6,298.7,17.5,198.7,17.5z"/>
			<path class="st5" d="M116.4,309.9c-0.4,1.4,0.9,3.1,3,3.7c2.1,0.6,4.1,0,4.5-1.5c0.4-1.4-0.9-3.1-3-3.7
				C118.8,307.8,116.8,308.5,116.4,309.9z"/>
			<path class="st5" d="M104.7,301c-1,1.1-0.6,3.2,1,4.6c1.5,1.5,3.7,1.8,4.7,0.7c1.1-1.1,0.6-3.2-1-4.6
				C107.8,300.2,105.7,299.9,104.7,301z"/>
			<path class="st5" d="M96.6,290.3c-1.1,0.8-1.1,2.7,0,4.3c1.1,1.6,2.9,2.3,4,1.6c1.1-0.8,1.1-2.7,0-4.4
				C99.5,290.3,97.7,289.6,96.6,290.3z"/>
			<path class="st5" d="M89.2,281.2c-0.9,0.8-0.7,2.5,0.5,3.8c1.1,1.3,2.8,1.6,3.7,0.8c0.9-0.8,0.7-2.5-0.5-3.8
				C91.7,280.7,90.1,280.4,89.2,281.2z"/>
			<path class="st5" d="M81.4,275.4c-0.4,0.9,0.3,2.1,1.6,2.7c1.3,0.6,2.7,0.3,3.1-0.6c0.5-0.9-0.3-2.1-1.6-2.7
				C83.2,274.2,81.8,274.5,81.4,275.4z"/>
			<path class="st5" d="M148.2,308.9c-2.1,0.4-3.6,1.9-3.4,3.4c0.3,1.4,2.2,2.3,4.3,2c2.1-0.4,3.6-1.9,3.4-3.4
				C152.2,309.4,150.3,308.5,148.2,308.9z"/>
			<path class="st5" d="M130.9,313.4c0,1.5,1.8,2.7,3.9,2.6c2.2,0,3.9-1.3,3.8-2.8c0-1.5-1.8-2.7-3.9-2.6
				C132.6,310.6,130.9,311.8,130.9,313.4z"/>
		</a>
	</g>
</svg>
