<svg class="button" xmlns="http://www.w3.org/2000/svg" xmlns:xlink="http://www.w3.org/1999/xlink" viewBox="0 0 398.4 398.4">
	<defs>
		<style>
			.cls-1 {
				fill: none;
				stroke: #fff;
				stroke-miterlimit: 10;
				stroke-width: 20px;
			}
			.cls-2 {
				fill: #fff;
			}
		</style>
	</defs>
	<desc>Button that represents a link to a Github profile</desc>
	<g id="githubButton">
		<a class="link" xlink:href="https://github.com/bogieman987">
			<circle id="github" class="cls-1" cx="199.2" cy="199.2" r="189.2"/>
			<path class="cls-2" d="M198.65,17.5a181.17,181.17,0,0,0-57.11,353.1l-.16-.06c9.05,1.68,12.38-3.93,12.38-8.72,0-4.32-.17-18.59-.25-33.73-50.4,11-61-21.37-61-21.37-8.24-20.94-20.11-26.51-20.11-26.51-16.44-11.24,1.24-11,1.24-11,18.19,1.28,27.77,18.67,27.77,18.67,16.16,27.69,42.38,19.69,52.72,15.06,1.63-11.71,6.32-19.7,11.5-24.22-40.24-4.58-82.54-20.11-82.54-89.52,0-19.78,7.08-35.94,18.67-48.62-1.88-4.56-8.08-23,1.75-47.94,0,0,15.21-4.87,49.83,18.57a171.77,171.77,0,0,1,90.72,0c34.58-23.44,49.77-18.57,49.77-18.57,9.86,25,3.66,43.38,1.78,47.94,11.62,12.69,18.64,28.85,18.64,48.62,0,69.58-42.38,84.9-82.72,89.38,6.5,5.62,12.29,16.65,12.29,33.55,0,24.24-.21,43.75-.21,49.71,0,4.82,3.26,10.47,12.44,8.69q-3.06,1-6.17,1.93a181.17,181.17,0,0,0-51.19-355Z"/>
			<path class="cls-2" d="M116.37,309.88c-.41,1.43.93,3.09,3,3.71s4.09,0,4.53-1.46-.92-3.09-3-3.71S116.8,308.45,116.37,309.88Z"/>
			<path class="cls-2" d="M104.69,301c-1,1.1-.55,3.17,1,4.63s3.66,1.79,4.66.69.58-3.17-1-4.63S105.7,299.87,104.69,301Z"/>
			<path class="cls-2" d="M96.57,290.33c-1.14.77-1.14,2.71,0,4.32s2.94,2.33,4,1.56,1.13-2.72,0-4.36S97.69,289.55,96.57,290.33Z"/>
			<path class="cls-2" d="M89.22,281.17c-.88.81-.66,2.5.53,3.76s2.84,1.64,3.7.84.67-2.49-.52-3.76S90.11,280.37,89.22,281.17Z"/>
			<path class="cls-2" d="M81.38,275.42c-.42.9.31,2.13,1.63,2.72s2.71.35,3.11-.55-.3-2.14-1.61-2.73S81.77,274.5,81.38,275.42Z"/>
			<path class="cls-2" d="M148.16,308.89c-2.1.39-3.62,1.88-3.36,3.38s2.21,2.35,4.32,2,3.64-1.9,3.38-3.35S150.31,308.52,148.16,308.89Z"/>
			<path class="cls-2" d="M130.92,313.35c0,1.47,1.78,2.68,3.94,2.63s3.89-1.27,3.84-2.76-1.77-2.68-3.92-2.64S130.92,311.84,130.92,313.35Z"/>
		</a>
	</g>
</svg>