<svg class="button" xmlns="http://www.w3.org/2000/svg" xmlns:xlink="http://www.w3.org/1999/xlink" viewBox="0 0 398.4 398.4">
	<defs>
		<style>
			.cls-1 {
				fill: none;
				stroke: #fff;
				stroke-miterlimit: 10;
				stroke-width: 20px;
			}
			.cls-2 {
				fill: #fff;
			}
		</style>
	</defs>
	<desc>Button that represents a link to a Google+ profile</desc>
	<g id="googlePlusButton">
		<a class="link" xlink:href="https://plus.google.com/u/0/+RyanAirth987">
			<circle id="googlePlus" class="cls-1" cx="199.2" cy="199.2" r="189.2"/>
			<path class="cls-2" d="M199.2,10C94.71,10,10,94.71,10,199.2S94.71,388.4,199.2,388.4s189.2-84.71,189.2-189.2S303.69,10,199.2,10ZM144,313.37A106.55,106.55,0,1,1,215.74,128c-22.3,21.06-21.57,22.31-30.33,31.07C174.46,150,162.52,143.52,144,143.52c-35,0-62.24,28.34-62.24,63.3s27.28,63.3,62.24,63.3c34.54,0,48.58-14.9,57.61-42.25-16.67,0-57.61.05-57.61.05v-42.2H246.37C253.5,236.78,232,313.37,144,313.37Zm194.24-93.6v30.7H307.33v-30.7h-30.7V188.83h30.7V159.08h30.94v29.75H368v30.94Z"/>
		</a>
	</g>
</svg>