<svg class="button" xmlns="http://www.w3.org/2000/svg" xmlns:xlink="http://www.w3.org/1999/xlink" viewBox="0 0 398.4 398.4">
	<defs>
		<style>
			.cls-1 {
				fill: none;
				stroke: #fff;
				stroke-miterlimit: 10;
				stroke-width: 20px;
			}
			.cls-2 {
				fill: #fff;
			}
		</style>
	</defs>
	<desc>Button that represents a link to a LinkedIn profile</desc>
	<g id="linkedInButton">
		<a class="link" xlink:href="https://www.linkedin.com/in/RyanAirth">
			<circle id="linkedIn" class="cls-1" cx="199.2" cy="199.2" r="189.2"/>
			<path class="cls-2" d="M199.2,10C94.71,10,10,94.71,10,199.2S94.71,388.4,199.2,388.4s189.2-84.71,189.2-189.2S303.69,10,199.2,10ZM141,305.75H96.3V163.44H141ZM119,145.29A26.32,26.32,0,1,1,145.31,119,26.32,26.32,0,0,1,119,145.29ZM305.73,305.75H261.08v-83.5c0-35.94-47.79-30-47.79,7.08v76.42H168.77V163.44H211v18.88C233,148.51,305.73,147,305.73,213.54Z"/>
		</a>
	</g>
</svg>