<svg class="button" xmlns="http://www.w3.org/2000/svg" xmlns:xlink="http://www.w3.org/1999/xlink" viewBox="0 0 398.4 398.4">
	<defs>
		<style>
			.cls-1 {
				fill: none;
				stroke: #fff;
				stroke-miterlimit: 10;
				stroke-width: 20px;
			}
			.cls-2 {
				fill: #fff;
			}
		</style>
	</defs>
	<desc>Button that represents a link to a twitter profile</desc>
	<g id="twitterButton">
		<a class="link" xlink:href="https://twitter.com/bogieman987">
			<circle id="twitter" class="cls-1" cx="199.2" cy="199.2" r="189.2"/>
			<path class="cls-2" d="M199.2,10C94.71,10,10,94.71,10,199.2S94.71,388.4,199.2,388.4s189.2-84.71,189.2-189.2S303.69,10,199.2,10Zm118,144.45c0,3.25,0,6.4,0,9.55a150.73,150.73,0,0,1-2.68,26.3,166.93,166.93,0,0,1-16.94,48.05,161.88,161.88,0,0,1-25.25,35.14A150.46,150.46,0,0,1,227.85,306a152.88,152.88,0,0,1-39.21,12.62,175.93,175.93,0,0,1-28.59,2.7,155.91,155.91,0,0,1-69.11-14.6c-6.21-2.89-12.1-6.48-18.14-9.76-.34-.19-.65-.44-1.17-.8,30.67,3.08,58.1-4.46,82.5-23A57,57,0,0,1,122,261.77,55.69,55.69,0,0,1,102.2,234c11.89,1.26,17.72,1,25-1a56,56,0,0,1-32.37-19.93c-8.34-10.39-12.3-22.33-12.38-35.85a57,57,0,0,0,25.25,7c-12.14-8.61-20.06-19.81-23.31-34.06s-1.11-27.83,6.09-40.75c30.33,35.76,68.69,55.41,115.62,58.65-3.16-15.21-1-29.29,7-42.32,5.71-9.34,13.47-16.66,23.49-21.08,24.41-10.77,46.13-6,65.56,12.06a110.05,110.05,0,0,0,18-5.2,115.55,115.55,0,0,0,17.33-8.38A57.3,57.3,0,0,1,313.55,134,79.82,79.82,0,0,0,329.42,131c5.13-1.56,10.19-3.38,15.35-5.11A114.74,114.74,0,0,1,317.17,154.45Z"/>
		</a>
	</g>
</svg>