<?xml version="1.0" encoding="utf-8"?>
<!-- Generator: Adobe Illustrator 19.2.1, SVG Export Plug-In . SVG Version: 6.00 Build 0)  -->
<svg version="1.1" class="headerButton" xmlns="http://www.w3.org/2000/svg" xmlns:xlink="http://www.w3.org/1999/xlink" x="0px" y="0px"
	 viewBox="0 0 398.4 398.4" style="enable-background:new 0 0 398.4 398.4;" xml:space="preserve">
	<style type="text/css">
		.st0{fill:none;stroke:#FFFFFF;stroke-width:20;stroke-miterlimit:10;}
		.st5{fill:#FFFFFF;}
	</style>
	<g id="twitterButton">
		<a class="link" xlink:href="https://twitter.com/bogieman987">
			<circle id="twitter" class="st0" cx="199.2" cy="199.2" r="189.2"/>
			<path class="st5" d="M199.2,10C94.7,10,10,94.7,10,199.2s84.7,189.2,189.2,189.2c104.5,0,189.2-84.7,189.2-189.2S303.7,10,199.2,10
				z M317.2,154.4c0,3.3,0,6.4,0,9.6c-0.1,8.8-1,17.6-2.7,26.3c-3.2,16.9-8.8,32.9-16.9,48.1c-6.9,12.8-15.2,24.6-25.2,35.1
				c-12.8,13.6-27.6,24.4-44.5,32.5c-12.5,6-25.6,10.2-39.2,12.6c-9.5,1.7-19,2.5-28.6,2.7c-24.2,0.4-47.2-4.4-69.1-14.6
				c-6.2-2.9-12.1-6.5-18.1-9.8c-0.3-0.2-0.6-0.4-1.2-0.8c30.7,3.1,58.1-4.5,82.5-23c-11.9-0.6-22.6-4.2-32.1-11.4
				c-9.5-7.1-16.1-16.4-19.8-27.8c11.9,1.3,17.7,1,25-1c-13.2-3-24-9.5-32.4-19.9c-8.3-10.4-12.3-22.3-12.4-35.9
				c7.9,4.3,16.1,6.6,25.3,7c-12.1-8.6-20.1-19.8-23.3-34.1c-3.3-14.3-1.1-27.8,6.1-40.8c30.3,35.8,68.7,55.4,115.6,58.6
				c-3.2-15.2-1-29.3,7-42.3c5.7-9.3,13.5-16.7,23.5-21.1c24.4-10.8,46.1-6,65.6,12.1c6-1.2,12.1-2.9,18-5.2c5.9-2.3,11.6-5,17.3-8.4
				c-4.4,13.3-12.5,23.4-23.9,30.8c5.4-0.5,10.7-1.5,15.9-3.1c5.1-1.6,10.2-3.4,15.4-5.1C337.2,137,328,146.6,317.2,154.4z"/>			
		</a>
	</g>
</svg>
