<?xml version="1.0" encoding="utf-8"?>
<!-- Generator: Adobe Illustrator 19.2.1, SVG Export Plug-In . SVG Version: 6.00 Build 0)  -->
<svg version="1.1" id="Layer_1" xmlns="http://www.w3.org/2000/svg" xmlns:xlink="http://www.w3.org/1999/xlink" x="0px" y="0px"
	 viewBox="0 0 5352.7 1107.3" style="enable-background:new 0 0 5352.7 1107.3;" xml:space="preserve">
<style type="text/css">
	.st0{fill:none;stroke:#FFFFFF;stroke-width:20;stroke-miterlimit:10;}
	.st1{fill:none;stroke:#FFFFFF;stroke-width:7;stroke-miterlimit:10;}
	.st2{fill:none;stroke:#FFFFFF;stroke-width:8;stroke-miterlimit:10;}
	.st3{fill:none;stroke:#FFFFFF;stroke-width:3;stroke-miterlimit:10;}
	.st4{fill:none;stroke:#FFFFFF;stroke-width:6;stroke-miterlimit:10;}
</style>
<g id="Circle">
	<path class="st0" d="M2613.3,1097.3c-300.2,0-543.6-243.4-543.6-543.7S2313.1,10,2613.3,10"/>
	<path class="st0" d="M2613.3,10c300.2,0,543.6,243.4,543.6,543.6s-243.4,543.6-543.6,543.6"/>
</g>
<g id="Brain">
	<g id="Stem">
		<path class="st1" d="M2568.3,758.3c8.5,17.2,19.3,39.1,35.5,48c15.8,8.7,50.8,15.4,57.3,15.8c1.9,0.1,3.9,0.2,5.5,1.3
			c1.4,0.9,2.3,2.3,3.2,3.7c9.6,15.1,19.7,29.9,30.2,44.4c13.2,18.2,34.2,30.8,51.9,44.8c17.6,14,18.6,37.4,54.8,29.4
			c6.9-1.5,14.4-0.9,20.1-4.8c5.8-4,7.2-8.4,4.9-15c-2.9-8.5-15.7-9.4-23.3-13.9c-7.1-4.2-13.4-22.8-23.1-33.4
			c-5-5.4-8.1-11.9-13.2-14.2c-2.6-1.2-30.1-11.5-51.9-33.1c-18.3-18.1-31.7-28.5-39.4-45.7c-16-35.6-12.6-72.4-12.6-72.4
			c-37.4-2.5-97.6,33.4-102.2,39.3C2565.9,752.2,2567.1,755.9,2568.3,758.3z"/>
	</g>
	<g id="Bottom_Back">
		<path class="st2" d="M3028.1,670.1c0,0,7.9,61.3-22.9,101.4c-32.4,42.2-9.7,37.3-113,90.9c-103.3,53.6-199.4-50.4-211-75.8
			c-11.6-25.3-14.1-51.5-14.1-69.6c91-24.7,235.4-60.4,285.7-67.9C3004.3,651.4,3028.1,670.1,3028.1,670.1z"/>
		<g>
			<path class="st3" d="M3030.5,705.7c-76.3-5-152.5,8.1-227.8,21.1c-19.9,3.4-40,7-58.2,15.7"/>
			<path class="st3" d="M2828.6,863.8c-21.9,0.9-44-3.6-63.7-13.2"/>
			<path class="st3" d="M2875.5,796.4c-54,6.7-109,4.4-162.2-6.6"/>
			<path class="st3" d="M3020.7,742.1c-22.8,10.2-46.9,17.6-71.5,22c-14.5,2.6-29.1,4.2-43.8,5.7c-41.8,4.3-83.9,8.2-125.8,5.1"/>
			<path class="st3" d="M2992.8,788.1c-16.6,9.2-33.9,17.3-52.2,22.6c-24.4,7-50.1,8.5-75.5,9.6c-42.4,1.7-84.9,2.2-127.3,1.3"/>
			<path class="st3" d="M2923.3,844.2c-35.1,6.7-71.8,13.4-106,3.2"/>
			<path class="st3" d="M2946,682c-9.7,0.3-19.2,2.1-28.7,3.8c-40.8,7.4-81.6,14.8-121.9,24.1c-25.2,5.8-66.1,12.3-91.6,16.4"/>
			<path class="st3" d="M2886.5,747.8c-9.6-0.8-19.2,0.7-28.8,2.2c-23,3.6-46,7.2-69,10.7c-32.7,5.1-63.2,8.4-95.7,2.5"/>
			<path class="st3" d="M2840.9,839.1c-29.2,1.7-58.5,0.3-87.4-4"/>
		</g>
	</g>
	<g id="Main">
		<g id="Large_Lines">
			<path class="st4" d="M2340.8,684.6c0.1-0.2-0.1-0.4-0.3-0.4c-98.6,0-157.8-12.4-186.2-84c-28.5-71.6-64.5-83.3-25.1-168.3
				c39.4-85,34.3-99.5,173.7-164.1s174.2-55.1,333.4-68.3c159.1-13.2,189.6,17.1,287.5,73.3c97.9,56.2,157.1,188,183.7,262.4
				c26.6,74.3,12.4,112.9-37.3,130.1c-49.7,17.2-77.4-35.5-169.8-8.3c-92.4,27.2-207.9,52.5-258,59c-50.1,6.5-120.8,72.8-143.2,72.8
				C2434.8,788.7,2326.3,742.2,2340.8,684.6z"/>
			<path class="st4" d="M2796.5,385.4c-30.4,15.2-29.1,38-52,54.5c-22.8,16.5-52,2.5-88.7,21.5s-32.3,43.7-65.9,55.8
				c-33.6,12.1-49.4-3.2-91.2,11.4c-41.8,14.6-83.6,43.1-119.1,76s-38.7,79.5-38.7,79.5"/>
			<path class="st4" d="M2381.3,715.3c0,0,13.6-0.7,32.9-20.3c19.3-19.6,14.4-31.3,62.5-63.4c48.1-32.1,56.6-17.7,105.6-18.6
				c49-0.8,95.5-47.2,131.8-54s34.6,4.2,54.1-3.4c19.5-7.6,27.9-35.5,38-53.2c10.1-17.7,17.7-14.4,39.7-33.8s26.2-56.6,32.9-67.6
				c6.8-11,10.1-38,11.8-55.8s31.4-46.4,31.4-46.4"/>
			<path class="st4" d="M2175,346.2c-0.2,10.9,1.6,46.3,4.1,56.9c2.6,10.5,8.2,20.8,17.3,26.6c10,6.4,22.7,6.7,34.3,4.2
				c2.8-0.6,5.6-1.4,8.5-1.3c4.5,0.2,8.7,2.4,12.2,5.3c15.1,12.3,19,34.4,33.5,47.5c9,8.2,22,12.9,26.8,24.1
				c2.6,6.1,2.2,13,4.1,19.4c2.7,9.2,10.4,16.8,19.7,19.4"/>
			<path class="st4" d="M2682.1,208.4c4.9,3.5,9,8,12,13.2c0.8,1.4,1.6,3,1.3,4.7c-0.3,2.1-2.2,3.5-3.9,4.6
				c-15.6,9.7-34.9,10.6-52.6,15.3s-36.5,16.2-38.7,34.5c-0.8,6.9,0.8,14.6-3.1,20.4c-4.2,6.2-12.7,7.2-19.3,10.7
				c-9.6,5-15.3,15.1-20,24.9c-8.5,17.4-16.1,35.6-28.6,50.5c-3.5,4.2-7.5,8.2-10,13.1s-3.3,11.1-0.4,15.8c1.6,2.6,4.2,4.5,5.9,6.9
				c6.6,9.4-0.7,22.4-9.5,29.7s-20,13.5-23.4,24.4c-1.8,5.7-1.3,12.4-5.2,17.1c-4.1,4.9-11.5,5.5-16.7,9.1c-5,3.5-7.7,10-6.6,16
				c1.1,6,10.1,15.7,16,17.3"/>
			<path class="st4" d="M2608.1,201.7c0,11.4-20.2,13.8-28,21.9c-8.5,8.7-9,22.6-15.7,32.7c-3.5,5.3-8.8,9.8-10.3,16
				c-1.5,6.4,1.3,13.3-0.3,19.7c-3.4,13.2-23.5,16.8-26.1,30.2c-0.5,2.9-0.2,5.8-0.4,8.7c-0.9,12-12.2,21-23.8,24.2
				c-11.6,3.2-24,2.2-36,3.2s-24.9,4.5-32.1,14.2c-6.8,9-7.2,21.3-5.9,32.4s4,22.5,2.3,33.6c-1.5,10-6.3,19.1-10.7,28.1
				c-8.9,18.3-16.3,37.4-22.2,56.9c-3.8,12.9-6.9,27.3-0.8,39.3"/>
		</g>
		<g id="Smaller_lines">
			<path class="st3" d="M2220.7,473.3c-11.9-2.1-25.3-3.8-34.8,3.6c-8.3,6.5-10.8,18.3-8.5,28.6c2.2,10.3,8.4,19.2,14.9,27.4
				c8.6,10.9,18.6,22.3,19,36.2"/>
			<path class="st3" d="M2203.3,502.7c2.4,9,9.6,16.5,18.4,19.4c4.2,1.4,8.8,1.7,13.2,2.1c4.6,0.3,9.1,0.7,13.7,1
				c2.4,0.2,4.9,0.4,7,1.7c4.5,2.8,4.7,9.7,2,14.3s-7.4,7.6-11.7,10.8c-4.2,3.2-8.4,7.4-9.1,12.7c-0.7,5.2,2.2,10.3,6.2,13.7
				s9,5.3,13.8,7.2"/>
			<path class="st3" d="M2233.2,646.9c6.1-2.1,12.3-3.8,18.6-5c21.1-4.1,42.9-3.2,64.4-2.2"/>
			<path class="st3" d="M2656.3,713.9c-12.6-6.1-28.4-13.6-41.6-18c-9-3-19.1-5.6-27.7-1.7c-5.2,2.3-9.2,6.7-14.3,9.1
				c-15.7,7.3-34.9-6.4-51,0.1c-5.5,2.2-9.9,6.6-14,10.9c-9.4,9.7-18.9,19.3-28.3,29c-4.3,4.4-8.6,8.8-12.2,13.7
				c-4,5.5-8.2,12.3-15,12.4"/>
			<path class="st3" d="M2667.1,581.7c1.8,22,11.3,43.2,26.5,59.2s36,26.5,57.8,29.4"/>
			<path class="st3" d="M2703.8,651.4c-12.6,6.4-25.8,11.5-39.4,15.2"/>
			<path class="st3" d="M2534.3,630.7c1.9,0.2,2,2.9,1.8,4.8c-0.8,7.4,2.2,14.9,6.6,20.9c4.5,6,10.3,10.8,16.1,15.5
				c2.7,2.2,5.7,4.5,9.2,4.4"/>
			<path class="st3" d="M2524.4,548.9c-4.5,14.6-3.2,30.8,3.4,44.6c2.4,5.1,6.1,16,11.5,17.3"/>
			<path class="st3" d="M2562.8,581.3c4-0.9,6.9-4.3,8.7-8c1.7-3.7,2.5-7.7,3.7-11.6c4.1-13.5,13.6-31.6,17.1-45.3"/>
			<path class="st3" d="M2673.6,513.4c16.1,7.2,34.5,9,51.7,4.9c6.3-1.5,13-4.2,16.2-9.9c3.3-5.9,2-13.4,4.9-19.5"/>
			<path class="st3" d="M2749.7,467.1c8.4,0.8,16.8,1.6,25.2,2.4c7.6,0.7,15.2,1.4,22.7,0.4c8.5-1.2,17.2-4.7,25.4-2.1
				c1.2,0.4,2.3,0.9,3.1,1.9c0.8,1.1,1,2.6,1.5,3.8s4.7,5.1,6,4.8"/>
			<path class="st3" d="M2784.6,546.4c8.8,2.4,20.4,8.6,27.3,14.6"/>
			<path class="st3" d="M2735.3,588.6c8.8,8.1,17.6,16.3,26.5,24.4c3,2.7,6,5.5,9.7,7c5.1,2.1,10.8,1.7,16.2,1.2
				c17.6-1.6,35.2-3.6,52.7-5.9c11-1.5,22.2-3.2,31.9-8.7"/>
			<path class="st3" d="M2859.2,578.7c8.7-4.7,11.7-15.6,13-25.4c0.8-5.6,1.3-11.6-1.4-16.6c-3-5.7-9.4-8.6-15.3-11.2
				c-5.9-2.6-11.9-5.1-17.8-7.7"/>
			<path class="st3" d="M2872.3,539.8c11.1-1.3,20.5-4.2,30.5-9.3"/>
			<path class="st3" d="M2902.8,439.2c11.9,2.6,17.4,16.4,19.4,28.4c4.2,24.8,2.4,50.2,0.5,75.4c-0.6,7.8-1.2,15.7-3.8,23.1
				c-4,11.3-12.8,22.4-9.3,33.9c2.8,9,12.7,14.3,22.2,14.6c9.4,0.3,18.5-3.3,27.3-6.8c23-9.2,46.1-18.5,69.1-27.7
				c4.8-1.9,9.9-4.1,12.7-8.4s1.9-11.4-3-13.1"/>
			<path class="st3" d="M2889.1,508.9c16.8-2.5,33-8.4,47.5-17.2c3.1-1.9,6.1-3.9,8.5-6.6c2.9-3.3,4.8-7.3,7-11.1
				c8-13.9,21.2-24.7,36.4-30c6.6-2.3,15.2-3,19.5,2.5c2.4,3,2.8,7.1,3,11c1.1,15.2,2.1,30.4,3.2,45.5"/>
			<path class="st3" d="M2961.7,552.9c20.7-4.4,41.1-10.3,60.9-17.8c10.6-4,21.6-8.9,27.8-18.3c9.7-14.5,4.6-33.9-1.2-50.4
				c-2.7-7.8-5.7-15.9-11.2-22.1c-6.8-7.7-16.6-11.9-26.4-15.3c-3.6-1.2-7.2-2.4-10.9-3.6c-3.7-1.2-7.3-2.4-11-3.8
				c-22.2-8.4-38.6-26.1-52.1-43.7"/>
			<path class="st3" d="M2890.9,411.1c19.9-14.9,40.5-29,61.5-42.3c3.9-2.5,8-5,10.6-8.9c4-5.9,3.9-13.9,7.8-19.9"/>
			<path class="st3" d="M2998.3,359.9c2.9,6,5.8,12.1,8.7,18.1c2.5,5.1,5,10.4,5.6,16.1c1.1,10.3-5.1,22.9-10.2,31.9"/>
			<path class="st3" d="M3055.7,501.3c6.4-2.5,11.7-12,15.9-17.4"/>
			<path class="st3" d="M3022.5,535.1c5.4-1.3,24.6-4.6,30-3.4c6.1,1.4,11.8,4.2,17.1,7.5c23.3,14.5,41.2,37.6,49.2,63.8"/>
			<path class="st3" d="M3063.8,569.8c1.7,5.7,3.4,11.4,5.1,17c2.3,7.8,4.6,16.3,1.5,23.8c-1.1,2.7-2.9,5-4.6,7.3
				c-12.7,16.8-23.3,29.9-37.7,45.2"/>
			<path class="st3" d="M2817.5,679.6c0.2-8.2-3.5-13.7-9.8-19"/>
			<path class="st3" d="M2817.2,314.4c7.4-0.8,14.9-1.7,22.3-2.5c3.9-0.4,7.9-0.9,11.3-2.9c1.9-1.1,3.6-2.7,5.2-4.3
				c4.6-4.5,9-9.1,13.4-13.8"/>
			<path class="st3" d="M2852.7,231.8c0.2,5.8-2.4,14.3-7,17.9c-2.2,1.7-4.9,3-6.9,5c-2,2-3.2,6.9-1.9,9.4"/>
			<path class="st3" d="M2798.7,279.5c9.7-6.2,19.9-12,31.1-14.4c13.7-2.8,28.2-0.2,41.1,5.1c13,5.4,24.6,13.3,36,21.5"/>
			<path class="st3" d="M2732.7,445.2c-9.8-0.7-19.2-4.5-27.8-9.3c-8.7-4.9-17-10.9-23.1-18.8c-6.1-7.9-9.9-17.9-9.2-27.8"/>
			<path class="st3" d="M2691.4,297.1c7.6,1.1,14.6,5.4,20,10.9c5.4,5.6,9.3,12.3,12.6,19.3c3.3,7,6.2,14.5,5.4,22.2"/>
			<path class="st3" d="M2237.9,377.3c-6.3-11.1-12.6-22.2-18.9-33.4c-1.8-3.2-3.6-6.5-4-10.1c-0.9-10.5,10.7-17.7,21.1-19.2
				c10.4-1.5,21.6-0.1,30.9-5c6.4-3.4,11-9.4,17.1-13.2c6-3.7,13-5.1,19.6-7.5c6.6-2.4,13.2-6.4,15.9-12.9"/>
			<path class="st3" d="M2272.4,573.6c36.7,7.2,77.4,5.7,108.1-15.6"/>
			<path class="st3" d="M2389.8,525.2c-1.4-27.4,5-54.6,4.9-82c-0.1-12.7-2.4-26.9-12.6-34.4"/>
			<path class="st3" d="M2462.6,390.3c5.3,13.8,7.6,28.9,6.6,43.7"/>
			<path class="st3" d="M2564.6,440.8c2.6,8-0.7,16.9,1.7,24.9c0.8,2.8,2.4,5.4,3.1,8.2c0.8,2.8,0.6,6.2-1.4,8.2"/>
			<path class="st3" d="M2474.9,316.2c6.2-5.2,12.5-10.5,17.3-17.1c3-4.2,5.4-8.9,7.9-13.4c9.3-16.5,21.6-31.3,36.1-43.5"/>
			<path class="st3" d="M2424.8,314.9c1-7.1,5.7-12.9,9.9-18.7c4.2-5.8,8.2-12.4,7.4-19.5"/>
			<path class="st3" d="M2313.6,376.4c-1.8-12.4,6.1-25.5,17.8-29.9c8.6-3.2,19.6-2.6,25-10.1c2.1-2.9,4.2-6.5,3.7-10.1
				c-2-12.9,8.5-25.1,15.7-36.1"/>
			<path class="st3" d="M2808,570.8c-0.1-2.6-0.7-7.3,3.9-9.8c0,0,8.5-1.9,12.1-3.3"/>
			<path class="st3" d="M2332.3,456.4c-9.9-1.5-17.3-10.7-19.3-20.5s0.4-19.9,4.1-29.2c2.8-7.3,6.6-14.5,12.7-19.4
				c5.2-4.1,11.6-6.2,17.8-8.2c9-2.9,18-5.8,27-8.7c9.9-3.2,20-6.4,30.3-6.3c10.4,0.1,21.3,4.2,27,12.8"/>
			<path class="st3" d="M2622.7,484.8c-16.3-26.5-24.5-57.9-23.2-89c0.4-8.4,1.4-17,4.8-24.7c3.1-7.1,7.9-13.2,12.7-19.2
				c10.8-13.3,21.8-26.4,33.2-39.3c10.3-11.6,21.1-23.3,34.5-31.1c14.8-8.7,31.9-12.3,48.6-15.9"/>
			<path class="st3" d="M2726.1,201.7c-0.9,13.9,9.5,25.9,20.3,34.7s23.3,16.5,29.8,28.9c4.6,8.8,5.6,18.9,9.4,28.1
				c3.5,8.5,9.3,15.8,13.4,24c3.3,6.7,5.5,13.9,9.2,20.3c14.8,25.8,53.7,37.9,71.7,61.6"/>
			<path class="st3" d="M2528.8,216.4c-12.9,11.8-31.6,13.8-48.7,17c-14.5,2.7-28.8,6.5-42.7,11.4c-10.7,3.8-21.4,8.4-29.9,15.9
				s-14.8,18.4-14.3,29.7c0.5,11.3,8.8,22.6,20.1,24.2c5.1,0.7,10.4-0.5,15.5,0.2c8.4,1.3,21.3,19.6,25.1,27.2"/>
			<path class="st3" d="M2412.2,257.1c-11-5.3-24.4-5.3-35.3,0c-11,5.3-19.2,15.9-21.8,27.8c-0.8,3.7-1.1,7.5-2.8,10.9
				c-2,4.2-5.9,7.1-9.7,9.8c-22.8,15.7-49.4,25.9-69.9,44.5c-4.4,4-8.7,8.8-9.6,14.7c-1,6.6,2.6,13.1,7.1,18.1s10,9,14.1,14.3
				c5.4,7,12.2,18.7,16.9,26.2"/>
		</g>
	</g>
</g>
<g id="RightLine">
	<path class="st0" id="rightline" d="M3139.6,690.2c55.6,0,952.1,0,952.1,0l216.1-216.1h530.6l227.1,227.1c0,0,231.9,0,287.2,0"/>
</g>
<g id="LeftLine">
	<path class="st0" id="leftline" d="M2123,788.8c-98.5,0-983.9,0-983.9,0L669.9,214c0,0-453.1,0-669.9,0"/>
</g>
</svg>
