<?xml version="1.0" encoding="utf-8"?>
<!-- Generator: Adobe Illustrator 19.2.1, SVG Export Plug-In . SVG Version: 6.00 Build 0)  -->
<svg version="1.1" xmlns="http://www.w3.org/2000/svg" xmlns:xlink="http://www.w3.org/1999/xlink" x="0px" y="0px"
	 viewBox="0 0 1024 1024" style="enable-background:new 0 0 1024 1024;" xml:space="preserve">
<style type="text/css">
	.st0{display:none;}
	.st1{fill:#FFFFFF;stroke:#000000;stroke-width:7;stroke-miterlimit:10;}
	.st2{fill:#FFFFFF;stroke:#000000;stroke-width:8;stroke-miterlimit:10;}
	.st3{fill:#FFFFFF;stroke:#000000;stroke-width:6;stroke-miterlimit:10;}
</style>
<g id="Layer_3" class="st0">
</g>
<g id="Stem">
	<path class="st1" d="M471.9,642.3c6.7,13.6,15.2,30.9,28,37.9c12.4,6.8,40.1,12.2,45.3,12.5c1.5,0.1,3.1,0.2,4.3,1
		c1.1,0.7,1.8,1.8,2.5,2.9c7.6,11.9,15.5,23.6,23.8,35c10.4,14.4,27,24.3,40.9,35.4c13.9,11,14.7,29.5,43.3,23.2
		c5.4-1.2,11.3-0.7,15.9-3.8c4.6-3.1,5.6-6.6,3.9-11.9c-2.3-6.7-12.4-7.4-18.4-11c-5.6-3.3-10.6-18-18.3-26.3
		c-24.9-27.2-30.5-30.7-42.4-45.2c-39.6-48.2-26.6-79.2-52-89C522.1,592.7,454.1,606.2,471.9,642.3z"/>
</g>
<g id="Bottom_Back">
	<path class="st2" d="M834.7,572.7c0,0,6.2,48.4-18.1,80c-25.6,33.3-7.7,29.4-89.1,71.7S570.1,684.6,561,664.6s-11.1-40.6-11.1-55
		c71.8-19.5,185.8-47.7,225.5-53.6C816,557.9,834.7,572.7,834.7,572.7z"/>
	<g>
		<path d="M836.6,600.7c0,0-0.1,0.1-0.2,0.4c-0.1,0.2-0.3,0.6-0.5,1c-0.5,0.7-1.2,1.5-2,1.8c-0.4,0.2-0.9,0.1-1.4,0.1
			c-0.5,0-1.1,0-1.7-0.1c-1.2,0-2.6-0.1-4.2-0.1c-3.1-0.1-6.8,0-11.1-0.1c-4.3,0-9.2,0.1-14.5,0.2c-2.7,0.1-5.4,0.2-8.3,0.2
			c-2.9,0.1-5.8,0.2-8.9,0.4c-3,0.1-6.2,0.3-9.4,0.5c-1.6,0.1-3.2,0.2-4.9,0.3c-1.6,0.1-3.3,0.2-4.9,0.3c-6.6,0.4-13.5,1.1-20.5,1.7
			c-7,0.7-14.1,1.5-21.1,2.3c-3.5,0.4-7.1,0.9-10.6,1.3c-3.5,0.5-7,1-10.5,1.4c-7,1-13.8,2-20.4,2.9c-13.2,2-25.7,3.6-36.2,5.3
			c-5.3,0.9-10.1,1.8-14.3,2.7c-4.2,0.9-7.9,2-10.8,2.9c-3,1-5.3,1.8-6.8,2.4c-1.6,0.6-2.4,1-2.4,1s0.8-0.4,2.3-1.2
			c1.5-0.7,3.7-1.8,6.7-3c2.9-1.2,6.5-2.5,10.7-3.7c4.2-1.3,9-2.5,14.2-3.6c5.3-1.2,11-2.3,17-3.5c6-1.2,12.4-2.5,19-3.7
			c6.6-1.3,13.4-2.5,20.3-3.8c3.5-0.6,7-1.2,10.5-1.8c3.5-0.6,7.1-1.1,10.6-1.7c7.1-1.1,14.2-2.2,21.2-3.1c7-0.9,13.9-1.8,20.6-2.4
			c1.7-0.2,3.3-0.3,5-0.5c1.7-0.1,3.3-0.3,4.9-0.4c3.2-0.3,6.4-0.5,9.5-0.7c3.1-0.2,6.1-0.4,9-0.5c2.9-0.1,5.7-0.1,8.4-0.2
			c2.7-0.1,5.3,0,7.8,0c2.5,0,4.8,0,7,0.1c2.2,0.1,4.3,0.2,6.2,0.3c1.9,0.1,3.7,0.1,5.2,0.3c1.6,0.1,3,0.2,4.2,0.3
			c0.6,0,1.2,0.1,1.7,0.1c0.5,0,1,0,1.4,0.3c0.8,0.4,1.4,1.3,1.8,2c0.2,0.4,0.3,0.7,0.4,1C836.6,600.6,836.6,600.7,836.6,600.7z"/>
	</g>
	<g>
		<path d="M828.9,629.5c0,0,0,0.1,0,0.3c0,0.2,0,0.5-0.1,0.9c-0.1,0.7-0.3,1.5-0.9,2.1c-0.3,0.3-0.6,0.5-1,0.7
			c-0.4,0.2-0.8,0.4-1.3,0.6c-1,0.4-2,0.9-3.3,1.5c-2.5,1.1-5.4,2.4-8.9,3.7c-3.5,1.3-7.4,2.8-11.8,4.2c-4.4,1.4-9.2,2.8-14.3,4
			c-5.1,1.3-10.6,2.3-16.2,3.3c-5.7,0.9-11.5,1.7-17.5,2.3c-6,0.6-12,1.2-18,1.7c-6,0.5-12.1,1-18,1.4c-5.9,0.5-11.8,0.8-17.5,1.1
			c-5.7,0.3-11.2,0.4-16.4,0.5c-2.6,0-5.1,0-7.6,0.1c-2.5,0-4.8-0.1-7.1-0.1c-4.6-0.1-8.7-0.3-12.4-0.5c-1.8-0.1-3.6-0.3-5.2-0.4
			c-1.6-0.1-3.1-0.3-4.4-0.4c-2.6-0.2-4.7-0.5-6.1-0.7c-1.4-0.2-2.2-0.3-2.2-0.3s0.8,0,2.2,0c1.4,0,3.5,0,6.1,0c1.3,0,2.8,0,4.4,0
			c1.6,0,3.3-0.1,5.2-0.1c3.7-0.1,7.8-0.3,12.3-0.5c4.5-0.2,9.4-0.5,14.6-0.9c5.2-0.4,10.6-0.9,16.2-1.4c5.6-0.5,11.4-1.2,17.3-1.8
			c5.9-0.6,11.9-1.4,17.9-2.1c6-0.7,12-1.4,17.9-2.2c5.9-0.8,11.6-1.6,17.1-2.6c5.5-1,10.8-2.2,15.8-3.3c5-1.2,9.7-2.4,14-3.7
			c8.6-2.5,15.6-5,20.5-6.8c1.2-0.4,2.3-0.9,3.2-1.2c0.5-0.2,0.9-0.4,1.3-0.5c0.4-0.2,0.8-0.3,1.2-0.3c0.8,0,1.5,0.4,2.1,0.8
			c0.3,0.2,0.5,0.4,0.7,0.5C828.8,629.4,828.9,629.5,828.9,629.5z"/>
	</g>
	<g>
		<path d="M806.9,665.8c0,0,0,0.1,0,0.4c0,0.2,0,0.6,0,0.9c-0.1,0.7-0.2,1.6-0.8,2.2c-0.3,0.3-0.6,0.5-1,0.7
			c-0.4,0.2-0.9,0.5-1.3,0.8c-1,0.5-2.1,1.2-3.3,1.8c-2.5,1.4-5.5,3-9.1,4.7c-3.6,1.7-7.7,3.6-12.2,5.4c-4.6,1.8-9.7,3.6-15.1,5
			c-5.5,1.5-11.3,2.6-17.4,3.5c-6.1,0.9-12.3,1.6-18.7,2c-6.4,0.4-12.8,0.7-19.3,0.9c-6.4,0.2-12.9,0.3-19.2,0.4
			c-6.3,0.1-12.6,0.1-18.6,0.1c-6,0-11.9-0.1-17.4-0.2c-5.5-0.1-10.8-0.3-15.6-0.4c-4.8-0.2-9.2-0.4-13.2-0.6
			c-3.9-0.2-7.3-0.4-10.1-0.6c-2.8-0.1-5-0.3-6.5-0.4c-1.5-0.1-2.3-0.2-2.3-0.2s12.9-0.4,32.1-1c4.8-0.2,10-0.4,15.5-0.5
			c5.5-0.2,11.3-0.5,17.3-0.7c6-0.3,12.2-0.6,18.5-0.8c6.3-0.3,12.7-0.6,19.1-1c12.8-0.7,25.5-1.7,37.2-3.6
			c5.8-0.9,11.4-2.2,16.6-3.5c5.2-1.4,10.1-2.9,14.5-4.6c4.4-1.6,8.5-3.3,12-4.8c3.5-1.6,6.6-3,9.1-4.2c1.2-0.6,2.4-1.2,3.3-1.6
			c0.5-0.2,0.9-0.5,1.3-0.7c0.4-0.2,0.8-0.4,1.2-0.5c0.8-0.1,1.6,0.2,2.2,0.5c0.3,0.2,0.6,0.3,0.8,0.5
			C806.8,665.7,806.9,665.8,806.9,665.8z"/>
	</g>
	<g>
		<path d="M752,710.1c0,0-1,1.8-3.2,2.6c-1.1,0.4-2.5,0.7-4,1.1c-1.6,0.4-3.3,0.8-5.3,1.3c-1.9,0.5-4,0.9-6.3,1.4
			c-2.2,0.5-4.6,0.9-7.1,1.3c-2.5,0.3-5,0.7-7.7,1c-2.6,0.3-5.3,0.4-8,0.6c-2.7,0.1-5.4,0.2-8,0.1c-2.6,0-5.3-0.2-7.8-0.4
			c-1.3-0.1-2.5-0.2-3.7-0.4c-1.2-0.1-2.4-0.3-3.5-0.5c-1.1-0.2-2.2-0.4-3.3-0.6c-1.1-0.2-2.1-0.5-3.1-0.7c-1-0.2-1.9-0.4-2.8-0.7
			c-0.9-0.3-1.7-0.5-2.5-0.8c-0.8-0.2-1.5-0.5-2.2-0.7c-0.7-0.2-1.3-0.5-1.8-0.7c-2.2-0.9-3.4-1.4-3.4-1.4s1.3,0.1,3.6,0.5
			c0.6,0.1,1.2,0.2,1.9,0.3c0.7,0.1,1.4,0.1,2.2,0.2c0.8,0.1,1.6,0.2,2.5,0.3c0.9,0.1,1.8,0.1,2.8,0.2c2,0.2,4.1,0.2,6.3,0.3
			c1.1,0.1,2.3,0,3.4,0c1.2,0,2.4,0,3.6,0c1.2,0,2.5-0.1,3.7-0.1c1.2,0,2.5-0.2,3.8-0.2c2.5-0.1,5.1-0.4,7.7-0.6
			c2.6-0.3,5.2-0.5,7.7-0.9c2.5-0.3,5.1-0.6,7.5-0.9c2.4-0.3,4.8-0.6,7-0.9c2.2-0.3,4.4-0.5,6.3-0.7c2-0.2,3.8-0.4,5.4-0.6
			c1.6-0.2,3-0.4,4.1-0.5C750.5,708.8,752,710.1,752,710.1z"/>
	</g>
	<g>
		<path d="M770,582.1c0,0-0.8,0.1-2.2,0.2c-1.4,0.2-3.5,0.5-6.1,0.9c-2.6,0.5-5.8,1.1-9.4,1.9c-3.6,0.8-7.7,1.7-12.1,2.7
			c-4.5,1-9.3,2-14.4,3.1c-5.1,1.1-10.5,2.2-16.1,3.3c-5.6,1.1-11.3,2.3-17.2,3.5c-5.9,1.2-11.8,2.4-17.7,3.7
			c-5.9,1.2-11.9,2.5-17.7,3.8c-5.8,1.3-11.6,2.5-17.3,3.5c-5.6,1.1-11.1,1.9-16.2,2.7c-5.2,0.8-10.1,1.5-14.6,2.1
			c-9,1.2-16.6,2.1-21.9,2.7c-2.6,0.3-4.7,0.5-6.2,0.6c-1.4,0.1-2.2,0.2-2.2,0.2s0.7-0.2,2.1-0.5c1.4-0.3,3.4-0.8,6-1.3
			c5.2-1.1,12.6-2.7,21.6-4.5c4.5-0.9,9.3-1.9,14.4-2.9c5.1-1.1,10.5-2.2,16-3.4c2.8-0.6,5.6-1.2,8.4-1.9c2.9-0.7,5.7-1.4,8.6-2
			c5.8-1.3,11.8-2.7,17.7-3.9c6-1.2,11.9-2.4,17.8-3.5c5.9-1.1,11.7-2.1,17.3-3.1c5.6-1,11.1-1.9,16.2-2.7c5.2-0.8,10-1.6,14.6-2.2
			c4.5-0.7,8.6-1.3,12.3-1.7c3.7-0.5,6.9-0.8,9.6-1c2.7-0.2,4.8-0.2,6.2-0.2C769.2,582.1,770,582.1,770,582.1z"/>
	</g>
	<g>
		<path d="M723,634c0,0-0.6,0-1.7,0c-1.1,0-2.8,0.1-4.9,0.3c-2.1,0.2-4.6,0.6-7.5,1.1c-2.9,0.5-6.1,1.2-9.6,1.9
			c-3.5,0.7-7.4,1.5-11.4,2.2c-4.1,0.8-8.3,1.6-12.8,2.3c-4.4,0.8-9,1.6-13.7,2.3c-4.7,0.8-9.4,1.5-14.2,2.3
			c-4.8,0.7-9.5,1.4-14.3,2c-4.7,0.6-9.4,1-13.9,1.4c-4.5,0.3-8.9,0.5-13.1,0.5c-4.2,0.1-8.1-0.1-11.7-0.4c-1.8-0.1-3.6-0.3-5.2-0.4
			c-1.6-0.2-3.2-0.4-4.7-0.6c-1.5-0.2-2.8-0.4-4.1-0.6c-1.3-0.2-2.4-0.5-3.4-0.7c-2.1-0.4-3.7-0.9-4.8-1.1c-1.1-0.3-1.7-0.4-1.7-0.4
			s0.6,0.1,1.7,0.1c1.1,0.1,2.8,0.3,4.9,0.4c1,0.1,2.2,0.2,3.5,0.2c1.3,0.1,2.6,0.1,4.1,0.2c1.5,0,3,0.1,4.6,0.1c1.6,0,3.3,0,5.1,0
			c3.6-0.1,7.4-0.2,11.5-0.5c4.1-0.3,8.4-0.7,12.8-1.2c4.4-0.5,9-1.2,13.7-1.8c4.7-0.6,9.4-1.4,14.1-2.1c4.8-0.7,9.5-1.4,14.2-2.1
			c4.7-0.7,9.3-1.3,13.8-1.9c4.5-0.6,8.8-1.2,12.9-1.7c4.1-0.5,8-1,11.6-1.4c3.6-0.4,6.9-0.8,9.8-0.9c2.9-0.2,5.5-0.2,7.7-0.2
			c2.1,0,3.8,0.2,4.9,0.4C722.4,633.9,723,634,723,634z"/>
	</g>
	<g>
		<path d="M714.3,672.3c0,0-2,0.4-5.4,1.1c-1.7,0.3-3.8,0.7-6.3,1.1c-1.2,0.2-2.5,0.4-3.9,0.6c-1.4,0.2-2.8,0.4-4.3,0.5
			c-1.5,0.2-3.1,0.4-4.7,0.6c-1.6,0.1-3.3,0.3-5,0.5c-3.5,0.3-7.1,0.5-10.9,0.7c-3.8,0.1-7.7,0.3-11.7,0.2c-4,0.1-8-0.1-12.1-0.2
			c-4-0.2-8.1-0.4-12.1-0.8c-4-0.3-7.9-0.8-11.6-1.2c-3.8-0.5-7.4-1-10.8-1.6c-1.7-0.3-3.4-0.6-5-0.9c-1.6-0.3-3.2-0.6-4.6-0.9
			c-1.5-0.3-2.9-0.6-4.3-0.9c-1.3-0.3-2.6-0.6-3.8-0.9c-2.4-0.6-4.5-1.1-6.2-1.6c-3.4-1-5.3-1.6-5.3-1.6s2,0.2,5.5,0.6
			c1.8,0.2,3.9,0.4,6.3,0.7c2.4,0.3,5.2,0.6,8.2,0.9c3,0.3,6.2,0.6,9.7,0.9c1.7,0.2,3.5,0.3,5.3,0.4c1.8,0.1,3.6,0.3,5.5,0.5
			c3.7,0.2,7.6,0.6,11.5,0.8c3.9,0.3,7.9,0.4,11.9,0.6c4,0.1,8,0.3,11.9,0.4c3.9,0.1,7.8,0.1,11.6,0.2c1.9,0,3.7,0,5.5,0
			c1.8,0,3.6,0,5.3,0c3.4-0.1,6.7-0.1,9.7-0.1c3-0.1,5.8-0.1,8.2-0.2c2.4-0.1,4.6-0.1,6.4-0.2C712.3,672.3,714.3,672.3,714.3,672.3z
			"/>
	</g>
	<g>
		<path d="M687,706.1c0,0-1.1,0.3-2.9,0.6c-0.9,0.2-2.1,0.4-3.4,0.6c-1.3,0.2-2.8,0.4-4.4,0.6c-1.6,0.2-3.4,0.4-5.3,0.5
			c-1.9,0.2-3.8,0.3-5.9,0.3c-2,0.1-4.2,0.1-6.3,0.1c-2.1,0-4.3-0.1-6.5-0.2c-2.2-0.1-4.4-0.2-6.5-0.4c-2.1-0.2-4.2-0.4-6.3-0.7
			c-4-0.5-7.8-1.2-11-1.9c-1.6-0.3-3.1-0.7-4.3-1c-1.3-0.3-2.4-0.6-3.3-0.9c-1.8-0.5-2.9-0.9-2.9-0.9s1.1-0.1,3-0.1
			c1.9,0,4.6,0,7.9,0.1c1.6,0,3.4,0.1,5.2,0.1c1.8,0.1,3.8,0.1,5.8,0.2c2,0.1,4.1,0.2,6.2,0.2c2.1,0.1,4.3,0.2,6.4,0.3
			c2.1,0.1,4.3,0.2,6.4,0.3c2.1,0.1,4.2,0.2,6.2,0.3c2,0.1,4,0.2,5.8,0.3c1.9,0.1,3.6,0.2,5.2,0.3c3.2,0.2,5.9,0.5,7.8,0.7
			C685.9,705.9,687,706.1,687,706.1z"/>
	</g>
	<g>
		<path d="M677.3,725.6c0,0-0.8,0.2-2.2,0.6c-0.7,0.2-1.6,0.3-2.6,0.5c-1,0.2-2.1,0.3-3.4,0.4c-1.2,0.1-2.6,0.2-4,0.2
			c-1.4,0-2.9,0-4.5-0.1c-1.5-0.1-3.2-0.2-4.8-0.4c-1.6-0.2-3.2-0.5-4.9-0.8c-1.6-0.4-3.2-0.7-4.8-1.2c-1.6-0.4-3.1-1-4.6-1.5
			c-1.5-0.6-2.8-1.1-4.1-1.7c-1.3-0.6-2.5-1.2-3.6-1.8c-1.1-0.6-2.1-1.2-2.9-1.7c-0.9-0.5-1.6-1-2.2-1.5c-1.2-0.9-1.8-1.4-1.8-1.4
			s0.8,0.1,2.2,0.5c0.7,0.2,1.5,0.4,2.5,0.6c1,0.2,2,0.5,3.2,0.8c1.2,0.3,2.4,0.6,3.8,0.9c1.3,0.3,2.7,0.6,4.2,1
			c1.4,0.3,2.9,0.7,4.5,1c1.5,0.3,3.1,0.7,4.6,1c1.6,0.3,3.1,0.6,4.6,0.9c1.5,0.3,3,0.6,4.5,0.8c1.5,0.2,2.9,0.5,4.2,0.7
			c1.4,0.2,2.6,0.4,3.8,0.6c2.4,0.4,4.4,0.8,5.8,1C676.5,725.4,677.3,725.6,677.3,725.6z"/>
	</g>
</g>
<g id="Main">
	<g id="Large_Lines">
		<path class="st3" d="M292.3,584.1c0-0.2-0.1-0.3-0.3-0.4c-77.8,0-124.5-9.8-147-66.3c-22.5-56.5-50.9-65.8-19.8-132.8
			s27.1-78.5,137.1-129.5s137.5-43.5,263.1-53.9s149.6,13.5,226.9,57.8s124,148.4,145,207s9.8,89.1-29.4,102.7
			c-39.2,13.6-61-28-134-6.5c-72.9,21.4-164.1,41.4-203.6,46.5s-95.3,57.4-113,57.4C366.6,666.3,280.9,629.6,292.3,584.1z"/>
		<g>
			<path d="M652.2,348.4c0,0-0.4,0.2-1.2,0.6c-0.8,0.4-1.9,1.1-3.3,1.9c-2.8,1.8-6.8,4.6-10.8,9.3c-2,2.3-4,5.1-6.1,8.3
				c-2,3.1-4.1,6.7-6.6,10.4c-2.5,3.7-5.5,7.4-9.3,10.8c-0.5,0.4-1,0.8-1.5,1.2c-0.5,0.4-1,0.8-1.5,1.2c-0.6,0.4-1.1,0.7-1.6,1.1
				c-0.5,0.4-1.1,0.7-1.7,1.1c-2.4,1.4-4.9,2.5-7.6,3.3c-5.4,1.7-11.1,2.3-16.9,2.8c-5.8,0.5-11.7,0.9-17.7,1.9
				c-5.9,1-11.9,2.5-17.7,4.9c-2.9,1.2-5.7,2.6-8.5,4.2c-0.7,0.4-1.4,0.8-2.1,1.2c-0.7,0.4-1.3,0.8-2,1.3c-0.7,0.4-1.3,0.9-2,1.4
				c-0.7,0.5-1.3,0.9-1.9,1.4c-2.5,2-4.9,4.1-7.2,6.5c-2.2,2.4-4.3,5-6.4,7.7c-2.1,2.7-4.1,5.6-6.4,8.4c-2.3,2.8-4.9,5.6-7.8,8
				c-3,2.4-6.2,4.5-9.7,6.1c-0.9,0.4-1.7,0.8-2.6,1.2c-0.9,0.3-1.7,0.7-2.7,1c-0.9,0.3-1.6,0.6-2.6,0.9c-0.9,0.3-1.8,0.6-2.7,0.8
				c-3.6,1-7.4,1.8-11.1,2.2c-3.8,0.4-7.5,0.5-11.2,0.5c-3.6-0.1-7.2-0.1-10.7-0.2c-3.5,0-6.9,0.1-10.3,0.4
				c-6.8,0.6-13.4,2.1-19.8,4.2l-2.4,0.8l-0.3,0.1c-0.1,0,0,0-0.1,0l-0.2,0.1l-0.6,0.2l-1.2,0.5c-1.6,0.6-3.3,1.2-4.9,1.9
				c-1.6,0.7-3.1,1.3-4.6,2c-1.5,0.7-3.1,1.4-4.6,2.1c-6.1,2.9-12.1,6-17.8,9.3c-11.5,6.5-22,13.7-31.8,20.9
				c-2.4,1.8-4.8,3.6-7.1,5.5c-1.2,0.9-2.3,1.8-3.4,2.7c-1.1,0.9-2.2,1.8-3.3,2.8c-4.4,3.6-8.6,7.3-12.5,10.8
				c-7.6,6.8-13.3,14.4-17.5,21.6c-2.1,3.6-3.9,7.1-5.4,10.5c-1.5,3.3-2.7,6.5-3.7,9.3c-2,5.8-3,10.4-3.7,13.6
				c-0.3,1.6-0.5,2.8-0.6,3.6c-0.1,0.8-0.2,1.2-0.2,1.2l-5.8-0.4c0,0,0-0.5,0.1-1.4c0.1-0.9,0.2-2.2,0.4-4c0.4-3.4,1.3-8.5,3-14.7
				c0.9-3.1,2-6.5,3.4-10.2c1.4-3.6,3.2-7.5,5.3-11.5c2.1-4,4.7-8.1,7.7-12.3c1.5-2.1,3.2-4.1,5-6.2c0.9-1,1.9-2.1,2.8-3.1
				c0.5-0.5,0.9-0.9,1.4-1.4l0.7-0.7l0.4-0.4l0.4-0.4c4-3.7,8.1-7.6,12.6-11.4c1.1-1,2.2-1.9,3.4-2.9c1.2-0.9,2.3-1.9,3.5-2.9
				c2.3-1.9,4.8-3.8,7.2-5.7c2.5-1.9,5-3.8,7.6-5.7c2.6-1.9,5.3-3.7,8-5.5c5.5-3.7,11.2-7.2,17.1-10.6c6-3.4,12.2-6.5,18.7-9.4
				c1.6-0.7,3.2-1.4,4.9-2.1c1.7-0.7,3.4-1.3,5-2c1.7-0.7,3.3-1.2,5-1.8l1.2-0.4l0.6-0.2l0.4-0.1l0.3-0.1l2.6-0.8
				c7-2.1,14.4-3.6,21.9-4.1c3.7-0.2,7.5-0.2,11.1-0.1c3.6,0.2,7.2,0.3,10.7,0.5c3.5,0.1,6.9,0.1,10.3-0.2c3.4-0.3,6.7-0.8,9.9-1.7
				c0.8-0.2,1.6-0.4,2.4-0.7c0.8-0.2,1.7-0.5,2.5-0.8c0.7-0.2,1.5-0.6,2.3-0.8c0.8-0.3,1.5-0.6,2.3-0.9c3-1.3,5.8-3,8.4-5
				c5.2-3.9,9.2-9.4,13.5-14.9c2.2-2.7,4.5-5.5,7-8c2.5-2.5,5.2-4.9,8-6.9c0.7-0.5,1.4-1,2.1-1.5c0.7-0.5,1.5-1,2.2-1.4
				c0.7-0.5,1.5-0.9,2.2-1.3c0.8-0.4,1.5-0.9,2.2-1.2c3-1.6,6.1-3,9.2-4.2c6.3-2.4,12.7-3.9,18.9-4.7c6.3-0.8,12.3-1,18.1-1.3
				c5.7-0.3,11.2-0.7,16.2-2.1c2.5-0.7,4.8-1.6,6.9-2.8c0.5-0.3,1-0.5,1.6-0.9c0.5-0.3,1.1-0.7,1.5-1c0.5-0.4,1-0.7,1.5-1.1
				c0.5-0.4,0.9-0.7,1.4-1.1c3.7-3,6.6-6.5,9.1-10c2.5-3.5,4.7-7,6.9-10.1c2.2-3.1,4.4-5.9,6.6-8.2c4.4-4.7,8.6-7.4,11.5-9.2
				c1.5-0.8,2.6-1.5,3.4-1.8c0.8-0.4,1.2-0.6,1.2-0.6L652.2,348.4z"/>
		</g>
		<g>
			<path d="M324.3,607.8c0,0,0.1,0,0.4,0c0.3,0,0.7-0.1,1.2-0.2c1.1-0.3,2.6-0.7,4.6-1.6c3.9-1.7,9.3-5,15.2-10.4
				c0.7-0.7,1.5-1.4,2.2-2.1c0.7-0.7,1.5-1.5,2.2-2.3c0.7-0.8,1.5-1.7,2.3-2.5c0.7-0.9,1.5-1.8,2.2-2.7c2.9-3.8,5.6-8.3,8.9-12.9
				c3.2-4.7,7.2-9.4,11.8-13.8c4.6-4.4,9.8-8.7,15.4-12.8c1.4-1.1,2.8-2.1,4.3-3.1c1.5-1,2.9-2.1,4.4-3.1c3-2,6-4,9.3-5.9
				c6.5-3.9,13.6-7.5,21.7-9.5l1.5-0.4c0.5-0.1,1-0.2,1.5-0.3c1-0.2,2.1-0.3,3.1-0.5c2.1-0.2,4.2-0.4,6.3-0.4
				c4.2-0.1,8.4,0.2,12.6,0.5c8.3,0.7,16.7,1.2,25.2,1l1.6,0l0.7,0l0.8,0c1.1-0.1,2.2-0.1,3.2-0.2c1-0.1,2-0.2,3-0.3
				c1-0.2,2.1-0.3,3.1-0.5c4.1-0.8,8.3-1.9,12.3-3.3c8.2-2.8,16.1-6.7,24-11c7.9-4.3,15.7-9,23.7-13.7c8-4.6,16.2-9.2,25.4-12.5
				l1.7-0.6l1.8-0.5c1.2-0.4,2.4-0.6,3.6-0.9l0.5-0.1c0,0,0.2-0.1,0.3-0.1l0.2,0l0.9-0.2l1.7-0.3c1.1-0.2,2.2-0.4,3.5-0.6
				c1.2-0.2,2.4-0.4,3.6-0.5l3.6-0.3l3.7-0.2c1.2,0,2.5,0,3.7,0c2.5,0.1,5,0.4,7.2,0.7c2.3,0.3,4.2,0.5,6,0.4
				c1.8-0.1,3.6-0.6,5.5-1.2l1.4-0.5l0.4-0.1l0.2-0.1c0.1,0-0.4,0.2-0.1,0l0.8-0.4l1.5-0.7c0.1-0.1,0.3-0.1,0.4-0.2l0.2-0.2l0.5-0.4
				c0.3-0.2,0.7-0.5,1-0.7l1.1-0.9c0.4-0.3,0.7-0.6,1.1-0.9l1-1c0.7-0.7,1.3-1.5,2-2.2c0.7-0.7,1.2-1.6,1.8-2.4
				c2.4-3.4,4.4-7.1,6.4-10.9c1.9-3.9,3.7-7.8,5.7-11.9c0.5-1,1-2,1.5-3c0.5-1,1-2,1.6-3l0.4-0.8l0.2-0.4l0.1-0.2
				c0,0,0.2-0.3,0.2-0.3l0.8-1.4c0.5-0.9,1.3-2,2-3c1.5-2,3.1-4,5.1-5.6c1.9-1.7,3.9-3.1,5.8-4.3c3.8-2.4,7.1-4.4,10.4-6.7
				c0.8-0.6,1.6-1.2,2.4-1.7c0.8-0.6,1.6-1.2,2.3-1.8c0.8-0.6,1.5-1.3,2.3-1.9l1.1-0.9l0.1-0.1c0.2-0.2-0.1,0.1,0,0.1l0.3-0.3
				l0.5-0.5c0.7-0.7,1.5-1.4,2.2-2.1c0.6-0.6,1.1-1.3,1.7-1.9c0.3-0.3,0.6-0.6,0.8-1l0.8-1.1c0.5-0.7,1.1-1.5,1.6-2.2
				c4-6.1,7-12.9,9.4-19.7c1.3-3.4,2.4-6.8,3.6-10.3c1.2-3.4,2.2-6.8,3.9-10.4l0.8-1.4l0.6-1.1l0.6-1.1c0.1-0.2,0.2-0.4,0.3-0.5
				l0.2-0.5l0.4-0.9l0.4-1.1c0.3-0.7,0.6-1.4,0.8-2.2c1-2.9,1.9-6,2.6-8.9c1.4-6,2.4-11.8,3.3-17.3c0.4-2.8,0.8-5.4,1.2-8l0.1-1
				l0.1-0.5c0-0.3,0-0.1,0-0.2l0-0.1l0-0.2l0.2-1c0.1-0.4,0.2-0.7,0.3-1.1c0.2-0.8,0.4-1.3,0.6-2c0.3-0.6,0.5-1.3,0.8-1.8
				c2.2-4.7,4.9-8.5,7.3-11.7c2.5-3.3,4.9-6,7.1-8.3c2.2-2.3,4-4.2,5.6-5.7c3.1-3,4.9-4.5,4.9-4.5l0.7,0.7c0,0-1.6,1.7-4.3,5
				c-2.7,3.3-6.7,8.2-11.1,14.9c-2.1,3.3-4.4,7.1-5.9,11.4c-0.8,2.2-1.2,4.1-1.3,6.7c-0.2,2.6-0.4,5.4-0.6,8.2
				c-0.5,5.7-1.2,11.7-2.3,18c-0.6,3.2-1.3,6.5-2.2,9.8c-0.2,0.8-0.5,1.7-0.8,2.6l-0.5,1.3l-0.6,1.4l-0.3,0.7
				c-0.1,0.2-0.2,0.5-0.3,0.6l-0.6,1.1l-0.1,0.3c-0.1,0.1,0-0.1-0.2,0.3l-0.1,0.1l-0.2,0.5l-0.4,0.9c-1.2,2.7-2.1,6.1-3.1,9.6
				c-1,3.4-2,7-3.2,10.6c-2.3,7.3-5.3,14.8-9.8,22.1c-0.6,0.9-1.2,1.8-1.8,2.7l-0.9,1.3c-0.3,0.4-0.7,0.9-1.1,1.3
				c-0.7,0.9-1.5,1.8-2.2,2.7c-0.7,0.7-1.4,1.4-2.1,2.2l-0.5,0.5l-0.3,0.3l-0.3,0.3l-0.1,0.1l-1.2,1c-0.8,0.7-1.6,1.4-2.4,2.1
				c-0.8,0.7-1.7,1.4-2.5,2c-0.9,0.7-1.7,1.3-2.6,2c-3.5,2.6-7.3,4.9-10.7,7.1c-1.7,1.1-3.2,2.2-4.5,3.3c-1.3,1.1-2.4,2.5-3.5,4
				c-0.5,0.7-1,1.4-1.6,2.4l-0.9,1.4l-0.7,1.2c-0.5,0.9-1,1.8-1.5,2.8c-0.5,0.9-1,1.9-1.4,2.9c-1.9,3.9-3.9,7.9-6,11.9
				c-2.1,4-4.5,8.1-7.4,12.1c-0.8,1-1.5,2-2.3,2.9c-0.8,0.9-1.6,1.9-2.6,2.8l-1.4,1.3c-0.5,0.4-1,0.8-1.5,1.2l-1.6,1.2l-1.9,1.2
				l-0.9,0.6l-0.5,0.3c-0.1,0.1-0.3,0.1-0.4,0.2l-1.6,0.7l-0.8,0.4c0.2-0.1-0.5,0.2-0.5,0.2l-0.2,0.1l-0.4,0.2l-1.8,0.6
				c-2.4,0.7-5.1,1.4-7.9,1.5c-2.8,0.1-5.5-0.3-7.7-0.6c-2.3-0.3-4.3-0.6-6.4-0.8c-4.2-0.3-8.6,0-12.9,0.6c-1.1,0.1-2.2,0.3-3.3,0.5
				l-1.7,0.3L588,489l-0.2,0c-0.1,0,0,0-0.1,0l-0.4,0.1c-1,0.2-2.1,0.4-3.1,0.7l-1.6,0.4l-1.5,0.5c-8.3,2.7-16.3,7-24.3,11.4
				c-8,4.4-15.9,9-24.1,13.3c-8.1,4.2-16.5,8.1-25.2,10.9c-4.4,1.4-8.8,2.5-13.3,3.3c-1.1,0.2-2.3,0.3-3.4,0.5
				c-1.2,0.1-2.3,0.2-3.5,0.3c-1.2,0.1-2.2,0.1-3.3,0.1l-0.8,0l-0.9,0l-1.6,0c-8.8,0-17.4-0.8-25.6-1.6c-4.1-0.4-8.2-0.8-12.1-0.7
				c-2-0.1-3.9,0.1-5.8,0.2c-0.9,0.1-1.9,0.3-2.8,0.4c-0.5,0.1-0.9,0.1-1.4,0.2l-1.4,0.3c-7.4,1.6-14.3,4.9-20.7,8.4
				c-3.2,1.7-6.3,3.7-9.4,5.6c-1.5,0.9-3,2-4.4,2.9c-1.5,1-2.9,1.9-4.3,2.9c-5.6,3.9-10.8,8-15.4,12.1c-4.6,4.2-8.5,8.6-11.8,13
				c-3.3,4.5-6.1,9-9.3,12.8c-0.8,1-1.6,1.9-2.4,2.8c-0.8,0.9-1.6,1.7-2.4,2.5c-0.8,0.8-1.6,1.5-2.4,2.3c-0.8,0.7-1.6,1.4-2.3,2.1
				c-6.1,5.4-11.8,8.6-15.9,10.2c-4.1,1.6-6.5,1.8-6.5,1.8L324.3,607.8z"/>
		</g>
		<g>
			<path d="M164.6,317.1c0,0,0,0.9,0,2.6c0,1.6,0,4.1,0.1,7.2c0.1,3.1,0.2,6.9,0.4,11.2c0.2,4.3,0.4,9.2,0.8,14.5
				c0.2,2.6,0.5,5.4,1,8.1l0.1,0.5l0,0.2l0.1,0.3l0.3,1.1c0.2,0.7,0.3,1.3,0.5,2c0.4,1.4,0.9,2.7,1.4,4.1
				c2.2,5.4,5.8,10.7,11.4,14.1c1.3,0.8,2.9,1.5,4.4,2c1.6,0.6,3.2,0.9,4.9,1.2c3.3,0.6,6.8,0.6,10.3,0.2c1.7-0.2,3.4-0.5,5.2-0.9
				c1.7-0.4,3.5-0.9,5.4-1.1c1.9-0.2,3.9,0,5.7,0.6c1.8,0.6,3.6,1.5,5.1,2.5c0.8,0.5,1.6,1.1,2.3,1.7c0.7,0.6,1.5,1.2,2.1,1.9
				c1.4,1.3,2.6,2.7,3.8,4.1c2.3,2.9,4.3,6,6.1,9.1c3.6,6.2,6.7,12.3,10.8,17.1c2,2.4,4.3,4.4,6.8,6.3c2.5,1.8,5.2,3.5,7.7,5.4
				c2.6,1.9,5.1,3.9,7.1,6.4c2.1,2.4,3.6,5.4,4.3,8.3c0.7,2.9,0.9,5.5,1.1,7.9c0.3,2.4,0.5,4.5,1.2,6.5c0.6,1.8,1.5,3.6,2.4,5.1
				c1,1.5,2,2.8,3.1,3.8c2.2,2.1,4.2,3.4,5.7,4.1c0.7,0.4,1.3,0.6,1.7,0.8c0.4,0.2,0.6,0.3,0.6,0.3l-0.1,0.5c0,0-0.2,0-0.7-0.1
				c-0.4-0.1-1.1-0.2-1.9-0.5c-1.6-0.5-4-1.5-6.6-3.5c-1.3-1-2.6-2.2-3.9-3.8c-1.3-1.6-2.4-3.4-3.4-5.6c-0.2-0.6-0.4-1-0.6-1.6
				c-0.2-0.6-0.4-1.2-0.5-1.8c-0.3-1.2-0.6-2.4-0.8-3.6c-0.4-2.5-0.8-4.9-1.6-7.3c-0.7-2.3-1.9-4.4-3.7-6.3c-1.7-1.9-4-3.6-6.4-5.3
				c-2.5-1.7-5.2-3.4-7.9-5.4c-2.7-2-5.4-4.5-7.6-7.3c-4.5-5.6-7.4-12.1-10.7-18.3c-1.6-3.1-3.3-6.2-5.2-9c-1-1.4-2-2.8-3.1-4.1
				c-0.6-0.7-1.1-1.2-1.7-1.9c-0.7-0.6-1.2-1.2-1.9-1.7c-2.6-2.1-5.8-3.7-9.1-3.5c-1.7,0.1-3.4,0.5-5.2,0.8
				c-1.8,0.4-3.5,0.6-5.3,0.8c-7.1,0.8-14.4,0.2-20.8-2.9c-0.4-0.2-0.8-0.4-1.1-0.6l-0.6-0.3l-0.6-0.4c-0.8-0.4-1.5-1-2.2-1.5
				c-1.4-1.1-2.7-2.2-3.8-3.5c-1.2-1.3-2.2-2.6-3.2-4c-0.9-1.4-1.8-2.8-2.5-4.3c-0.7-1.5-1.4-2.9-1.9-4.4c-0.3-0.7-0.5-1.5-0.8-2.2
				l-0.3-1.1l-0.1-0.3l-0.1-0.3l-0.1-0.6c-0.7-3-1.1-5.8-1.4-8.5c-0.7-5.4-1.1-10.3-1.5-14.7c-0.3-4.4-0.6-8.2-0.8-11.4
				c-0.1-3.2-0.2-5.6-0.3-7.4c0-1.7,0-2.6,0-2.6L164.6,317.1z"/>
		</g>
		<g>
			<path d="M561.8,208.1c0,0,0.3,0.2,0.9,0.6c0.6,0.4,1.4,1,2.5,1.9c1.1,0.9,2.3,2,3.6,3.5c0.7,0.7,1.3,1.6,2,2.5
				c0.7,1,1.4,1.9,2,3.2c0.3,0.6,0.5,1.4,0.5,2.3c0,0.2,0,0.4-0.1,0.7l0,0.3l-0.1,0.4c-0.1,0.4-0.3,0.8-0.6,1.2
				c-1,1.5-2.4,2.3-3.7,3.1c-1.2,0.8-2.7,1.6-4.2,2.4c-0.8,0.4-1.5,0.7-2.3,1.1c-0.8,0.3-1.6,0.7-2.4,1c-6.7,2.6-14.6,4.1-22.9,5.9
				c-8.4,1.7-17.2,4-25,9.1c-1,0.6-1.9,1.3-2.9,2c-0.5,0.4-0.9,0.7-1.4,1.1l-0.7,0.6l-0.6,0.6c-1.8,1.6-3.3,3.4-4.6,5.4
				c-1.3,2-2.2,4.3-2.9,6.6c-0.7,2.4-0.7,4.9-0.8,7.6c-0.1,2.7-0.3,5.6-1.4,8.4c-0.6,1.4-1.4,2.7-2.4,3.7c-1.1,1.1-2.3,1.9-3.6,2.6
				c-2.6,1.4-5.3,2.2-7.8,3.2c-1.3,0.5-2.6,1-3.7,1.7l-0.9,0.5l-0.8,0.6c-0.6,0.4-1.1,0.8-1.6,1.2c-4.2,3.5-7.2,8.4-9.7,13.4
				c-2.5,5.1-4.7,10.4-7.1,15.6c-2.3,5.2-4.8,10.5-7.6,15.5c-2.8,5-6,9.9-9.8,14.3c-1.8,2.2-3.6,4.2-5.1,6.4
				c-0.7,1.1-1.3,2.1-1.8,3.3c-0.4,1-0.8,2.2-1,3.4c-0.3,2.3,0,4.5,1.2,6.2c0.5,0.8,1.4,1.7,2.4,2.7c0.5,0.5,1,1,1.5,1.7
				c0.1,0.2,0.2,0.3,0.4,0.5l0.2,0.2l0.2,0.4l0.5,0.9c0.1,0.2,0.2,0.3,0.3,0.5l0.3,0.6c0.2,0.4,0.4,0.8,0.5,1.2l0.3,1.2
				c0.1,0.4,0.2,0.8,0.2,1.2l0.1,1.2c0,0.4,0,0.8,0,1.2c0,0.8-0.1,1.5-0.2,2.3c-0.5,3-1.7,5.7-3.2,8.1c-1.5,2.4-3.2,4.5-5.2,6.4
				c-1,0.9-2.1,1.8-3,2.6c-1,0.8-2,1.6-3,2.3c-3.9,3-7.7,5.8-10.2,9.1c-1.3,1.6-2.3,3.4-2.9,5.2l-0.2,0.6l-0.2,0.8l-0.1,0.7
				l-0.1,0.7c-0.2,1-0.3,2.1-0.5,3.1c-0.3,2.2-0.7,4.5-1.9,6.9c-0.3,0.6-0.6,1.1-1,1.7l-0.3,0.4l-0.1,0.2l-0.2,0.3l-0.5,0.6
				c-1.1,1.1-2,1.7-3,2.4c-2,1.2-3.9,1.9-5.6,2.6c-1.7,0.7-3.1,1.4-4.2,2.1c-2.1,1.5-3.4,3.8-3.8,6c-0.2,1.1-0.3,2.2-0.1,3.2l0,0.2
				l0,0.1l0,0c-0.1-0.4,0-0.1,0-0.1l0.1,0.5l0.1,0.2l0,0.1l0,0.1c0,0.1,0.1,0.1,0.1,0.2c0,0.1,0,0.1,0.1,0.2l0.2,0.3
				c0.1,0.2,0.2,0.4,0.3,0.7c1,1.8,2.3,3.4,3.4,4.7c1.2,1.3,2.3,2.3,3.2,3c0.2,0.2,0.4,0.3,0.6,0.5c0.2,0.1,0.4,0.2,0.5,0.4
				c0.3,0.3,0.4,0.7,0.5,1.2c0.1,0.5,0.1,0.9,0.2,1.4c0,0.4,0.1,0.7,0.1,0.7l-0.1,0.5c0,0-0.1,0.2-0.4,0.5c-0.3,0.3-0.7,0.6-1.3,0.8
				c-0.5,0.2-1.2,0.3-1.8,0.1c-0.6-0.2-1.2-0.6-1.8-1.1c-1.3-0.9-2.7-2-4.2-3.5c-1.5-1.5-3.1-3.3-4.6-5.9c-0.2-0.3-0.4-0.7-0.5-1
				l-0.3-0.5c-0.1-0.2-0.2-0.4-0.3-0.7l-0.3-0.7l-0.1-0.2l0-0.1l-0.1-0.2l-0.1-0.5l-0.1-0.3l0-0.1l0-0.2l0-0.3
				c-0.3-1.7-0.2-3.6,0.2-5.4c0.8-3.7,3-7.4,6.7-9.9c3.6-2.4,7.6-3.1,10.4-4.6c0.7-0.4,1.4-0.9,1.7-1.2l0.5-0.5l0.1-0.1
				c0,0,0.1-0.2,0,0l0.1-0.1l0.2-0.2c0.2-0.3,0.4-0.6,0.6-0.9c0.8-1.3,1.2-3.1,1.6-5.2c0.2-1,0.4-2.1,0.6-3.3l0.2-0.9l0.2-0.9
				l0.2-0.8c0.1-0.4,0.2-0.6,0.3-0.9c0.9-2.4,2.3-4.6,3.9-6.6c3.3-3.9,7.3-6.9,11.2-9.8c1-0.7,1.9-1.5,2.9-2.2
				c1-0.8,1.8-1.5,2.7-2.3c1.7-1.6,3.2-3.4,4.4-5.4c1.2-2,2.2-4.2,2.6-6.3c0.1-0.5,0.2-1.1,0.2-1.6c0-0.3,0-0.5,0-0.8l-0.1-0.8
				c0-0.3-0.1-0.5-0.1-0.8l-0.2-0.8c-0.1-0.2-0.2-0.4-0.3-0.6l-0.1-0.3c0-0.1-0.2-0.3-0.2-0.4l-0.5-0.9l-0.1-0.1c0,0-0.1-0.2,0,0
				l-0.1-0.2l-0.2-0.3c-0.3-0.4-0.8-0.9-1.2-1.4c-0.9-1-2-2-2.9-3.4c-0.9-1.4-1.6-3.1-1.8-4.7c-0.3-1.7-0.2-3.3,0-4.9
				c0.3-1.6,0.7-3.1,1.4-4.6c0.6-1.4,1.4-2.7,2.3-3.9c1.7-2.5,3.7-4.6,5.5-6.7c7.3-8.2,13-18,18.2-28.2c2.6-5.1,5.1-10.2,7.9-15.2
				c1.4-2.5,2.8-5,4.6-7.3c1.7-2.3,3.6-4.5,5.9-6.4c0.6-0.4,1.1-0.9,1.8-1.3l0.9-0.6l0.9-0.5c1.3-0.7,2.6-1.3,3.9-1.8
				c2.6-1,5.2-1.9,7.5-3.3c1.1-0.7,2.2-1.5,3-2.4c0.9-0.9,1.5-2,1.9-3.2c0.8-2.3,0.8-5,0.8-7.6c0-2.6-0.2-5.4,0.4-8.2
				c0.1-0.7,0.3-1.4,0.5-2.1c0.2-0.7,0.3-1.4,0.6-2c0.3-0.7,0.5-1.3,0.8-2l1-1.8c2.7-4.8,6.7-8.6,11-11.5c4.3-2.9,8.8-5,13.4-6.5
				c1.2-0.4,2.3-0.7,3.4-1c1.2-0.3,2.3-0.6,3.4-0.8c2.2-0.5,4.4-0.9,6.5-1.3c8.5-1.5,16.1-2.8,22.6-4.9c0.8-0.3,1.6-0.6,2.4-0.8
				c0.8-0.3,1.5-0.6,2.2-0.9c1.4-0.6,2.8-1.2,4.1-2c1.3-0.7,2.4-1.4,3.1-2.2c0.6-0.8,0.7-1.6,0.3-2.7c-0.4-1-1-2.1-1.5-3
				c-0.6-0.9-1.1-1.8-1.7-2.5c-1.1-1.5-2.2-2.8-3.1-3.7c-0.9-1-1.7-1.6-2.2-2.1c-0.5-0.4-0.8-0.7-0.8-0.7L561.8,208.1z"/>
		</g>
		<g>
			<path d="M503.6,202.4c0,0,0.3,0,0.8,0.1c0.3,0,0.6,0.1,1,0.1c0.1,0,0.2,0,0.3,0c0.1,0,0.2,0,0.3,0c0.1,0,0.3,0.1,0.4,0.1
				c0.3,0.1,0.6,0.1,1,0.2c0.2,0,0.2,0.1,0.3,0.1c0.1,0,0.2,0.1,0.3,0.1c0.1,0.1,0.2,0.1,0.2,0.2c0,0.2,0,0.3-0.1,0.5
				c0,0.4-0.1,0.8-0.2,1.2c-0.1,0.4-0.2,0.8-0.3,1.2c-0.1,0.4-0.3,0.8-0.5,1.3c-0.2,0.4-0.5,0.9-0.7,1.4c-0.6,0.9-1.3,1.8-2.1,2.6
				c-0.8,0.8-1.7,1.6-2.7,2.3c-1.9,1.4-4.2,2.6-6.5,3.8c-2.3,1.2-4.9,2.3-7.2,3.6c-1.1,0.6-2.3,1.4-3.1,2.1l-0.2,0.1l0,0
				c0,0-0.1,0.1,0,0l-0.1,0.1l-0.4,0.4c-0.2,0.3-0.4,0.4-0.6,0.7c-0.4,0.5-0.9,1-1.3,1.6c-1.7,2.4-3.1,5.6-4.6,9.2
				c-1.5,3.6-3.1,7.8-6,11.8l-0.3,0.4l-0.3,0.4l-0.5,0.7c-0.4,0.5-0.8,1-1.2,1.4c-0.7,0.8-1.5,1.7-2.3,2.5c-1.5,1.6-2.8,3.3-3.6,5
				c-0.2,0.4-0.4,0.9-0.5,1.3l-0.1,0.2c0-0.2,0,0,0,0l0,0.1l-0.1,0.4c-0.1,0.3-0.1,0.5-0.1,0.7c-0.1,0.9-0.2,2-0.2,3.2
				c0.1,2.3,0.4,4.8,0.3,7.5c-0.1,1.4-0.3,2.8-0.8,4.2c-0.1,0.3-0.2,0.7-0.4,1c-0.1,0.4-0.3,0.7-0.5,1c-0.3,0.6-0.7,1.3-1.1,1.8
				c-1.7,2.3-3.8,4.1-6,5.7c-2.2,1.6-4.4,3-6.5,4.6c-2.1,1.6-4,3.3-5.3,5.4c-0.7,1.1-1.1,2.2-1.4,3.4c-0.3,1.2-0.3,2.5-0.3,3.9
				c0,2.8-0.4,5.8-1.6,8.5c-1.2,2.7-3,5-5.2,7c-2.1,2-4.6,3.6-7.2,4.9c-2.6,1.3-5.5,2.2-8.3,2.8c-2.9,0.6-5.8,1-8.7,1.3
				c-5.8,0.5-11.6,0.6-17.3,1.2c-5.6,0.6-11.2,2-16,4.6c-2.4,1.3-4.5,2.9-6.3,4.9c-0.4,0.5-0.8,1-1.2,1.5l-0.1,0.1c-0.1,0.1,0,0,0,0
				l-0.1,0.2l-0.3,0.4c-0.2,0.3-0.4,0.6-0.6,0.9c-0.6,1-1.2,2.2-1.6,3.5c-1.8,4.9-2,10.4-1.6,15.8c0.4,5.4,1.6,10.8,2.2,16.3
				c0.3,2.8,0.6,5.6,0.6,8.4c0,1.4-0.1,2.8-0.2,4.2c-0.1,0.7-0.1,1.4-0.3,2.1l-0.2,1l-0.2,1.1c-0.6,2.8-1.5,5.3-2.4,7.8
				c-1,2.5-2.1,4.8-3.2,7.1c-1.1,2.2-2.2,4.4-3.3,6.6c-1.1,2.2-2.1,4.3-3.1,6.4c-2,4.2-3.8,8.3-5.5,12.3c-3.4,8-6.1,15.4-8.4,22
				c-1.1,3.3-2.1,6.4-2.9,9.3c-0.8,2.9-1.3,5.6-1.6,8.1c-0.6,4.9-0.1,8.9,0.5,11.4c0.3,1.3,0.7,2.3,0.9,2.9c0.3,0.6,0.4,1,0.4,1
				l-0.4,0.2c0,0-0.2-0.3-0.5-0.9c-0.3-0.6-0.8-1.6-1.3-2.9c-0.9-2.6-1.8-6.7-1.6-11.9c0.2-5.2,1.4-11.4,3.4-18.2
				c1.9-6.9,4.3-14.5,7.4-22.7c1.6-4.1,3.3-8.3,5.1-12.7c1.9-4.3,4-8.8,6.1-13.2c1-2.2,2-4.5,2.9-6.8c0.9-2.3,1.7-4.6,2.2-7
				c1.1-4.8,0.9-9.8,0.4-15.1c-0.5-5.3-1.5-10.7-1.9-16.6c-0.3-5.8,0-11.9,2.3-17.7c0.6-1.4,1.3-2.8,2.2-4.2
				c0.2-0.4,0.4-0.6,0.6-0.9l0.3-0.4l0.2-0.2c0,0,0.1-0.2,0.1-0.2l0.1-0.1c0.5-0.6,1-1.2,1.6-1.8c2.2-2.2,4.8-4,7.6-5.3
				c5.6-2.6,11.6-3.6,17.4-4c5.9-0.3,11.7-0.1,17.4-0.4c2.9-0.2,5.7-0.4,8.5-1c2.8-0.6,5.5-1.4,8-2.6c5-2.4,9.4-6.3,11.5-11.2
				c0.5-1.2,0.9-2.5,1.1-3.8c0.2-1.3,0.2-2.6,0.2-4c0-1.4-0.1-2.8,0.2-4.3c0.2-1.5,0.8-2.9,1.5-4.2c1.5-2.6,3.5-4.6,5.6-6.3
				c2.1-1.8,4.2-3.3,6.2-5c2-1.6,3.7-3.3,5-5.2c0.3-0.5,0.6-1,0.8-1.5c0.1-0.2,0.2-0.5,0.3-0.7c0.1-0.2,0.2-0.4,0.3-0.8
				c0.3-1.1,0.4-2.1,0.4-3.2c0-2.2-0.5-4.6-0.7-7.2c-0.1-1.3-0.2-2.6,0-4c0-0.4,0.1-0.8,0.1-1l0.1-0.4l0-0.1c0-0.1,0,0,0-0.2
				l0.1-0.3c0.2-0.7,0.4-1.4,0.6-2c1-2.6,2.5-4.7,3.8-6.6c0.7-0.9,1.3-1.8,1.9-2.7c0.3-0.4,0.6-0.9,0.8-1.3l0.4-0.7
				c0.1-0.1,0.2-0.3,0.2-0.3l0.2-0.3c3.6-6.8,4-15.1,8.1-22.5c0.5-0.9,1.1-1.8,1.7-2.7c0.3-0.4,0.7-0.9,1-1.3l0.4-0.5l0.1-0.1
				l0.2-0.2l0.3-0.3c1.6-1.6,3.1-2.7,4.6-3.6c1.5-0.9,2.8-1.7,4.1-2.4c1.2-0.6,2.4-1.3,3.6-1.9c2.2-1.1,3.9-2.1,5.2-3
				c1.3-0.9,1.9-1.6,2.3-2.1c0.1-0.1,0.1-0.2,0.2-0.3c0-0.1,0.1-0.2,0.1-0.2c0-0.1,0-0.1,0.1-0.2c0,0,0,0,0,0c0,0,0,0,0,0
				c0-0.1,0-0.1,0.2-0.2c0.1,0,0.2-0.1,0.3-0.1c0.1,0,0.2-0.1,0.3-0.1c0.4,0,0.7-0.1,1-0.1c0.2,0,0.3,0,0.4,0c0,0,0.2,0,0.3,0
				c0.1,0,0.2,0,0.3,0c0.4,0,0.7,0,1,0c0.5,0,0.8,0,0.8,0L503.6,202.4z"/>
		</g>
	</g>
	<g id="Smaller_lines">
		<g>
			<path d="M197.6,417.4c0,0-1.7-0.2-4.8-0.4c-1.5-0.1-3.3-0.2-5.4-0.2c-2.1,0-4.4,0.1-6.9,0.6c-2.5,0.4-5,1.2-7.4,2.7
				c-0.3,0.2-0.6,0.3-0.9,0.5c-0.3,0.2-0.6,0.4-0.8,0.6l-0.2,0.2l-0.1,0.1l0,0c-0.1,0,0.1,0,0,0l-0.1,0l-0.4,0.4
				c-0.3,0.3-0.6,0.5-0.8,0.8c-0.9,0.9-1.8,2.2-2.5,3.4c-1.5,2.6-2.2,5.6-2.5,8.8c-0.1,1.6-0.1,3.2,0.1,4.8c0.2,1.6,0.5,3.1,1,4.8
				c0.9,3.1,2.3,6.2,3.9,9c1.7,2.8,3.5,5.6,5.4,8.2c1.9,2.6,3.8,5.1,5.6,7.5c1.8,2.4,3.4,4.8,4.7,7.1c1.3,2.3,2.4,4.5,3.1,6.6
				c0.7,2,1.2,3.9,1.4,5.4c0.1,0.8,0.2,1.4,0.2,2c0.1,0.6,0,1.1,0,1.5c0,0.8,0,1.3,0,1.3s-0.1-0.4-0.2-1.2c-0.1-0.4-0.1-0.9-0.3-1.5
				c-0.1-0.6-0.3-1.2-0.5-1.9c-0.4-1.4-1.1-3.1-2-5c-0.9-1.8-2.2-3.8-3.6-5.9c-1.5-2.1-3.2-4.2-5.1-6.5c-1.9-2.3-4-4.6-6-7.2
				c-2-2.6-4.1-5.3-5.9-8.4c-1.8-3.1-3.4-6.3-4.4-9.9c-0.5-1.7-0.9-3.6-1-5.4c-0.2-1.8-0.2-3.7,0-5.5c0.1-1.8,0.6-3.6,1.1-5.3
				c0.6-1.7,1.3-3.4,2.2-4.9c1-1.5,2-2.9,3.3-4.1c0.3-0.3,0.6-0.5,0.9-0.8l0.5-0.4l0.1,0c0,0,0.1-0.1,0.1-0.1l0,0l0.1-0.1l0.3-0.2
				c0.3-0.2,0.7-0.5,1-0.7c0.3-0.2,0.7-0.4,1.1-0.6c2.9-1.5,5.9-2.1,8.5-2.3c2.7-0.2,5.1-0.1,7.3,0.2c2.1,0.2,4,0.6,5.4,0.9
				c1.5,0.3,2.7,0.6,3.4,0.8C197.1,417.3,197.6,417.4,197.6,417.4z"/>
		</g>
		<g>
			<path d="M183.9,440.6c0,0,0.2,0.4,0.5,1.2c0.2,0.4,0.4,0.8,0.6,1.4c0.3,0.5,0.6,1.1,1,1.7c0.8,1.3,1.9,2.7,3.4,4.2
				c1.5,1.5,3.3,2.9,5.5,4c2.2,1.2,4.8,1.9,7.6,2.3c2.8,0.4,6,0.4,9.3,0.6c1.6,0.1,3.3,0.2,5,0.3c1.7,0.1,3.3,0.1,5.2,0.4
				c0.9,0.1,1.9,0.3,3,0.7c0.3,0.1,0.5,0.2,0.8,0.3c0.1,0.1,0.3,0.1,0.4,0.2l0.2,0.1l0.2,0.2l0.5,0.4c0.2,0.2,0.5,0.4,0.7,0.7
				c1.6,1.7,2.3,4,2.4,6c0.1,2.1-0.4,4.2-1.3,6l-0.4,0.7l-0.4,0.5c-0.3,0.4-0.6,0.9-0.9,1.2c-0.6,0.8-1.3,1.5-1.9,2.1
				c-2.7,2.6-5.7,4.3-8.1,6.2c-2.4,2-4.3,4.2-5.1,6.6c-0.2,0.6-0.3,1.2-0.3,1.9c-0.1,0.5,0,1.2,0.1,1.8c0.2,1.2,0.6,2.4,1.2,3.5
				c1.1,2.1,2.7,3.8,4.4,5c1.6,1.2,3.2,2.2,4.6,2.9c1.3,0.7,2.4,1.2,3.2,1.6c0.7,0.4,1.1,0.6,1.1,0.6s-0.4-0.1-1.2-0.3
				c-0.8-0.2-1.9-0.6-3.4-1.1c-1.4-0.5-3.2-1.2-5.1-2.4c-1.9-1.1-3.9-2.7-5.5-5.1c-0.8-1.2-1.4-2.6-1.8-4.1
				c-0.2-0.8-0.3-1.5-0.3-2.5c0-0.8,0.1-1.7,0.3-2.5c0.4-1.7,1.2-3.3,2.2-4.7c1-1.4,2.2-2.7,3.5-3.8c2.6-2.3,5.4-4.1,7.7-6.3
				c0.6-0.5,1.1-1.1,1.6-1.7c0.3-0.3,0.4-0.6,0.6-0.9l0.3-0.6c0-0.1,0.1-0.3,0.2-0.4c0.6-1.2,0.9-2.7,0.9-4.1c0-1.4-0.5-2.7-1.3-3.5
				c-0.1-0.1-0.2-0.1-0.2-0.2l-0.5-0.4l-0.1,0l0,0c-0.1-0.1,0.1,0.1,0.1,0.1l-0.1-0.1c-0.1,0-0.1-0.1-0.2-0.1
				c-0.1-0.1-0.3-0.1-0.4-0.2c-0.6-0.2-1.3-0.4-2-0.5c-3.4-0.3-6.7-0.6-9.9-1c-3.2-0.3-6.4-0.6-9.5-1.2c-3.1-0.6-6-1.7-8.3-3.3
				c-1.2-0.7-2.2-1.6-3.1-2.4c-0.9-0.9-1.7-1.7-2.4-2.6c-1.4-1.7-2.3-3.4-2.9-4.8c-0.7-1.4-1-2.6-1.2-3.4
				C184,441,183.9,440.6,183.9,440.6z"/>
		</g>
		<g>
			<path d="M207.5,554.4c0,0,0.9-0.5,2.6-1.3c1.7-0.8,4.1-1.8,7.1-2.8c1.5-0.5,3.1-1,4.9-1.4c0.9-0.2,1.8-0.4,2.7-0.6
				c0.9-0.2,1.9-0.4,2.9-0.6c1.9-0.4,4-0.7,6-0.9c2.1-0.2,4.1-0.4,6.2-0.5c2.1-0.1,4.2-0.2,6.2-0.2c1,0,2,0,3.1,0c1,0,2,0,3,0.1
				c2,0.1,3.8,0.2,5.6,0.4c1.8,0.1,3.5,0.3,5,0.5c3.1,0.3,5.7,0.7,7.5,1c1.8,0.3,2.8,0.5,2.8,0.5s-1,0.1-2.9,0.3
				c-1.8,0.1-4.4,0.3-7.5,0.5c-3.1,0.2-6.7,0.3-10.6,0.4c-1.9,0.1-3.9,0.1-5.9,0.2c-2,0.1-4.1,0.2-6.1,0.3c-2,0.1-4.1,0.2-6.1,0.4
				c-2,0.2-4,0.3-5.9,0.5c-0.9,0.1-1.9,0.2-2.8,0.3c-0.9,0.1-1.8,0.2-2.7,0.3c-1.7,0.2-3.4,0.5-4.9,0.7c-3,0.5-5.6,1-7.4,1.3
				C208.5,554.2,207.5,554.4,207.5,554.4z"/>
		</g>
		<g>
			<path d="M539.9,610.2c0,0-0.8,0-2.2-0.4c-1.4-0.3-3.1-1.3-5.4-2.4c-4.6-2.2-11.2-5.5-19.2-8.8c-2-0.8-4.1-1.6-6.3-2.4
				c-2.2-0.8-4.4-1.5-6.7-2c-4.6-1.1-9.4-1.3-13.4,0.9c-2.1,1.1-4.3,2.8-6.9,4.5c-0.7,0.4-1.3,0.8-2.1,1.2c-0.4,0.2-0.7,0.4-1.1,0.5
				l-0.1,0.1l-0.2,0.1l-0.1,0l-0.3,0.1l-0.5,0.2c-0.3,0.1-0.8,0.3-1.2,0.4c-0.4,0.1-0.8,0.3-1.2,0.3c-0.8,0.2-1.6,0.3-2.4,0.4
				c-3.2,0.4-6.4,0.1-9.4-0.3c-3-0.5-5.9-1.2-8.8-1.8c-2.9-0.6-5.7-1.1-8.5-1.3c-2.8-0.1-5.5,0.1-8,1c-2.5,0.9-4.8,2.4-6.8,4.2
				c-2.1,1.8-4.1,3.8-6,5.7c-7.9,7.8-15.3,15-21.6,21.2c-3.2,3.1-6,6-8.2,8.8c-2.2,2.8-4,5.4-5.9,7.3c-1.8,1.9-3.7,2.9-5.1,3.2
				c-0.7,0.2-1.2,0.2-1.6,0.3c-0.4,0-0.5,0-0.5,0s0.2,0,0.5,0c0.4,0,0.9-0.1,1.5-0.3c1.3-0.4,3.1-1.4,4.8-3.3
				c1.8-1.9,3.4-4.5,5.5-7.5c2.1-2.9,4.9-6,7.9-9.2c6.1-6.5,13.1-14,20.7-22.1c1.9-2,3.8-4.1,5.9-6.1c2.2-2,4.6-3.9,7.6-5.1
				c3-1.2,6.2-1.6,9.3-1.6c3.1,0,6.1,0.5,9.1,1c5.9,1,11.6,2.2,16.7,1.2c0.6-0.1,1.2-0.2,1.8-0.4c0.3-0.1,0.6-0.2,0.8-0.3
				c0.3-0.1,0.5-0.2,0.9-0.3c1.2-0.5,2.2-1.1,3.3-1.9c2.1-1.5,4.3-3.5,7-5.1c0.4-0.2,0.8-0.5,1.1-0.6l0.5-0.2l0.2-0.1l0.1-0.1
				l0.3-0.1c0.7-0.3,1.5-0.6,2.3-0.8c1.5-0.4,3.1-0.8,4.6-0.9c3-0.2,5.9,0,8.6,0.5c2.7,0.5,5.2,1.2,7.5,1.9c2.4,0.7,4.6,1.5,6.7,2.3
				c8.5,3.2,15.3,6.3,20,8.4c2.4,1.1,4.2,1.9,5.4,2.7c1.2,0.8,1.7,1.4,1.7,1.4L539.9,610.2z"/>
		</g>
		<g>
			<path d="M550.1,502.9c0,0,0.1,0,0.2,0.1c0.1,0,0.3,0.1,0.5,0.2c0.4,0.2,0.8,0.4,1,0.8c0.2,0.7,0.4,1.9,0.7,3.2
				c0.3,1.3,0.7,3,1.1,4.8c0.2,0.9,0.5,1.9,0.7,3c0.3,1,0.6,2.1,0.9,3.3c0.3,1.1,0.7,2.3,1.1,3.5c0.4,1.2,0.8,2.5,1.3,3.8
				c0.9,2.6,1.8,5.3,3,8.1c1.2,2.8,2.7,5.5,4.6,8.1c1.9,2.5,4.2,4.9,6.6,6.9c2.5,2.2,5.1,3.9,7.6,5.8c2.5,1.8,5.1,3.5,7.7,5
				c2.6,1.4,5.1,2.8,7.5,4.1c2.4,1.3,4.7,2.4,6.9,3.3c1.1,0.5,2.1,0.9,3.2,1.3c1,0.4,2,0.8,2.9,1.1c0.9,0.3,1.8,0.6,2.6,1
				c0.8,0.3,1.5,0.5,2.2,0.8c1.3,0.5,2.4,0.8,3.1,1.1c0.7,0.3,1.1,0.4,1.1,0.4l-0.1,0.5c0,0-0.4,0-1.2,0c-0.8,0-1.9,0.1-3.4,0
				c-1.5-0.1-3.2-0.2-5.2-0.5c-1-0.2-2.1-0.4-3.2-0.6c-1.1-0.3-2.3-0.6-3.5-0.9c-1.2-0.4-2.5-0.8-3.7-1.2c-1.3-0.5-2.6-1-3.9-1.6
				c-2.7-1.1-5.3-2.7-8-4.4c-2.6-1.8-5.2-3.8-7.7-5.9c-2.5-2.2-4.7-4.8-6.7-7.3c-2.1-2.7-3.9-5.4-5.9-8c-1.9-2.6-3.7-5.3-5.5-7.8
				c-1.8-2.6-3.5-5.1-4.7-7.7c-1.3-2.6-2.2-5.2-3-7.5c-0.4-1.2-0.7-2.4-1-3.5c-0.3-1.1-0.5-2.2-0.7-3.2c-0.2-1-0.3-2-0.4-2.8
				c-0.1-0.9-0.2-1.7-0.2-2.5c-0.1-0.7-0.1-1.4-0.1-2c0-0.6-0.1-1,0-1.4c0.1-0.4,0.5-0.7,0.8-1c0.2-0.1,0.3-0.2,0.4-0.3
				c0.1-0.1,0.2-0.1,0.2-0.1L550.1,502.9z"/>
		</g>
		<g>
			<path d="M578.8,557.9c0,0,0.1,0.3,0.3,0.9c0.1,0.2,0.1,0.4,0.2,0.7c0,0.1,0,0.2,0,0.2c0,0.1,0,0.1,0,0.1
				c-0.2,0.1-0.5,0.3-0.9,0.6c-0.4,0.2-0.9,0.6-1.4,0.9c-0.6,0.3-1.2,0.7-1.9,1.1c-0.7,0.4-1.5,0.8-2.3,1.1
				c-0.8,0.4-1.7,0.7-2.6,1.1c-1.9,0.7-3.9,1.4-5.9,2c-1,0.3-2,0.6-3,0.9c-1,0.3-2,0.5-3,0.8c-1.9,0.5-3.7,0.8-5.3,1.1
				c-3.1,0.5-5.3,0.6-5.3,0.6s0.5-0.3,1.3-0.7c0.8-0.4,2-1,3.4-1.6c1.4-0.7,3.1-1.4,4.8-2.2c1.8-0.8,3.6-1.7,5.5-2.5
				c1.9-0.9,3.7-1.8,5.5-2.6c1.7-0.8,3.4-1.6,4.8-2.2c0.7-0.3,1.4-0.5,2-0.8c0.6-0.2,1.1-0.4,1.5-0.6c0.4-0.2,0.8-0.3,1-0.4
				c0,0,0.1,0,0.1,0c0.1,0.1,0.1,0.1,0.2,0.2c0.2,0.2,0.3,0.4,0.4,0.5C578.6,557.7,578.8,557.9,578.8,557.9z"/>
		</g>
		<g>
			<path d="M445,541.6c0,0,0.2-0.1,0.6,0.1c0.4,0.1,0.9,0.5,1.2,1.2c0.3,0.7,0.5,1.5,0.5,2.5c0,0.4,0,1,0.1,1.4
				c0.1,0.5,0.1,1,0.2,1.5c0.4,2.1,1.1,4.5,2.3,6.8c0.6,1.2,1.3,2.4,2,3.5c0.8,1.1,1.6,2.3,2.5,3.4c1.8,2.2,3.8,4.3,5.8,6.2
				c1,1,2,1.9,2.9,2.8c0.9,0.9,1.8,1.8,2.6,2.6c0.8,0.8,1.5,1.5,2.2,2c0.7,0.5,1.3,1,1.9,1.2c0.6,0.3,1.1,0.4,1.4,0.5
				c0.3,0.1,0.5,0.1,0.5,0.1s-0.2,0-0.5,0.1c-0.4,0-0.9,0.1-1.6,0c-0.7-0.1-1.5-0.3-2.4-0.7c-0.9-0.4-1.9-0.9-2.8-1.5
				c-1.9-1.2-4.1-2.7-6.4-4.5c-1.1-0.9-2.3-1.9-3.4-2.9c-1.1-1.1-2.2-2.2-3.2-3.4c-1-1.2-1.9-2.5-2.7-3.9c-0.8-1.4-1.5-2.8-2-4.2
				c-0.5-1.4-0.9-2.8-1.1-4.2c-0.2-1.4-0.3-2.7-0.2-3.9c0-0.6,0.1-1.2,0.2-1.7c0.1-0.6,0.2-1,0.3-1.5c0.2-0.8,0.3-1.6,0.3-2.2
				c0-0.6-0.2-1-0.5-1.2C445.2,541.7,445,541.6,445,541.6z"/>
		</g>
		<g>
			<path d="M437.3,477c0,0-0.1,0.8-0.2,2.3c-0.1,0.7-0.1,1.6-0.2,2.6c-0.1,1-0.1,2.1-0.1,3.3c0,0.6,0,1.2,0,1.9c0,0.7,0,1.3,0,2
				c0,0.7,0,1.4,0.1,2.1c0.1,0.7,0.1,1.5,0.2,2.2c0.1,0.7,0.1,1.5,0.3,2.3c0.1,0.8,0.2,1.5,0.4,2.3c0.3,1.5,0.6,3.1,1,4.6
				c0.4,1.5,0.9,3.1,1.3,4.5c0.3,0.7,0.5,1.5,0.8,2.2c0.3,0.7,0.6,1.4,0.9,2.1c0.6,1.5,1.1,2.9,1.6,4.2c0.5,1.3,0.9,2.6,1.4,3.7
				c0.5,1.1,0.9,2.1,1.4,3c0.5,0.8,0.9,1.6,1.4,2.1c0.2,0.3,0.4,0.5,0.7,0.7c0.2,0.2,0.4,0.3,0.6,0.4c0.3,0.2,0.5,0.3,0.5,0.3
				s-0.2,0-0.6-0.1c-0.2,0-0.4-0.1-0.7-0.2c-0.3-0.1-0.6-0.2-0.9-0.5c-1.3-0.8-2.9-2.4-4.3-4.6c-0.7-1.1-1.4-2.3-2.1-3.5
				c-0.7-1.3-1.3-2.6-2-3.9c-0.4-0.7-0.7-1.4-1.1-2.2c-0.3-0.8-0.7-1.5-1-2.3c-0.6-1.6-1.1-3.2-1.6-4.9c-0.4-1.7-0.8-3.4-0.9-5
				c-0.1-0.4-0.1-0.8-0.2-1.3c0-0.4-0.1-0.8-0.1-1.2c-0.1-0.8-0.1-1.6-0.1-2.4c0-0.8,0-1.6,0.1-2.4c0-0.8,0.1-1.5,0.2-2.3
				c0.1-0.7,0.2-1.4,0.3-2.1c0.1-0.7,0.2-1.3,0.4-2c0.2-0.6,0.3-1.2,0.4-1.8c0.2-0.6,0.3-1.1,0.5-1.6c0.3-1,0.7-1.8,0.9-2.5
				C436.9,477.8,437.3,477,437.3,477z"/>
		</g>
		<g>
			<path d="M467.5,502.4c0,0,0.2-0.1,0.6-0.2c0.4-0.2,0.9-0.4,1.5-0.8c1.2-0.9,2.8-2.5,3.8-4.8c1.1-2.4,1.6-5.4,2.4-8.7
				c0.4-1.7,0.9-3.3,1.4-5.1c0.6-1.7,1.1-3.4,1.8-5.1c0.6-1.7,1.2-3.4,1.8-5.1c0.6-1.7,1.2-3.3,1.8-4.9c0.7-1.5,1.3-3,2-4.4
				c0.7-1.4,1.3-2.7,1.9-3.9c0.6-1.2,1.1-2.3,1.6-3.3c0.5-1,0.9-1.8,1.3-2.5c0.7-1.4,1.2-2.2,1.2-2.2l0.4,0.1c0,0,0,0.2,0,0.7
				c0,0.4,0,1.1-0.1,1.9c-0.1,0.8-0.2,1.8-0.4,2.9c-0.2,1.1-0.5,2.3-0.8,3.7c-0.2,0.7-0.4,1.3-0.6,2.1c-0.2,0.7-0.5,1.4-0.7,2.2
				c-0.5,1.5-1.1,3-1.7,4.6c-0.7,1.6-1.4,3.1-2.2,4.7c-0.8,1.6-1.5,3.2-2.3,4.8c-0.7,1.6-1.4,3.3-2.1,4.9c-0.6,1.6-1.3,3.3-1.8,4.8
				c-0.5,1.6-1,3.2-1.5,4.6c-0.5,1.5-1.2,2.9-1.9,4.1c-1.4,2.4-3.3,4-4.7,4.8c-0.7,0.4-1.3,0.6-1.8,0.7c-0.4,0.1-0.6,0.1-0.6,0.1
				L467.5,502.4z"/>
		</g>
		<g>
			<path d="M555.1,448.8c0,0,0.3,0.1,0.8,0.3c0.5,0.2,1.2,0.5,2.2,0.8c0.9,0.3,2.1,0.7,3.4,1c0.7,0.2,1.4,0.4,2.1,0.6
				c0.8,0.2,1.5,0.4,2.4,0.5c0.8,0.2,1.7,0.3,2.6,0.5c0.9,0.1,1.8,0.3,2.8,0.4c1.9,0.2,4,0.4,6.1,0.4c2.1,0,4.3,0,6.5-0.2
				c2.2-0.1,4.4-0.5,6.6-0.9c2.2-0.5,4.4-0.9,6.4-1.6c2-0.7,3.9-1.5,5.6-2.5c1.7-0.9,3-2.1,4-3.4l0.4-0.5l0.1-0.1l0-0.1
				c-0.1,0.1,0,0,0,0.1l0,0l0,0l0.2-0.3c0.3-0.4,0.4-0.8,0.6-1.1c0.3-0.7,0.6-1.5,0.8-2.3c0.5-1.5,0.8-3.1,1.1-4.4
				c0.3-1.4,0.7-2.6,1.1-3.6c0.4-1,0.8-1.7,1.1-2.2c0.3-0.5,0.5-0.7,0.5-0.7l0.4,0.2c0,0-0.1,0.3-0.2,0.8c-0.1,0.5-0.2,1.3-0.3,2.2
				c-0.1,1-0.1,2.2-0.2,3.5c-0.1,1.4-0.1,3-0.3,4.8c-0.1,0.9-0.3,1.9-0.6,2.9c-0.2,0.5-0.4,1.1-0.6,1.5l-0.1,0.3l0,0l0,0l0,0.1
				l-0.1,0.1l-0.1,0.2c-0.1,0.2-0.3,0.5-0.4,0.7c-1.2,2-3.1,3.6-5.1,4.8c-2.1,1.2-4.3,1.9-6.6,2.5c-2.3,0.5-4.6,0.9-6.9,1.2
				c-2.3,0.2-4.7,0.4-7,0.4c-2.3,0-4.6-0.1-6.7-0.3c-2.2-0.2-4.3-0.5-6.2-0.9c-1-0.2-1.9-0.4-2.8-0.6c-0.9-0.2-1.8-0.5-2.6-0.7
				c-0.8-0.2-1.6-0.5-2.4-0.7c-0.8-0.2-1.5-0.5-2.1-0.7c-1.3-0.5-2.4-1-3.4-1.4c-0.9-0.4-1.6-0.8-2.1-1c-0.5-0.2-0.7-0.4-0.7-0.4
				L555.1,448.8z"/>
		</g>
		<g>
			<path d="M615.1,412.3c0,0,4.4,0.2,11.1,0.5c3.3,0.2,7.2,0.4,11.3,0.6c4.1,0.2,8.5,0.4,12.7-0.1c2.1-0.2,4.2-0.7,6.3-1.2
				c2.1-0.6,4.2-1.1,6.3-1.5c2.1-0.3,4.3-0.5,6.4-0.3c0.5,0,1,0.2,1.5,0.2c0.5,0.1,1,0.2,1.5,0.4c0.9,0.3,1.8,0.6,2.8,1.2
				c0.5,0.3,0.9,0.6,1.3,1.1c0.2,0.2,0.4,0.5,0.5,0.7c0.2,0.3,0.2,0.5,0.3,0.8c0.3,0.9,0.4,1.7,0.5,2.2l0,0.2l0,0
				c-0.1-0.2,0,0,0-0.1l0,0l0,0.1l0,0.1c0,0.1,0,0.1,0.1,0.2c0.1,0.2,0.3,0.5,0.4,0.7c0.3,0.4,0.6,0.8,0.9,1.2
				c0.6,0.7,1.1,1.2,1.5,1.5c0.2,0.1,0.3,0.2,0.4,0.3c0.1,0,0.1,0,0.1,0l0.1,0.4c0,0-0.1,0-0.3,0c-0.2,0-0.4,0-0.7-0.1
				c-0.6-0.1-1.3-0.5-2.2-1c-0.4-0.3-0.9-0.6-1.4-1c-0.2-0.2-0.5-0.4-0.7-0.7c-0.1-0.1-0.3-0.3-0.4-0.6l-0.1-0.1l0-0.1l0,0
				c0,0,0,0.1,0-0.1l0,0l-0.1-0.3c-0.3-0.7-0.5-1.4-0.8-1.9c-0.1-0.1-0.2-0.2-0.2-0.3c-0.1-0.1-0.2-0.2-0.2-0.2
				c-0.2-0.1-0.4-0.2-0.6-0.4c-0.5-0.2-1.3-0.4-2.1-0.5c-0.4-0.1-0.8-0.1-1.2-0.2c-0.4,0-0.8-0.1-1.3-0.1c-1.7,0-3.5,0.2-5.5,0.5
				c-2,0.3-4.1,0.7-6.2,1c-2.2,0.3-4.5,0.7-6.8,0.8c-4.6,0.2-9.1-0.3-13.2-0.8c-4.1-0.5-8-1.1-11.2-1.5c-6.6-0.9-11-1.6-11-1.6
				L615.1,412.3z"/>
		</g>
		<g>
			<path d="M643,473.5c0,0,0.4,0,1.1,0.1c0.7,0.1,1.7,0.3,2.9,0.7c1.2,0.3,2.5,0.8,3.8,1.4c1.4,0.6,2.8,1.4,4.1,2.2
				c1.3,0.8,2.6,1.8,3.8,2.7c1.1,0.9,2.2,1.9,3,2.8c0.8,0.9,1.4,1.7,1.8,2.2c0.4,0.6,0.6,0.9,0.6,0.9s-0.4-0.2-1-0.4
				c-0.6-0.3-1.5-0.7-2.6-1.2c-2.1-0.9-4.8-2.2-7.6-3.5c-2.7-1.2-5.4-2.5-7.4-3.4c-1-0.5-1.8-0.8-2.4-1.1c-0.6-0.3-1-0.5-1-0.5
				L643,473.5z"/>
		</g>
		<g>
			<path d="M603.7,508.3c0,0,0.4,0.3,1.1,0.8c0.7,0.5,1.7,1.3,3,2.3c2.5,2,6.2,5,10.4,8.6c2.1,1.8,4.4,3.7,6.9,5.8
				c2.4,2.1,4.9,4.3,7.7,5.5c2.8,1.2,6.2,1.2,9.7,0.9c1.8-0.1,3.6-0.3,5.5-0.5c1.8-0.2,3.7-0.4,5.5-0.6c7.4-0.7,14.8-1.5,21.7-2.2
				c3.5-0.3,6.8-0.7,10-1c3.2-0.3,6.2-0.6,8.9-0.9c2.7-0.4,5.2-0.8,7.4-1.2c2.2-0.5,4.1-1,5.6-1.5c1.5-0.5,2.7-1,3.5-1.3
				c0.8-0.3,1.2-0.5,1.2-0.5s-0.4,0.3-1.1,0.7c-0.7,0.5-1.8,1.1-3.3,1.9c-2.9,1.5-7.4,3.1-12.9,4.3c-2.8,0.6-5.8,1.1-8.9,1.6
				c-3.2,0.5-6.5,1.1-10,1.5c-3.5,0.5-7,1-10.7,1.4c-3.6,0.4-7.3,0.8-11,1.2c-1.9,0.2-3.7,0.3-5.6,0.5c-1.8,0.2-3.7,0.3-5.6,0.5
				c-3.7,0.3-7.8,0.1-11.4-1.6c-3.6-1.7-6-4.3-8.3-6.5c-2.3-2.2-4.4-4.4-6.4-6.4c-3.9-4-7.2-7.3-9.4-9.7c-1.1-1.2-2-2.1-2.6-2.8
				C604,508.7,603.7,508.3,603.7,508.3z"/>
		</g>
		<g>
			<path d="M701.4,500.5c0,0,0.2-0.2,0.6-0.5c0.4-0.3,0.9-0.8,1.5-1.4c0.3-0.3,0.6-0.7,1-1.1c0.3-0.5,0.7-0.9,1-1.4
				c0.7-1,1.3-2.3,1.8-3.7c0.6-1.4,1-3,1.4-4.7c0.4-1.7,0.7-3.5,0.9-5.4c0.1-1,0.2-1.9,0.3-2.9c0.1-1,0.2-2,0.2-2.9
				c0.1-1.9,0-3.9-0.4-5.6c-0.1-0.4-0.2-0.9-0.4-1.3c-0.1-0.2-0.2-0.4-0.2-0.6l-0.3-0.5l-0.4-0.7c-0.1-0.2-0.2-0.3-0.3-0.5
				c-0.2-0.3-0.5-0.7-0.8-1c-1.2-1.3-2.7-2.5-4.3-3.4c-1.6-1-3.2-1.8-4.8-2.6c-1.6-0.8-3.1-1.6-4.5-2.3c-2.8-1.5-5.1-2.8-6.7-3.7
				c-1.6-0.9-2.5-1.5-2.5-1.5s1,0.3,2.8,0.8c1.8,0.5,4.3,1.3,7.3,2.3c1.5,0.5,3.1,1.1,4.8,1.7c1.7,0.6,3.5,1.3,5.4,2.3
				c1.8,1,3.7,2.2,5.4,3.9c0.4,0.4,0.8,0.9,1.2,1.4c0.2,0.3,0.4,0.5,0.5,0.8l0.4,0.7l0.1,0.2l0.1,0.1l0.1,0.2l0.2,0.4
				c0.1,0.3,0.2,0.6,0.4,0.8c0.2,0.6,0.4,1.1,0.5,1.7c0.6,2.3,0.6,4.7,0.4,6.8c-0.1,1.1-0.2,2.1-0.4,3.2c-0.2,1-0.3,2-0.6,3
				c-0.4,2-0.9,3.9-1.6,5.7c-0.6,1.8-1.4,3.4-2.2,4.8c-0.8,1.4-1.7,2.7-2.7,3.6c-0.4,0.5-0.9,0.9-1.4,1.3c-0.5,0.4-0.9,0.7-1.3,0.9
				c-0.8,0.5-1.5,0.8-1.9,1C701.7,500.4,701.4,500.5,701.4,500.5z"/>
		</g>
		<g>
			<path d="M711.8,469.9c0,0,0.1-0.4,0.2-0.7c0.1-0.2,0.2-0.3,0.3-0.4c0.1-0.1,0.3-0.1,0.4-0.2c0.7-0.2,1.6-0.5,2.7-0.8
				c0.6-0.2,1.2-0.4,1.8-0.6c0.6-0.2,1.3-0.4,2-0.6c1.4-0.4,2.9-0.8,4.4-1.1c1.5-0.4,3-0.8,4.4-1.1c0.7-0.2,1.4-0.3,2.1-0.5
				c0.7-0.2,1.3-0.3,1.9-0.4c1.2-0.3,2.2-0.5,2.9-0.6c0.7-0.1,1.1-0.2,1.1-0.2s-0.3,0.3-0.8,0.8c-0.5,0.5-1.3,1.1-2.3,1.8
				c-1,0.7-2.2,1.4-3.6,2.2c-0.7,0.3-1.4,0.7-2.1,1c-0.7,0.3-1.5,0.6-2.3,0.9c-0.8,0.2-1.5,0.5-2.3,0.7c-0.8,0.2-1.5,0.4-2.3,0.5
				c-1.5,0.3-2.9,0.4-4.2,0.4c-1.2,0-2.3,0-3,0c-0.2,0-0.3,0-0.5,0c-0.1,0-0.3-0.2-0.4-0.3C712,470.2,711.8,469.9,711.8,469.9z"/>
		</g>
		<g>
			<path d="M736,390.2c0,0,0.3,0,0.7,0.1c0.2,0,0.5,0.1,0.9,0.2c0.4,0.1,0.8,0.2,1.3,0.4c1.9,0.7,4.6,2.2,7,5.1
				c1.2,1.4,2.4,3.2,3.4,5.2c1,2,1.9,4.3,2.6,6.8c0.7,2.5,1.3,5.2,1.8,8c0.4,2.8,0.9,5.8,1.2,8.9c0.3,3.1,0.5,6.4,0.6,9.7
				c0.1,3.4,0.1,6.8,0,10.4c-0.2,7.1-1.1,14.6-2,22.2c-0.4,3.8-0.9,7.7-1.4,11.7c-0.3,2-0.6,4-1,6c-0.4,2-1,4-1.6,5.9
				c-0.7,1.9-1.5,3.8-2.4,5.7c-0.8,1.9-1.7,3.7-2.5,5.6c-1.5,3.7-2.8,7.6-2.4,11.4c0.1,0.9,0.2,1.8,0.5,2.7l0.1,0.3l0,0.2
				c0,0,0,0.1,0,0l0,0.1l0.3,0.7c0.2,0.5,0.4,0.8,0.6,1.2c0.9,1.5,2.2,2.9,3.6,4c2.9,2.2,6.6,3.4,10.2,3.7l1.3,0.1l1.5,0
				c0.9,0,1.8-0.1,2.7-0.3c1.8-0.3,3.7-0.7,5.5-1.2c3.6-1.1,7.2-2.5,10.7-4c3.5-1.5,7.1-2.9,10.5-4.3c1.7-0.7,3.4-1.4,5.1-2.1
				c1.7-0.7,3.4-1.3,5-1.9c6.6-2.6,12.8-4.9,18.6-7.1c5.8-2.1,11.1-4.1,15.8-5.7c2.3-0.8,4.5-1.6,6.2-2.6c1.7-1,3.1-2.2,4-3.6
				c0.4-0.6,0.6-1.4,0.8-2.1c0.2-0.7,0.2-1.4,0.2-2c-0.1-1.3-0.4-2.3-0.9-3.1c-1-1.5-2.1-1.7-2-1.8l0.2-0.5
				c-0.1,0.1,1.2,0.1,2.6,1.7c0.7,0.8,1.3,2,1.5,3.5c0.2,1.5,0.2,3.3-0.7,5.2c-0.8,1.8-2.4,3.5-4.2,4.8c-1.9,1.4-4.1,2.4-6.4,3.5
				c-4.6,2.1-9.7,4.3-15.4,6.8c-5.7,2.4-11.8,5.1-18.3,7.8c-1.6,0.7-3.3,1.4-5,2.1c-1.7,0.7-3.4,1.4-5.1,2c-3.4,1.4-7,2.8-10.6,4.2
				c-3.6,1.4-7.4,2.8-11.4,3.9c-2,0.5-4.1,0.9-6.2,1.1c-1.1,0.1-2.1,0.2-3.3,0.2l-1.5,0c-0.7-0.1-1.1-0.1-1.7-0.1
				c-4.4-0.5-8.7-2.3-12.1-5.2c-1.7-1.5-3.2-3.3-4.2-5.4c-0.2-0.5-0.5-1.1-0.6-1.6l-0.2-0.7l0-0.1c-0.1-0.2,0-0.1,0-0.2l0-0.2
				l-0.1-0.4c-0.3-1.1-0.4-2.2-0.4-3.4c0-2.2,0.4-4.4,1.1-6.5c0.7-2,1.5-4,2.4-5.8c0.9-1.9,1.8-3.7,2.7-5.5c0.9-1.8,1.7-3.6,2.4-5.5
				c0.7-1.8,1.1-3.8,1.5-5.7c0.4-1.9,0.6-3.9,0.8-5.9c0.3-3.9,0.4-7.8,0.5-11.7c0.2-7.7,0.2-15.1,0.3-22.1c0.1-7,0-13.6-0.4-19.7
				c-0.1-1.5-0.2-3-0.3-4.5c-0.1-1.4-0.3-2.8-0.4-4.2c-0.2-1.4-0.3-2.7-0.5-4c-0.2-1.3-0.4-2.5-0.7-3.7c-0.5-2.4-1.2-4.5-1.9-6.5
				c-0.7-1.9-1.6-3.6-2.6-5.1c-1.8-2.9-4.1-4.6-5.7-5.5c-0.4-0.2-0.8-0.4-1.1-0.6c-0.3-0.1-0.6-0.2-0.9-0.3
				c-0.5-0.2-0.7-0.3-0.7-0.3L736,390.2z"/>
		</g>
		<g>
			<path d="M725.1,445.4c0,0,0.6-0.1,1.7-0.4c1.1-0.3,2.8-0.7,4.9-1.2c4.2-1.1,10.1-3,16.8-6.1c3.4-1.5,6.9-3.4,10.5-5.5
				c3.6-2.2,7.5-4.4,9.9-7.8c1.3-1.7,2.3-3.7,3.4-5.9l0.9-1.7l0.9-1.6c0.3-0.5,0.7-1.1,1-1.6c0.4-0.5,0.7-1.1,1.1-1.6
				c1.5-2.1,3.1-4,4.9-5.9c1.8-1.9,3.7-3.6,5.7-5.2c4-3.2,8.6-5.7,13.2-7.6c1.2-0.5,2.3-0.9,3.6-1.3c1.2-0.4,2.5-0.7,3.8-0.9
				c2.6-0.4,5.2-0.4,7.8,0.4c1.3,0.4,2.5,1.1,3.6,2c0.5,0.5,1,1,1.4,1.5l0.2,0.3l0.3,0.5c0.2,0.3,0.3,0.6,0.5,0.9
				c1.1,2.4,1.3,4.8,1.4,7c0.2,4.3,0.4,8.3,0.5,12c0.3,7.4,0.4,13.6,0.5,18c0.1,2.2,0,3.9,0.1,5c0,1.2,0,1.8,0,1.8s-0.1-0.6-0.2-1.8
				c-0.1-1.2-0.4-2.8-0.6-5c-0.5-4.3-1.3-10.5-2-17.9c-0.4-3.7-0.8-7.7-1.2-11.9c-0.2-2.1-0.5-4.1-1.4-5.8c-0.1-0.2-0.2-0.4-0.3-0.6
				l-0.2-0.2l-0.3-0.3c-0.3-0.3-0.6-0.7-0.9-0.9c-0.7-0.6-1.5-1-2.4-1.3c-1.9-0.5-4-0.5-6.2-0.1c-1.1,0.2-2.2,0.5-3.2,0.8
				c-1.1,0.4-2.2,0.8-3.3,1.2c-4.3,1.8-8.5,4.2-12.2,7.2c-1.9,1.5-3.7,3-5.3,4.8c-1.7,1.7-3.2,3.5-4.6,5.4c-0.7,1-1.3,1.9-2,2.9
				l-1,1.5l-0.9,1.5c-1.2,2.1-2.3,4.2-3.9,6.2c-1.6,2-3.5,3.7-5.5,4.9c-2,1.3-3.9,2.3-5.8,3.4c-3.8,2-7.6,3.7-11.1,5
				c-3.5,1.3-6.8,2.3-9.8,3.1c-2.9,0.8-5.6,1.3-7.7,1.6c-2.1,0.4-3.9,0.6-5,0.7C725.7,445.4,725.1,445.4,725.1,445.4z"/>
		</g>
		<g>
			<path d="M782.3,480c0,0,3.5-1.1,9.6-3c1.5-0.5,3.2-1,5.1-1.6c1.8-0.6,3.8-1.2,5.9-1.9c4.2-1.4,9-3,14.1-4.8
				c5.2-1.8,10.7-3.9,16.5-6.1c1.4-0.5,2.9-1.1,4.3-1.8c1.4-0.6,2.9-1.3,4.2-2.1c2.8-1.5,5.4-3.4,7.7-5.8c0.3-0.3,0.6-0.6,0.8-0.9
				l0.7-0.9c0.5-0.7,0.9-1.5,1.4-2.2c0.4-0.7,0.8-1.4,1.1-2.2c0.3-0.8,0.6-1.6,0.9-2.4c1-3.3,1.3-6.8,1.1-10.4
				c-0.4-7.1-2.7-14.1-5.4-20.8c-2.7-6.8-5.5-13.4-10.4-18.2c-1.1-1.1-2.5-2.2-3.8-3.1c-1.4-0.9-2.8-1.8-4.3-2.6
				c-3-1.5-6.1-2.8-9.3-3.9c-6.4-2.1-12.8-4.2-18.7-6.3c-0.8-0.3-1.5-0.6-2.3-1l-1.1-0.4l-1.1-0.5c-0.7-0.4-1.5-0.7-2.2-1.1
				c-0.7-0.4-1.4-0.8-2-1.1c-1.4-0.7-2.6-1.6-3.9-2.4c-1.2-0.8-2.4-1.6-3.6-2.5c-4.5-3.4-8.3-7-11.4-10.3c-3.1-3.3-5.6-6.3-7.7-8.9
				c-2-2.6-3.5-4.6-4.5-6c-0.4-0.8-0.7-1.4-0.8-1.9c-0.1-0.5-0.1-0.8-0.1-0.8l0.4-0.3c0,0,0.3,0.1,0.7,0.3c0.4,0.2,1,0.6,1.6,1.2
				c1.2,1.3,2.8,3.2,4.9,5.5c2.2,2.3,4.8,5.1,8.1,8.1c3.2,3,7,6.2,11.4,9.2c1.1,0.8,2.2,1.5,3.4,2.2c1.2,0.7,2.4,1.4,3.7,2.1
				c0.6,0.3,1.3,0.7,1.9,1c0.6,0.3,1.3,0.6,1.9,0.9l1,0.5l1.1,0.4c0.7,0.3,1.4,0.5,2,0.8c3,1,6.1,2,9.2,3.1c3.2,1.1,6.3,2.1,9.6,3.3
				c6.5,2.4,13.5,5.5,19,11.3l0.9,1c0.4,0.4,0.6,0.8,1,1.2c0.6,0.8,1.1,1.6,1.6,2.4c1,1.6,1.9,3.4,2.6,5.1c1.5,3.5,2.6,7.1,3.6,10.6
				c2.1,7.1,3.9,14.3,4.4,21.7c0.2,3.7,0,7.3-0.9,10.9c-0.2,0.9-0.5,1.8-0.8,2.6c-0.3,0.9-0.7,1.7-1,2.6c-0.4,0.8-0.8,1.5-1.2,2.3
				l-0.8,1.2c-0.2,0.4-0.5,0.7-0.8,1.1c-2.2,2.9-4.9,5.3-7.8,7.2c-2.9,1.9-5.9,3.5-8.8,4.7c-3,1.3-5.8,2.4-8.7,3.3
				c-2.8,1-5.6,1.9-8.2,2.7c-5.3,1.6-10.2,3-14.6,4c-2.2,0.5-4.2,1-6.1,1.4c-1.9,0.4-3.7,0.7-5.2,1c-3.2,0.6-5.7,0.9-7.4,1.1
				c-1.7,0.2-2.6,0.3-2.6,0.3L782.3,480z"/>
		</g>
		<g>
			<path d="M726.5,368.3c0,0,1-0.9,2.8-2.5c1.8-1.6,4.3-3.8,7.5-6.4c1.6-1.3,3.3-2.7,5.2-4.1c1.9-1.4,3.8-2.9,5.9-4.4
				c2.1-1.5,4.2-3.1,6.4-4.6c2.2-1.5,4.5-3,6.7-4.6c2.3-1.5,4.6-2.9,6.8-4.4c2.3-1.4,4.5-2.8,6.7-4.1c2.2-1.3,4.2-2.5,5.8-3.9
				c0.8-0.7,1.5-1.5,2.1-2.2c0.2-0.2,0.3-0.4,0.5-0.7c0.1-0.2,0.2-0.4,0.4-0.6c0.2-0.4,0.5-0.8,0.7-1.3c0.8-1.7,1.4-3.5,2-5.1
				c0.6-1.6,1.1-2.9,1.7-4c0.5-1.1,1.1-1.9,1.4-2.4c0.4-0.5,0.6-0.8,0.6-0.8s-0.1,0.3-0.4,0.9c-0.2,0.6-0.6,1.5-0.9,2.6
				c-0.3,1.1-0.6,2.5-0.9,4.1c-0.3,1.6-0.6,3.5-1.3,5.5c-0.2,0.5-0.4,1-0.6,1.6c-0.1,0.3-0.3,0.5-0.4,0.8c-0.1,0.2-0.3,0.5-0.4,0.7
				c-0.6,1.1-1.4,2-2.3,3c-1.7,1.8-3.9,3.3-6,4.8c-2.1,1.4-4.3,2.9-6.5,4.3c-2.2,1.5-4.5,3-6.7,4.5c-2.3,1.5-4.5,3-6.8,4.4
				c-2.2,1.5-4.4,2.9-6.6,4.3c-2.1,1.4-4.2,2.7-6.2,4c-2,1.3-3.8,2.4-5.5,3.5c-3.4,2.2-6.3,4-8.4,5.2
				C727.7,367.6,726.5,368.3,726.5,368.3z"/>
		</g>
		<g>
			<path d="M811.2,327.9c0,0,1.8,3,4.5,7.6c1.3,2.3,2.9,4.9,4.5,7.8c0.8,1.5,1.6,3,2.3,4.7c0.7,1.7,1.4,3.4,1.8,5.3
				c0,0.2,0.1,0.5,0.1,0.7l0.1,0.4l0,0.2l0,0.1l0,0l0,0.1l0.1,1.3c0.1,0.9,0.1,2,0,2.9c-0.1,1.9-0.4,3.7-0.7,5.4
				c-0.4,1.7-0.9,3.3-1.4,4.8c-0.5,1.5-1.1,2.9-1.6,4.1c-1.1,2.5-2.1,4.5-2.8,5.9c-0.7,1.4-1.2,2.2-1.2,2.2l-5.3-3
				c0,0,0.4-0.7,1.2-2c0.7-1.3,1.8-3.2,2.9-5.4c0.6-1.1,1.1-2.4,1.7-3.7c0.6-1.3,1.1-2.7,1.5-4.2c0.5-1.5,0.8-3,1.1-4.5
				c0.1-0.8,0.2-1.5,0.2-2.3l0-1.3l0-0.5c0-0.2,0-0.4-0.1-0.6c-0.3-3.2-1.5-6.4-2.7-9.4c-0.6-1.5-1.2-3-1.7-4.4
				c-0.5-1.4-1.1-2.7-1.5-4C812.4,331.2,811.2,327.9,811.2,327.9z"/>
		</g>
		<g>
			<path d="M856.1,438.5c0,0,0.2-0.2,0.7-0.5c0.2-0.1,0.4-0.3,0.6-0.5c0.2-0.2,0.5-0.5,0.8-0.7c0.3-0.3,0.6-0.6,0.9-0.9
				c0.3-0.4,0.7-0.7,1-1.1c0.4-0.4,0.8-0.7,1.1-1.1c0.4-0.4,0.8-0.8,1.2-1.2c0.8-0.8,1.6-1.7,2.3-2.5c0.7-0.8,1.5-1.6,2.1-2.2
				c1.2-1.3,2.2-2.1,2.2-2.1l0.3,0.2c0,0-0.5,1.1-1.3,2.7c-0.4,0.8-0.9,1.7-1.4,2.7c-0.5,1-1.2,2-1.8,3c-0.7,1-1.4,2-2.2,2.9
				c-0.4,0.4-0.8,0.8-1.2,1.2c-0.5,0.3-0.9,0.6-1.3,0.9c-0.4,0.3-0.8,0.5-1.2,0.7c-0.4,0.2-0.8,0.4-1,0.4c-0.5,0.1-0.8,0.2-0.8,0.2
				L856.1,438.5z"/>
		</g>
		<g>
			<path d="M830.3,465.9c0,0,0.4-0.2,1.1-0.5c0.7-0.3,1.8-0.7,3.2-1.2c1.4-0.5,3-1,5-1.4c1.9-0.5,4.2-0.9,6.6-1.3
				c1.2-0.2,2.5-0.3,3.9-0.4c0.7-0.1,1.4,0,2.2,0c0.4,0,0.8,0.1,1.2,0.1c0.4,0.1,0.9,0.1,1.3,0.2c2.9,0.8,5.7,2.2,8.3,4
				c2.6,1.7,5.2,3.6,7.9,5.3c0.7,0.4,1.3,0.9,2,1.3c0.7,0.4,1.4,0.9,2.1,1.3l2,1.4c0.7,0.4,1.4,0.9,2.1,1.4c1.3,1,2.7,1.9,4,2.9
				c0.6,0.5,1.3,1,1.9,1.6c0.6,0.6,1.2,1.1,1.8,1.7c2.4,2.2,4.6,4.6,6.6,7c1,1.2,1.9,2.4,2.8,3.6c0.8,1.3,1.7,2.5,2.4,3.7
				c0.7,1.3,1.4,2.5,2,3.7c0.6,1.2,1.1,2.4,1.7,3.5c0.5,1.2,0.9,2.3,1.3,3.3c0.4,1.1,0.7,2.1,1,3.1c0.2,0.5,0.3,0.9,0.4,1.4
				c0.1,0.5,0.2,0.9,0.3,1.3c0.2,0.8,0.4,1.6,0.6,2.3c0.3,1.4,0.4,2.6,0.6,3.3c0.1,0.8,0.2,1.2,0.2,1.2l-0.5,0.1c0,0-0.2-0.4-0.6-1
				c-0.4-0.7-0.9-1.7-1.5-2.9c-0.7-1.2-1.5-2.8-2.5-4.4c-0.5-0.8-1-1.7-1.5-2.7c-0.6-0.9-1.1-1.9-1.8-2.9c-0.6-1-1.3-2-2-3.1
				c-0.7-1.1-1.4-2.2-2.2-3.3c-0.8-1.1-1.6-2.2-2.4-3.4c-0.8-1.1-1.7-2.3-2.5-3.5c-1.8-2.4-3.6-4.8-5.7-7.2c-1-1.2-2-2.4-3.1-3.6
				c-1-1.2-2.1-2.4-3.2-3.6c-1.1-1.2-2.3-2.2-3.5-3.3c-1.2-1-2.5-2-3.8-2.9c-1.3-0.9-2.6-1.7-4-2.4c-1.4-0.7-2.8-1.3-4.2-1.8
				c-2.8-1-5.5-1.6-8.1-2.1c-0.2,0-0.5-0.1-0.7-0.1c-0.3,0-0.6,0-0.9,0c-0.6,0-1.2,0-1.8,0c-1.2,0-2.5,0.1-3.7,0.2
				c-2.4,0.1-4.6,0.3-6.5,0.4c-2,0.1-3.7,0.2-5.1,0.2c-1.4,0-2.5,0.1-3.3,0.1c-0.8,0-1.2,0-1.2,0L830.3,465.9z"/>
		</g>
		<g>
			<path d="M863.1,493.5c0,0,1.7,5.1,4.4,12.8c0.7,1.9,1.4,4,2,6.3c0.6,2.3,1,4.8,1,7.5c0,2.7-0.6,5.6-2,8.1
				c-1.4,2.5-3.1,4.6-4.6,6.9c-3.2,4.4-6.5,8.7-9.6,12.7c-3.1,4-6.2,7.7-8.8,10.8c-2.7,3.1-4.9,5.7-6.5,7.4
				c-1.6,1.8-2.5,2.8-2.5,2.8l-3.2-3c0,0,0.9-1,2.5-2.7c1.6-1.7,3.9-4.2,6.6-7.2c1.3-1.5,2.8-3.1,4.3-4.9c1.5-1.8,3.1-3.6,4.7-5.5
				c3.3-3.9,6.7-8.1,10-12.3c1.7-2.1,3.5-4.2,4.8-6.3c1.3-2.1,1.9-4.4,2.1-6.8c0.1-2.4-0.2-4.8-0.6-7c-0.4-2.2-1-4.4-1.5-6.3
				c-2-7.9-3.4-13.1-3.4-13.1L863.1,493.5z"/>
		</g>
		<g>
			<path d="M668.4,580.2c0,0-0.1-0.1-0.2-0.2c-0.2-0.1-0.3-0.3-0.4-0.6c-0.1-0.2-0.2-0.5-0.3-0.8c-0.1-0.3-0.2-0.6-0.3-1
				c-0.2-0.7-0.4-1.6-0.7-2.4c-0.1-0.4-0.3-0.9-0.5-1.3c-0.2-0.5-0.4-0.9-0.7-1.3c-0.3-0.4-0.6-0.8-1-1.1c-0.4-0.3-0.7-0.6-1-1
				c-0.6-0.7-1-1.5-1.4-2.2c-0.4-0.7-0.6-1.4-0.8-2c-0.2-0.5-0.2-0.9-0.2-0.9l0.3-0.3c0,0,1.4,0,3,0.8c0.4,0.2,0.8,0.5,1.2,0.8
				c0.4,0.3,0.8,0.7,1.2,1.1c0.3,0.5,0.6,1,0.9,1.5c0.2,0.6,0.5,1.1,0.8,1.6c0.3,0.5,0.5,1.1,0.8,1.6c0.3,0.5,0.4,1.1,0.6,1.6
				c0.1,0.6,0.3,1.1,0.3,1.6c0.1,0.5,0.1,1,0.1,1.5c0,0.4-0.1,0.9-0.1,1.2c-0.1,0.4-0.1,0.7-0.3,0.9c-0.1,0.2-0.3,0.4-0.4,0.6
				c-0.1,0.1-0.2,0.2-0.2,0.2L668.4,580.2z"/>
		</g>
		<g>
			<path d="M668.3,292c0,0,0.7-0.3,2-0.6c1.3-0.4,3.1-0.9,5.3-1.3c2.2-0.5,4.7-1,7.5-1.5c1.4-0.2,2.8-0.4,4.2-0.7
				c1.4-0.2,2.8-0.4,4-0.8c0.6-0.2,1.2-0.4,1.8-0.7c0.3-0.1,0.6-0.3,0.8-0.4l0.4-0.2l0.4-0.2c1-0.7,2.1-1.6,3.1-2.5
				c2-1.9,4-3.6,5.8-5c1.7-1.4,3.2-2.6,4.3-3.3c1.1-0.8,1.7-1.2,1.7-1.2s-0.4,0.7-1.1,1.7c-0.7,1.1-1.8,2.6-3.2,4.4
				c-1.4,1.8-3,3.8-4.9,5.9c-0.5,0.6-1,1.1-1.6,1.6c-0.5,0.5-1.1,1.1-1.8,1.6l-0.5,0.4l-0.5,0.3c-0.4,0.2-0.8,0.4-1.2,0.6
				c-0.8,0.4-1.6,0.7-2.4,0.9c-1.6,0.5-3.2,0.7-4.7,0.8c-1.5,0.2-2.9,0.2-4.3,0.3c-2.8,0.2-5.4,0.2-7.6,0.2c-2.2,0-4.1-0.1-5.4-0.1
				C669,292.1,668.3,292,668.3,292z"/>
		</g>
		<g>
			<path d="M697.6,226.8c0,0,0,0.1,0,0.3c0,0.2,0.1,0.5,0.1,1c0,0.5,0,1,0,1.6c0,0.6-0.1,1.3-0.2,2.1c-0.1,0.8-0.3,1.6-0.5,2.4
				c-0.2,0.8-0.5,1.7-0.9,2.6c-0.8,1.8-1.8,3.7-3.6,5.2c-0.9,0.8-1.7,1.3-2.5,1.8c-0.8,0.5-1.6,0.9-2.2,1.4
				c-0.3,0.2-0.6,0.4-0.9,0.7l-0.1,0.1l-0.1,0l0,0l0,0c0,0-0.1,0.1,0.1-0.1l0,0l-0.2,0.2c-0.1,0.2-0.1,0.1-0.2,0.3
				c-0.3,0.5-0.7,1-0.9,1.6c-0.4,1.1-0.6,2.1-0.6,2.7c0,0.3,0,0.5,0.1,0.7c0,0.1,0,0.2,0,0.2l-2.1,1.1c0,0-0.1-0.1-0.2-0.4
				c-0.1-0.3-0.3-0.7-0.4-1.2c-0.2-1-0.3-2.4,0.1-4.1c0.2-0.8,0.5-1.7,1-2.6c0.1-0.2,0.4-0.6,0.5-0.7l0.2-0.2l0.3-0.3
				c0.3-0.4,0.7-0.7,1.1-1c0.8-0.6,1.6-1.2,2.3-1.7c0.8-0.5,1.5-1,2-1.5c0.5-0.5,1.1-1.1,1.5-1.7c0.5-0.7,0.9-1.4,1.2-2.1
				c0.7-1.4,1.3-2.9,1.6-4.2c0.2-0.6,0.3-1.2,0.5-1.7c0.1-0.5,0.2-1,0.3-1.3c0.1-0.3,0.1-0.7,0.1-0.9c0-0.2,0-0.3,0-0.3L697.6,226.8
				z"/>
		</g>
		<g>
			<path d="M653.7,264.4c0,0,1.1-0.9,3.2-2.5c2.1-1.5,5.1-3.7,9-5.8c2-1.1,4.2-2.1,6.6-3c1.2-0.5,2.5-0.9,3.8-1.3
				c0.7-0.2,1.3-0.4,2-0.5c0.7-0.1,1.3-0.3,2-0.4c2.9-0.5,5.8-0.8,8.8-0.7c3,0.1,6,0.4,9,1c3,0.6,5.9,1.4,8.7,2.4
				c2.8,1,5.4,2.2,8,3.4c2.5,1.2,4.9,2.6,7,3.9c2.2,1.3,4.2,2.7,6,4c3.6,2.6,6.4,4.9,8.4,6.6c2,1.7,3,2.7,3,2.7s-1.3-0.7-3.5-2
				c-2.2-1.3-5.4-3.1-9.2-5.3c-1.9-1.1-4-2.2-6.2-3.3c-2.2-1.1-4.6-2.2-7-3.3c-2.5-1.1-5.1-2-7.7-2.9c-2.7-0.9-5.4-1.6-8.2-2.1
				c-2.8-0.6-5.6-0.9-8.3-1c-2.7-0.1-5.5-0.1-8.1,0.3c-0.6,0.1-1.3,0.2-2,0.3c-0.6,0.1-1.3,0.2-1.9,0.3c-1.2,0.3-2.5,0.6-3.6,0.9
				c-2.3,0.7-4.5,1.5-6.5,2.3c-4,1.6-7.3,3.3-9.6,4.4C655,263.8,653.7,264.4,653.7,264.4z"/>
		</g>
		<g>
			<path d="M601.7,395.2c0,0-0.3,0-0.8,0c-0.5,0-1.3,0-2.3,0c-2-0.1-4.8-0.4-8.1-1.2c-1.6-0.4-3.4-1-5.2-1.7
				c-1.8-0.7-3.7-1.5-5.6-2.5c-0.5-0.2-1-0.5-1.4-0.7c-0.5-0.3-0.9-0.5-1.4-0.8c-1-0.5-1.9-1.1-2.9-1.7c-1.9-1.2-3.8-2.5-5.6-3.9
				c-1.8-1.4-3.5-3-5-4.6c-1.6-1.6-3-3.4-4.2-5.2c-1.2-1.8-2.2-3.7-3-5.5c-0.8-1.8-1.4-3.6-1.8-5.3c-0.4-1.7-0.6-3.2-0.7-4.6
				c-0.1-1.4-0.1-2.6,0-3.6c0.1-1,0.2-1.7,0.3-2.3c0.1-0.5,0.2-0.8,0.2-0.8s0,0.3,0.1,0.8c0,0.5,0.1,1.3,0.3,2.2
				c0.2,0.9,0.4,2.1,0.7,3.4c0.3,1.3,0.8,2.7,1.4,4.2c0.6,1.5,1.4,3,2.3,4.6c0.9,1.6,2,3.2,3.2,4.7c1.2,1.6,2.6,3.1,4.1,4.6
				c1.5,1.5,3.1,2.9,4.7,4.2c1.7,1.3,3.4,2.6,5.2,3.8c0.9,0.6,1.8,1.2,2.6,1.7c0.4,0.3,0.9,0.5,1.3,0.8c0.4,0.3,0.9,0.5,1.3,0.8
				c1.8,1,3.5,2,5.1,2.8c1.7,0.8,3.2,1.6,4.7,2.2c3,1.3,5.6,2.1,7.4,2.6c0.9,0.2,1.7,0.4,2.2,0.5
				C601.4,395.1,601.7,395.2,601.7,395.2z"/>
		</g>
		<g>
			<path d="M569,278.3c0,0,0.2,0,0.6,0c0.4,0,1,0,1.8,0.1c0.8,0.1,1.7,0.2,2.7,0.5c1.1,0.3,2.2,0.6,3.5,1.2c1.2,0.5,2.5,1.2,3.8,2
				c1.3,0.8,2.6,1.8,3.9,2.9c0.3,0.3,0.6,0.6,0.9,0.9c0.3,0.3,0.6,0.6,0.9,0.9c0.6,0.6,1.2,1.3,1.8,2c1.1,1.4,2.2,2.8,3.1,4.3
				c1.9,3,3.4,6.2,4.7,9.2c0.6,1.5,1.2,3,1.6,4.5c0.4,1.5,0.8,2.9,1,4.2c0.5,2.6,0.4,4.9,0.2,6.4c-0.1,0.8-0.2,1.4-0.3,1.8
				c-0.1,0.4-0.2,0.6-0.2,0.6s0-0.2-0.1-0.6c0-0.4-0.1-1-0.2-1.7c-0.3-1.5-0.7-3.5-1.6-5.9c-0.9-2.3-2.1-5-3.6-7.7
				c-0.7-1.4-1.5-2.8-2.3-4.3c-0.8-1.4-1.6-2.9-2.5-4.3c-0.9-1.4-1.8-2.8-2.8-4c-0.5-0.6-1-1.3-1.5-1.9c-0.2-0.3-0.5-0.6-0.8-0.9
				c-0.3-0.3-0.5-0.6-0.8-0.8c-2.1-2.2-4.3-4.1-6.3-5.5c-2.1-1.4-3.9-2.3-5.3-2.9c-0.7-0.3-1.2-0.5-1.6-0.6
				C569.2,278.4,569,278.3,569,278.3z"/>
		</g>
		<g>
			<path d="M211.1,341.6c0,0-0.3-0.5-0.9-1.3c-0.6-0.9-1.4-2.1-2.4-3.7c-2.1-3.2-5-7.8-8.4-13.3c-1.7-2.8-3.6-5.7-5.5-9
				c-0.9-1.7-1.9-3.5-2.4-5.7c-0.1-0.3-0.1-0.6-0.1-0.8l0-0.2l0-0.1c0,0.1,0-0.2,0-0.2l0-0.1l0-0.4c0-0.5-0.1-0.9,0-1.6
				c0.1-0.6,0.1-1.3,0.3-1.8c0.2-0.6,0.3-1.1,0.5-1.7c0.9-2.2,2.4-4.1,4.1-5.6c1.7-1.5,3.7-2.8,5.8-3.7c2.1-1,4.3-1.6,6.6-2.1
				c0.3-0.1,0.6-0.1,0.9-0.2l0.8-0.1c0.5-0.1,1.1-0.1,1.7-0.2c1.1-0.1,2.2-0.2,3.3-0.3c4.4-0.2,8.6-0.3,12.5-1.2
				c1.9-0.4,3.8-1.1,5.4-1.9l0.7-0.4l0.6-0.4c0.4-0.2,0.8-0.5,1.2-0.8c0.8-0.6,1.6-1.2,2.3-1.8c1.5-1.3,3-2.6,4.6-3.9
				c1.5-1.3,3.3-2.4,5-3.3c3.6-1.9,7-2.8,10.2-3.6c3.1-0.9,6-1.6,8.3-2.7c2.4-1,4.3-2.2,5.7-3.4c1.4-1.2,2.3-2.4,2.9-3.2
				c0.3-0.4,0.5-0.8,0.6-1c0.1-0.2,0.2-0.4,0.2-0.4s0,0.1-0.1,0.4c-0.1,0.2-0.2,0.6-0.4,1.1c-0.4,0.9-1.2,2.3-2.5,3.7
				c-1.3,1.4-3.2,2.9-5.6,4.2c-2.4,1.3-5.2,2.4-8.3,3.5c-3,1.1-6.4,2.3-9.3,4c-3.1,1.8-5.6,4.6-8.8,7.3c-0.8,0.7-1.6,1.4-2.5,2
				c-0.4,0.3-0.9,0.6-1.4,1l-0.7,0.5l-0.7,0.4c-2,1.2-4.2,1.9-6.4,2.5c-4.4,1-8.9,1.1-13.2,1.4c-1.1,0.1-2.1,0.1-3.2,0.2
				c-0.5,0-1,0.1-1.6,0.2l-0.8,0.1c-0.2,0-0.5,0.1-0.7,0.1c-2,0.3-3.9,0.9-5.7,1.7c-3.6,1.6-6.8,4-8.2,7.2c-0.4,0.8-0.6,1.6-0.7,2.3
				c-0.1,0.3,0,0.9-0.1,1.4l0,0.4l0,0.1c0,0,0-0.2,0-0.1l0,0l0,0.2c0,0.2,0,0.4,0.1,0.6c0.3,1.7,0.9,3.3,1.8,4.9
				c1.7,3.3,3.3,6.4,4.8,9.3c3,5.8,5.4,10.6,7.1,14c0.8,1.7,1.5,3.1,1.9,4C210.9,341.1,211.1,341.6,211.1,341.6z"/>
		</g>
		<g>
			<path d="M238.3,496.5c0,0,1.4,0.1,3.8,0.3c1.2,0.1,2.7,0.2,4.4,0.3c1.7,0.1,3.6,0.3,5.6,0.3c2.1,0.1,4.3,0.2,6.6,0.3
				c0.6,0,1.2,0,1.8,0.1c0.6,0,1.2,0,1.8,0c1.2,0,2.5,0,3.8,0c2.6-0.1,5.2-0.1,7.9-0.3c2.7-0.1,5.4-0.4,8.1-0.7
				c1.4-0.1,2.7-0.3,4-0.5c0.7-0.1,1.3-0.2,2-0.3c0.7-0.1,1.3-0.2,2-0.4c0.7-0.1,1.3-0.2,2-0.4c0.7-0.1,1.3-0.2,1.9-0.4
				c1.3-0.3,2.5-0.6,3.8-0.8c1.2-0.3,2.4-0.7,3.6-1c1.2-0.3,2.4-0.6,3.5-1c1.1-0.4,2.2-0.7,3.2-1.1c1.1-0.3,2-0.8,3-1.1
				c1-0.4,1.9-0.7,2.7-1.1c0.9-0.4,1.7-0.8,2.4-1.1c0.8-0.3,1.5-0.7,2.1-1c0.7-0.3,1.2-0.6,1.8-0.9c2.1-1.1,3.4-1.7,3.4-1.7
				s-1.1,0.9-3,2.4c-0.5,0.4-1,0.8-1.6,1.2c-0.6,0.4-1.3,0.8-2,1.3c-0.7,0.5-1.5,1-2.3,1.5c-0.8,0.5-1.7,0.9-2.7,1.4
				c-0.9,0.5-1.9,1-2.9,1.5c-1,0.5-2.1,0.9-3.2,1.4c-1.1,0.5-2.3,0.9-3.5,1.3c-1.2,0.4-2.4,0.9-3.7,1.2c-2.5,0.7-5.2,1.5-7.9,2
				c-0.7,0.1-1.4,0.3-2,0.4c-0.7,0.1-1.4,0.2-2.1,0.3c-1.4,0.2-2.8,0.4-4.2,0.6c-2.8,0.2-5.6,0.5-8.4,0.5c-1.4,0.1-2.8,0.1-4.1,0
				c-1.4,0-2.7-0.1-4-0.1c-1.3-0.1-2.6-0.1-3.9-0.3c-0.6-0.1-1.3-0.1-1.9-0.1c-0.6-0.1-1.2-0.1-1.8-0.2c-1.2-0.1-2.4-0.3-3.5-0.4
				c-1.1-0.2-2.2-0.4-3.2-0.5c-1-0.2-2-0.3-3-0.5c-0.9-0.2-1.8-0.4-2.6-0.6c-1.7-0.4-3.1-0.7-4.3-1.1
				C239.7,496.9,238.3,496.5,238.3,496.5z"/>
		</g>
		<g>
			<path d="M331,458.3c0,0-0.2-1.5-0.5-4.1c-0.1-1.3-0.3-2.9-0.4-4.7c-0.1-1.8-0.2-3.9-0.2-6.1c0-2.2,0-4.7,0.1-7.2
				c0.1-2.6,0.2-5.3,0.5-8c0.2-2.8,0.4-5.6,0.7-8.5c0.3-2.9,0.5-5.8,0.8-8.8c0.3-2.9,0.5-5.9,0.7-8.7c0.1-1.4,0.1-2.9,0.2-4.3
				c0-1.4,0.1-2.8,0.1-4.2c0-0.7,0-1.4,0-2c0-0.7,0-1.3,0-2c0-1.3-0.1-2.6-0.2-3.8c-0.2-2.5-0.6-4.8-1.1-6.9
				c-0.5-2.1-1.2-3.9-1.9-5.5c-0.2-0.4-0.4-0.8-0.6-1.1c-0.2-0.4-0.4-0.7-0.6-1c-0.4-0.7-0.8-1.2-1.2-1.8c-0.8-1-1.4-1.8-1.9-2.3
				c-0.5-0.5-0.8-0.8-0.8-0.8s0.3,0.2,0.9,0.6c0.6,0.4,1.4,1,2.4,1.9c0.9,0.9,2.1,2.1,3.1,3.7c1,1.6,2,3.5,2.8,5.6
				c0.8,2.2,1.4,4.6,1.8,7.2c0.2,1.3,0.4,2.6,0.5,4c0.1,0.7,0.1,1.4,0.2,2.1c0,0.7,0.1,1.4,0.1,2.1c0.1,2.8,0.1,5.7,0,8.7
				c-0.1,2.9-0.3,5.9-0.5,8.9c-0.3,3-0.6,5.9-0.9,8.8c-0.3,2.9-0.7,5.7-1.1,8.5c-0.3,2.7-0.7,5.4-1,7.9c-0.1,1.3-0.3,2.5-0.4,3.7
				c-0.1,1.2-0.3,2.3-0.4,3.4c-0.2,2.2-0.4,4.2-0.6,6c-0.1,1.8-0.3,3.4-0.4,4.6C331.1,456.8,331,458.3,331,458.3z"/>
		</g>
		<g>
			<path d="M388.5,351.9c0,0,0.4,0.5,0.9,1.3c0.3,0.4,0.6,0.9,0.9,1.5c0.3,0.6,0.7,1.3,1.1,2c0.4,0.8,0.7,1.6,1.1,2.5
				c0.4,0.9,0.7,1.9,1,2.9c0.3,1,0.6,2.1,0.8,3.1c0.3,1.1,0.4,2.2,0.6,3.3c0.1,1.1,0.3,2.2,0.4,3.3c0.1,1.1,0.1,2.2,0.1,3.2
				c0,1.1,0,2.1-0.1,3c-0.1,1-0.2,1.9-0.3,2.7c-0.1,0.8-0.3,1.6-0.4,2.3c-0.1,0.7-0.3,1.3-0.4,1.7c-0.3,1-0.5,1.5-0.5,1.5
				s-0.1-0.6-0.3-1.5c-0.2-1-0.4-2.3-0.7-4c-0.5-3.2-1.1-7.5-1.7-11.7c-0.7-4.3-1.3-8.5-1.8-11.7c-0.2-1.6-0.4-3-0.5-4
				C388.5,352.4,388.5,351.9,388.5,351.9z"/>
		</g>
		<g>
			<path d="M468.9,391.7c0,0,0.1,0.1,0.2,0.3c0.1,0.2,0.3,0.5,0.5,1c0.2,0.4,0.5,1,0.6,1.6c0.2,0.6,0.4,1.4,0.6,2.2
				c0.3,1.6,0.4,3.5,0.5,5.5c0,1,0.1,2,0.1,3c0.1,1,0.1,2,0.2,2.9c0.1,0.9,0.3,1.9,0.5,2.7c0.2,0.9,0.6,1.8,0.9,2.7
				c0.3,0.9,0.6,1.9,0.9,2.9c0.1,0.2,0.1,0.5,0.1,0.7l0,0.2l0,0.1l0,0.1l0,0.3c0,0.5,0.1,1,0.1,1.4c-0.1,1.8-0.7,3.2-1.4,4
				c-0.3,0.4-0.6,0.6-0.8,0.8c-0.2,0.1-0.3,0.2-0.3,0.2s0.1-0.1,0.2-0.4c0.1-0.2,0.2-0.6,0.3-1c0.2-0.9,0.2-2.1-0.2-3.4
				c-0.1-0.3-0.2-0.7-0.3-1l-0.1-0.3l0-0.1c0,0,0,0,0,0l-0.1-0.1c-0.1-0.2-0.2-0.4-0.3-0.6c-0.4-0.7-0.8-1.5-1.3-2.4
				c-0.5-0.9-1-1.9-1.3-2.9c-0.4-1.1-0.6-2.3-0.8-3.4c-0.3-2.3-0.1-4.5,0.1-6.5c0.2-2,0.5-3.7,0.7-5.3c0.1-0.8,0.2-1.5,0.2-2.1
				c0.1-0.6,0.1-1.2,0.1-1.6C468.9,392.3,468.9,391.7,468.9,391.7z"/>
		</g>
		<g>
			<path d="M398.2,293.4c0,0,0.8-0.9,2.3-2.4c1.4-1.5,3.5-3.7,5.8-6.3c1.1-1.3,2.3-2.8,3.5-4.4c1.1-1.6,2.2-3.4,3.2-5.3
				c1.1-1.9,2-4,3.2-6.1c0.6-1.1,1.1-2.1,1.8-3.1c0.6-1,1.2-2.1,1.9-3.1c1.3-2,2.7-4,4.1-6c1.4-1.9,2.9-3.7,4.4-5.5
				c1.5-1.7,3-3.3,4.4-4.8c1.4-1.5,2.9-2.8,4.2-4c2.7-2.4,5.1-4.2,6.8-5.4c0.8-0.6,1.6-1.1,2-1.4c0.5-0.3,0.7-0.5,0.7-0.5
				s-0.8,0.9-2.2,2.4c-0.7,0.8-1.5,1.7-2.5,2.8c-1,1.1-2,2.3-3.2,3.7c-1.2,1.4-2.4,2.8-3.7,4.4c-1.3,1.6-2.6,3.3-3.9,5
				c-1.3,1.7-2.6,3.6-4,5.5c-1.3,1.9-2.6,3.8-3.9,5.8c-0.7,1-1.2,2-1.9,3c-0.6,1-1.2,2-1.8,3c-1.1,2-2.3,4-3.5,6
				c-1.2,2-2.5,3.8-3.9,5.4c-1.4,1.6-2.8,3-4.2,4.2c-2.7,2.4-5.2,4.1-6.9,5.3C399.2,292.8,398.2,293.4,398.2,293.4z"/>
		</g>
		<g>
			<path d="M358.6,292.4c0,0-0.1-0.1-0.4-0.2c-0.2-0.1-0.4-0.2-0.8-0.4c-0.5-0.4-1.1-0.8-1-1.3c0.1-0.6,0.2-1.2,0.4-1.9
				c0.2-0.7,0.4-1.5,0.8-2.3c0.3-0.8,0.8-1.7,1.3-2.5c0.5-0.8,1.1-1.7,1.7-2.5c1.3-1.6,2.7-3.2,4.1-4.8c0.7-0.8,1.3-1.6,2-2.4
				c0.6-0.8,1.2-1.6,1.7-2.4c0.5-0.8,1-1.5,1.4-2.3c0.4-0.8,0.8-1.5,1.1-2.2c0.3-0.7,0.5-1.4,0.7-2c0.1-0.6,0.3-1.1,0.3-1.6
				c0.1-0.5,0.1-0.8,0.1-1.1c0-0.3,0-0.4,0-0.4s0,0.1,0.1,0.4c0.1,0.2,0.2,0.6,0.2,1.1c0.1,0.5,0.1,1,0.2,1.7c0,0.3,0,0.7,0,1.1
				c0,0.4-0.1,0.8-0.1,1.2c-0.2,1.7-0.7,3.6-1.6,5.5c-0.8,1.9-1.9,3.8-3,5.7c-1.1,1.8-2.2,3.6-3.1,5.3c-0.5,0.8-0.9,1.6-1.3,2.3
				c-0.4,0.7-0.7,1.4-1.1,2c-0.2,0.3-0.3,0.6-0.4,0.9c-0.1,0.3-0.3,0.6-0.4,0.8c-0.2,0.5-0.4,1-0.5,1.3c-0.1,0.3-0.7,0.6-1.4,0.8
				c-0.4,0.1-0.7,0.1-0.9,0.1C358.7,292.4,358.6,292.4,358.6,292.4z"/>
		</g>
		<g>
			<path d="M270.9,340.9c0,0-0.1-0.4-0.2-1c-0.2-0.7-0.3-1.6-0.3-2.9c0-1.3,0-2.9,0.4-4.6c0.3-1.8,0.9-3.8,2-5.8
				c1-2,2.4-4.1,4.3-5.9c1.8-1.9,4.1-3.6,6.8-4.7l0.5-0.2l0.5-0.2c0.3-0.1,0.6-0.2,1-0.3c0.7-0.2,1.4-0.5,2.1-0.6
				c1.4-0.4,2.8-0.7,4.1-1c2.7-0.6,5.4-1.3,7.6-2.4c1.1-0.6,2.1-1.3,2.8-2.1l0.6-0.7l0.6-0.8c0.4-0.5,0.7-1.1,1-1.6
				c0.6-1.1,1-2.2,1.1-3.2c0-0.2,0-0.5,0-0.7l-0.1-1l-0.1-1c0-0.3,0-0.8,0-1.1c0.1-3.1,0.9-5.7,1.9-8.1c1-2.4,2.3-4.4,3.5-6.3
				c2.5-3.6,4.8-6.4,6.4-8.3c1.6-1.9,2.5-3,2.5-3s-0.6,1.3-1.9,3.5c-0.6,1.1-1.4,2.4-2.3,3.9c-0.9,1.5-1.8,3.2-2.8,5.1
				c-1,1.9-1.9,4-2.7,6.2c-0.7,2.2-1.2,4.7-1.2,7c0,0.3,0,0.5,0,0.9l0.1,1l0.1,1c0.1,0.4,0.1,0.9,0.1,1.3c-0.1,1.8-0.7,3.4-1.4,4.8
				c-0.4,0.7-0.8,1.4-1.2,2l-0.6,0.9l-0.8,1c-1.1,1.3-2.5,2.3-3.9,3.1c-2.9,1.5-5.9,2.1-8.7,2.7c-1.4,0.3-2.7,0.6-4.1,0.8
				c-0.7,0.1-1.3,0.3-1.9,0.5c-0.3,0.1-0.6,0.2-1,0.3l-0.4,0.1l-0.4,0.2c-2.3,0.9-4.4,2.1-6.1,3.6c-1.7,1.5-3.2,3.2-4.3,4.9
				c-1.1,1.7-1.9,3.4-2.5,5c-0.6,1.6-0.9,3.1-1.1,4.3c-0.1,1.2-0.3,2.2-0.2,2.9C270.9,340.6,270.9,340.9,270.9,340.9z"/>
		</g>
		<g>
			<path d="M661.1,494.3c-0.4-0.7-0.7-1.4-0.9-2.2c-0.2-0.8-0.3-1.7-0.1-2.6c0.1-0.4,0.2-0.9,0.4-1.4c0.1-0.2,0.2-0.4,0.3-0.7
				c0.1-0.2,0.3-0.4,0.4-0.6c0.1-0.2,0.3-0.4,0.5-0.6c0.2-0.2,0.3-0.4,0.5-0.5c0.4-0.3,0.7-0.6,1.1-0.9l0.1-0.1l0.4-0.1
				c0.8-0.2,1.6-0.4,2.4-0.6c0.8-0.1,1.6-0.3,2.4-0.3c0.8-0.1,1.7-0.1,2.5-0.1c0.9,0,1.7,0.1,2.7,0.3c-0.3,0.4-0.6,0.7-1,1
				c-0.3,0.3-0.7,0.6-1.1,0.8c-0.7,0.5-1.5,0.9-2.3,1.2c-0.8,0.4-1.6,0.6-2.4,0.9c-0.8,0.2-1.6,0.4-2.5,0.5l0.5-0.2
				c-0.2,0.1-0.5,0.2-0.7,0.4c-0.1,0.1-0.2,0.1-0.3,0.2c-0.1,0.1-0.2,0.1-0.3,0.2c-0.2,0.2-0.4,0.3-0.6,0.5
				c-0.2,0.2-0.3,0.4-0.5,0.7c-0.3,0.5-0.6,1.1-0.8,1.8C661.6,492.8,661.4,493.6,661.1,494.3z"/>
		</g>
		<g>
			<path d="M285.6,404.3c0,0-0.2,0-0.4,0c-0.3,0-0.7,0-1.3-0.1c-1.2-0.2-2.9-0.6-4.9-1.6c-2-1-4.2-2.7-6.2-5.1
				c-2-2.4-3.7-5.6-4.5-9.5c-0.8-3.7-0.9-8,0-12.2c0.8-4.2,2.6-8.4,4.6-12.5c2.1-4.1,4.5-8.2,7.7-11.8c3.2-3.6,7.7-6.2,12.1-8.1
				c4.5-1.9,8.9-3.7,13.3-5.2c4.4-1.6,8.8-3.1,13.1-4.5c4.3-1.4,8.5-2.7,12.6-3.6c4.2-0.9,8.2-1.4,12.1-1.3
				c3.8,0.1,7.4,0.9,10.3,1.9c3,1.1,5.4,2.5,7.3,3.9c1.9,1.4,3.1,2.8,3.9,3.8c0.8,1,1.2,1.6,1.2,1.6l-4.2,2.8c0,0-0.3-0.4-0.9-1.2
				c-0.6-0.7-1.6-1.8-3-2.9c-1.5-1.1-3.4-2.3-5.9-3.2c-2.5-0.9-5.5-1.6-8.8-1.7c-3.3-0.1-7,0.3-10.9,1.1c-3.9,0.8-7.9,2.1-12.2,3.4
				c-4.3,1.4-8.7,2.7-13.2,4c-2.3,0.6-4.5,1.3-6.9,1.9c-2.3,0.6-4.6,1.1-6.9,1.8c-2.3,0.6-4.5,1.4-6.5,2.5c-1,0.6-2,1.1-2.9,1.8
				c-0.9,0.7-1.7,1.5-2.5,2.3c-3.1,3.3-5,7.6-6.3,11.8c-1.3,4.2-2.2,8.4-2.8,12.2c-0.5,3.9-0.7,7.4-0.1,10.8c0.5,3.1,1.7,6,3.1,8.3
				c0.7,1.2,1.5,2.1,2.2,3c0.8,0.9,1.6,1.6,2.3,2.2c1.5,1.2,3,2,3.9,2.4c0.5,0.2,0.9,0.4,1.2,0.5c0.3,0.1,0.4,0.2,0.4,0.2
				L285.6,404.3z"/>
		</g>
		<g>
			<path d="M514.6,426.5c0,0-0.5-0.7-1.5-2.1c-1-1.4-2.4-3.4-4-6.2c-0.8-1.4-1.7-2.9-2.6-4.6c-0.4-0.9-0.9-1.7-1.4-2.7
				c-0.5-0.9-0.9-1.9-1.3-2.9c-1.8-4-3.6-8.7-5.1-14c-1.5-5.3-2.8-11.1-3.5-17.3c-0.7-6.2-0.6-12.9,0-19.7
				c0.6-6.8,1.6-13.9,4.4-20.5c2.9-6.7,7.4-12.4,11.7-18.2c4.3-5.8,8.6-11.6,13.1-17c4.5-5.5,9-10.8,13.4-15.9
				c4.5-5.1,9.1-9.9,14-13.9c2.5-2,5-3.9,7.5-5.5c1.3-0.8,2.5-1.5,3.8-2.3c0.6-0.3,1.2-0.6,1.8-1c0.7-0.3,1.3-0.6,1.9-0.9
				c5.1-2.3,9.9-3.8,14.2-4.9c4.3-1.1,8.1-1.8,11.2-2.3c3.1-0.5,5.6-0.8,7.2-1.1c1.7-0.2,2.6-0.3,2.6-0.3l0.1,0.5c0,0-3.4,1-9.5,2.8
				c-3,0.9-6.6,2-10.7,3.5c-4.1,1.5-8.6,3.3-13.2,5.7c-0.6,0.3-1.1,0.6-1.7,0.9c-0.6,0.4-1.2,0.7-1.8,1.1c-1.1,0.7-2.3,1.5-3.4,2.3
				c-2.3,1.6-4.6,3.4-6.8,5.4c-4.5,3.9-9,8.5-13.5,13.4c-4.5,4.9-9.2,10.1-13.9,15.3c-4.7,5.3-9.6,10.5-14.3,15.9
				c-4.8,5.3-9.6,10.7-12.4,17.1c-1.4,3.2-2.2,6.6-2.6,9.9c-0.5,3.4-0.5,6.8-0.5,10.1c0.1,6.7,0.9,13.1,1.7,19.1
				c0.9,6,1.9,11.6,3.2,16.8c1.2,5.2,2.7,9.8,4.1,13.9c1.4,4.1,2.9,7.6,4.1,10.5c1.3,2.8,2.2,5.1,3,6.6c0.7,1.5,1.1,2.3,1.1,2.3
				L514.6,426.5z"/>
		</g>
		<g>
			<path d="M596.7,203c0,0,0,0.2,0,0.6c0,0.4,0.1,0.9,0.2,1.7c0.2,1.4,0.7,3.5,1.8,6c1.1,2.5,2.8,5.2,5.2,8.1
				c2.4,2.8,5.5,5.8,9.1,8.7c3.6,2.9,7.9,5.8,12.1,9.5c4.2,3.6,8.4,8.1,11.2,13.7c2.9,5.6,3.9,11.8,5.8,17.7c0.9,3,2,5.9,3.5,8.6
				c1.5,2.7,3.3,5.3,5.1,7.9c1.8,2.6,3.7,5.3,5.2,8.2c1.6,2.9,2.8,5.9,4.1,8.7c1.2,2.8,2.5,5.5,4.1,7.9c1.5,2.4,3.3,4.6,5.3,6.7
				c3.9,4.1,8.4,7.6,12.8,10.8c4.4,3.1,8.7,5.9,12.7,8.6c4,2.7,7.6,5.2,10.8,7.5c3.2,2.4,5.8,4.6,7.9,6.6c2.1,2,3.6,3.7,4.6,4.9
				c1,1.2,1.5,1.9,1.5,1.9l-3.9,2.9c0,0-0.5-0.6-1.4-1.7c-0.9-1.1-2.3-2.6-4.3-4.5c-2-1.8-4.5-4-7.5-6.2c-3-2.3-6.6-4.7-10.6-7.4
				c-4-2.6-8.3-5.5-12.8-8.7c-4.5-3.2-9.2-6.9-13.5-11.4c-2.1-2.3-4.1-4.8-5.8-7.6c-1.7-2.7-3-5.8-4.2-8.7c-1.2-3-2.2-5.9-3.4-8.7
				c-1.2-2.8-2.7-5.6-4.2-8.4c-1.5-2.8-3.1-5.6-4.4-8.6c-0.7-1.5-1.3-3-1.8-4.5c-0.5-1.5-1-3.1-1.4-4.6c-0.8-3-1.6-6.1-2.6-8.9
				c-0.5-1.4-1-2.8-1.7-4.2c-0.6-1.3-1.4-2.6-2.2-3.8c-3.2-4.8-7.6-8.3-11.8-11.6c-4.3-3.2-8.4-6.4-12.1-9.5
				c-3.7-3.2-6.8-6.6-9.1-9.9c-1.2-1.7-2.1-3.3-2.8-4.9c-0.7-1.6-1.3-3.1-1.7-4.5c-0.8-2.8-0.8-5.1-0.7-6.7c0.1-0.8,0.1-1.4,0.2-1.7
				c0.1-0.4,0.1-0.6,0.1-0.6L596.7,203z"/>
		</g>
		<g>
			<path d="M440.9,214.8c0,0-0.5,0.6-1.5,1.6c-0.5,0.5-1.2,1.1-2.1,1.8c-0.4,0.4-0.9,0.7-1.4,1.1c-0.5,0.4-1,0.8-1.6,1.1
				c-2.3,1.5-5.4,3.1-9.1,4.4c-3.6,1.4-7.9,2.4-12.5,3.4c-4.6,0.9-9.6,1.8-14.8,2.8c-5.2,1-10.7,1.9-16.4,3.2
				c-5.7,1.3-11.5,2.9-17.1,5.1c-5.7,2.2-11.2,5.1-15.8,9c-2.3,1.9-4.4,4.1-6.2,6.4c-1.8,2.3-3.3,4.9-4.4,7.5
				c-1.1,2.6-1.8,5.3-1.9,8c0,0.7-0.1,1.3,0,2l0,0.5l0,0.1c0,0.1,0-0.1,0,0l0,0.1l0,0.3l0.1,1.1c0.1,0.7,0.2,1.2,0.4,1.8
				c0.2,0.6,0.3,1.2,0.6,1.8c1.7,4.8,5.3,8.8,9.4,10.6c1,0.5,2.1,0.7,3.1,1c0.2,0,0.6,0.1,0.9,0.1c0.3,0,0.5,0.1,0.8,0.1
				c0.6,0,1.2,0.1,1.7,0.1c2.4,0,4.9-0.2,7.5,0.1c0.3,0,0.6,0.1,1,0.1l0.2,0l0.1,0c0,0,0.5,0.1,0.3,0.1l0.1,0l0.4,0.1
				c0.3,0.1,0.5,0.2,0.8,0.3c0.3,0.2,0.7,0.3,1,0.5c0.7,0.3,1.2,0.7,1.7,1c0.5,0.3,1,0.7,1.4,1.1c1.8,1.5,3.2,3,4.4,4.5
				c2.5,3,4.3,5.8,5.7,8.2c1.4,2.4,2.4,4.3,3,5.7c0.3,0.7,0.5,1.2,0.7,1.6c0.1,0.4,0.2,0.5,0.2,0.5l-0.4,0.2c0,0-0.1-0.2-0.3-0.5
				c-0.2-0.3-0.5-0.8-0.9-1.4c-0.8-1.2-2.1-2.9-3.8-5c-1.7-2.1-3.9-4.6-6.5-7.1c-1.3-1.3-2.8-2.5-4.4-3.7c-0.4-0.3-0.8-0.6-1.2-0.8
				c-0.4-0.2-0.9-0.5-1.2-0.6c-0.2-0.1-0.3-0.1-0.5-0.2c-0.2-0.1-0.5-0.1-0.8-0.2l-0.4-0.1l-0.1,0c-0.2,0,0.2,0,0.2,0l-0.1,0l-0.2,0
				c-0.2,0-0.5,0-0.8,0c-2.1-0.1-4.4,0.2-7,0.4c-0.7,0-1.3,0.1-2.1,0c-0.3,0-0.7,0-1.1,0c-0.4,0-0.6,0-1.1-0.1
				c-1.5-0.2-3-0.5-4.4-1.2c-2.9-1.2-5.5-3-7.6-5.4c-2.1-2.4-3.7-5.2-4.7-8.3c-0.3-0.8-0.5-1.6-0.6-2.4c-0.2-0.8-0.3-1.7-0.4-2.5
				l-0.1-1.1l0-0.3l0-0.1c0,0,0-0.2,0-0.2l0-0.1l0-0.6c0-0.8,0.1-1.6,0.1-2.5c0.3-3.3,1.3-6.5,2.7-9.4c2.8-6,7.6-10.8,12.9-14.3
				c5.4-3.5,11.2-6,16.9-8.2c5.8-2.2,11.4-4.3,16.9-6.3c5.5-2,11-3.7,16.2-4.9c5.3-1.2,10.3-1.9,14.9-2.7c4.6-0.7,8.7-1.5,12.3-2.4
				c1.8-0.5,3.4-1,5-1.5c1.5-0.5,2.9-1.1,4.1-1.6c0.6-0.3,1.2-0.5,1.7-0.8c0.5-0.3,1-0.5,1.5-0.8c0.9-0.5,1.7-0.9,2.3-1.3
				c1.2-0.8,1.9-1.2,1.9-1.2L440.9,214.8z"/>
		</g>
		<g>
			<path d="M348.7,246.8c0,0-0.2,0.2-0.5,0.7c-0.1,0.1-0.3,0.3-0.4,0.4c-0.1,0.1-0.2,0.1-0.3,0.1c-0.4-0.1-0.9-0.4-1.6-0.7
				c-1.3-0.5-3.5-1.2-6.2-1.6c-2.7-0.4-6.1-0.5-9.9,0.2c-3.8,0.7-7.9,2.2-11.7,4.9c-3.8,2.7-7.4,6.5-9.8,11.3
				c-1.2,2.4-2.1,5-2.7,7.7c-0.3,1.4-0.5,2.9-0.9,4.5c-0.2,0.8-0.4,1.6-0.7,2.5c-0.3,0.8-0.7,1.7-1.2,2.4c-1.9,3.2-4.7,5.4-7.4,7.3
				c-1.4,1-2.7,1.8-4.1,2.7c-1.4,0.9-2.8,1.8-4.2,2.6c-5.7,3.4-11.6,6.6-17.4,9.8c-5.8,3.2-11.6,6.4-17.1,10
				c-5.4,3.5-10.6,7.4-15,11.5c-2.1,2.1-3.9,4.4-4.8,7c-0.2,0.6-0.4,1.3-0.5,1.9c-0.1,0.8-0.1,1.3-0.1,2c0,1.3,0.3,2.6,0.7,3.9
				c0.9,2.5,2.3,4.8,4,6.8c1.7,2,3.5,3.8,5.3,5.5c1.8,1.7,3.5,3.5,5,5.3c0.4,0.5,0.7,0.9,1.1,1.4c0.3,0.5,0.6,0.9,1,1.3
				c0.6,0.9,1.2,1.8,1.8,2.6c2.2,3.4,4,6.5,5.4,9c2.9,5.1,4.5,8,4.5,8s-1.9-2.8-5.1-7.7c-1.6-2.4-3.5-5.4-5.9-8.7
				c-0.6-0.8-1.2-1.7-1.9-2.5c-0.3-0.4-0.7-0.8-1-1.3c-0.3-0.4-0.7-0.8-1.1-1.2c-1.5-1.7-3.2-3.3-5.1-4.9c-1.8-1.7-3.8-3.4-5.7-5.5
				c-1.9-2.1-3.6-4.5-4.7-7.4c-0.6-1.4-0.9-3-1.1-4.6c-0.1-0.8,0-1.8,0-2.4c0.1-0.9,0.3-1.7,0.5-2.5c1-3.2,3.1-5.9,5.3-8.3
				c4.6-4.6,9.7-8.6,15.2-12.4c5.5-3.7,11.3-7.1,17.1-10.4c5.8-3.3,11.6-6.5,17.1-10c1.4-0.8,2.7-1.7,4.1-2.6c1.3-0.9,2.7-1.8,4-2.7
				c2.5-1.8,4.9-3.7,6.1-5.9c1.4-2.2,1.6-5,2.3-8.2c0.3-1.5,0.7-3.1,1.2-4.6c0.6-1.5,1.1-2.9,1.9-4.3c2.8-5.4,6.9-9.7,11.3-12.7
				c4.4-3,9.2-4.5,13.4-5.2c4.3-0.6,8-0.4,11.1,0.1c3,0.5,5.3,1.3,6.9,2c0.8,0.3,1.3,0.6,1.7,0.7c0.1,0,0.1,0.1,0.2,0.3
				c0,0.2,0,0.4-0.1,0.6C348.8,246.5,348.7,246.8,348.7,246.8z"/>
		</g>
	</g>
</g>
</svg>
