<svg id="arrow-svg" xmlns="http://www.w3.org/2000/svg" viewBox="0 0 64 64">
	<defs>
		<style>
			.cls-1 {
				fill: none;
				stroke: #fff;
				stroke-miterlimit: 10;
				stroke-width: 2px;
			}
			.cls-2 {
				fill: #fff;
			}
		</style>
	</defs>
	<g id="arrow-button" class="svg-button">
		<circle id="outer" class="cls-1" cx="32" cy="32" r="16"/>
		<path id="inner" class="cls-2" d="M32,16A16,16,0,1,0,48,32,16,16,0,0,0,32,16Zm9.3,19H28.5l2.07,1.86a2.45,2.45,0,0,1,0,3.53,2.58,2.58,0,0,1-3.63,0l-6.5-6.55a2.59,2.59,0,0,1,0-3.58l6.5-6.53a2.57,2.57,0,0,1,3.63,0,2.94,2.94,0,0,1,0,3.92L28.49,30h12.8a2.44,2.44,0,0,1,2.56,2.51A2.5,2.5,0,0,1,41.3,35Z"/>
	</g>
</svg>