<svg id="back-arrow-svg" xmlns="http://www.w3.org/2000/svg" viewBox="0 0 420 420">
	<defs>
		<style>
			.cls-1 {
				fill: none;
				stroke: #fff;
				stroke-miterlimit: 10;
				stroke-width: 20px;
			}
			.cls-2 {
				fill: #fff;
			}
		</style>
	</defs>
	<g id="back-arrow-button" class="svg-button">
		<circle id="outer" class="cls-1" cx="210" cy="210" r="189.2"/>
		<path id="inner" class="cls-2" d="M210,20.8C105.51,20.8,20.8,105.51,20.8,210S105.51,399.2,210,399.2,399.2,314.49,399.2,210,314.49,20.8,210,20.8ZM319.92,247H168.56L193,268.23c11.78,11.78,11.66,29.51-.18,41.35s-31.19,11.15-43-.63L73,231.4A30.67,30.67,0,0,1,73,189l76.9-77.2a30.43,30.43,0,0,1,43,.16c11.84,11.84,12,34.37.18,46.21L168.5,186H319.86c18.31,0,30.24,13.9,30.24,30.62A30.32,30.32,0,0,1,319.92,247Z"/>
	</g>
</svg>