<svg id="back-arrow-svg" xmlns="http://www.w3.org/2000/svg" viewBox="0 0 64 64">
	<defs>
		<style>
			.cls-1 {
				fill: none;
				stroke: #fff;
				stroke-miterlimit: 10;
				stroke-width: 2px;
			}
			.cls-2 {
				fill: #fff;
			}
		</style>
	</defs>
	<g id="back-arrow-button" class="svg-button">
		<circle id="outer" class="cls-1" cx="32" cy="32" r="22.5"/>
		<path id="inner" class="cls-2" d="M32,9.5A22.5,22.5,0,1,0,54.5,32,22.5,22.5,0,0,0,32,9.5ZM45.07,36h-18L30,38.73a3.51,3.51,0,0,1,0,5,3.63,3.63,0,0,1-5.11,0l-9.15-9.2a3.62,3.62,0,0,1,0-5l9.15-9.18a3.62,3.62,0,0,1,5.11,0,4,4,0,0,1,0,5.42L27.06,29h18a3.41,3.41,0,0,1,3.6,3.51A3.5,3.5,0,0,1,45.07,36Z"/>
	</g>
</svg>