<svg id="follow-buttons-svg" xmlns="http://www.w3.org/2000/svg" xmlns:xlink="http://www.w3.org/1999/xlink" viewBox="0 0 2198.4 500">
	<defs>
		<style>
			.cls-1 {
				fill: none;
				stroke: #fff;
				stroke-miterlimit: 10;
				stroke-width: 20px;
			}
			.cls-2 {
				fill: #fff;
			}
		</style>
	</defs>
	<g id="blog-button" class="svg-button">
		<a class="link" xlink:href="https://ryanairth.blogspot.ie/">
			<circle id="blog" class="cls-1" cx="199.2" cy="199.2" r="189.2"/>
			<path class="cls-2" d="M199.2,10C94.71,10,10,94.71,10,199.2S94.71,388.4,199.2,388.4s189.2-84.71,189.2-189.2S303.69,10,199.2,10Zm2.63,301.53q-21.58,22.61-52,22.61-30.67,0-52.24-22.48T76,257.21V148.84q0-10.92,6.53-16.89a22.88,22.88,0,0,1,30.85,0q6.54,6,6.54,16.92V257.43a31.45,31.45,0,0,0,8.8,22.52A28.24,28.24,0,0,0,150,289.18q12.16,0,21.09-9.27A31.32,31.32,0,0,0,180,257.34q0-13.31-8.19-20.62t-22.22-7.31q-10.14,0-16.11-7-5.46-6-5.46-15.07a22.94,22.94,0,0,1,5.72-15.47q5.71-6.63,15.85-6.63,32.22,0,53,20.14t20.79,51.85Q223.41,288.93,201.83,311.53Zm49.08-71.07A82.25,82.25,0,0,0,226.86,182a81.31,81.31,0,0,0-58-24.13V124.14c63.88,0,115.85,52.18,115.85,116.33Zm59.67,0C310.58,161.94,247,98,168.89,98V64.26c96.75,0,175.47,79.06,175.47,176.24Z"/>
		</a>
	</g>
	<g id="github-button" class="svg-button">
		<a class="link" xlink:href="https://github.com/bogieman987">
			<circle id="github" class="cls-1" cx="649.2" cy="199.2" r="189.2"/>
			<path class="cls-2" d="M649.1,10C544.6,10,460,94.7,460,199.1c0,81.5,52.2,153.8,129.5,179.4l-0.2-0.1c9.4,1.8,12.9-4.1,12.9-9.1
				c0-4.5-0.2-19.4-0.3-35.2c-52.6,11.5-63.7-22.3-63.7-22.3c-8.6-21.9-21-27.7-21-27.7c-17.2-11.7,1.3-11.5,1.3-11.5
				c19,1.3,29,19.5,29,19.5c16.9,28.9,44.2,20.6,55,15.7c1.7-12.2,6.6-20.6,12-25.3c-42-4.8-86.1-21-86.1-93.4
				c0-20.6,7.4-37.5,19.5-50.7c-2-4.8-8.4-24,1.8-50c0,0,15.9-5.1,52,19.4c31-8.5,63.7-8.5,94.7,0c36.1-24.5,51.9-19.4,51.9-19.4
				c10.3,26.1,3.8,45.3,1.9,50c12.1,13.2,19.5,30.1,19.5,50.7c0,72.6-44.2,88.6-86.3,93.3c6.8,5.9,12.8,17.4,12.8,35
				c0,25.3-0.2,45.7-0.2,51.9c0,5,3.2,11.2,13,9.1c96.1-32,150.5-134.7,121.7-232.7C807,65.2,733.1,9.9,649.1,10L649.1,10z"/>
			<path class="cls-2" d="M563.2,315.2c-0.4,1.5,1,3.2,3.1,3.9s4.3,0,4.7-1.5c0.5-1.5-1-3.2-3.1-3.9C565.8,313,563.7,313.7,563.2,315.2
				z"/>
			<path class="cls-2" d="M551,305.9c-1,1.1-0.6,3.3,1,4.8c1.6,1.5,3.8,1.9,4.9,0.7s0.6-3.3-1-4.8C554.2,305.1,552.1,304.8,551,305.9z"
				/>
			<path class="cls-2" d="M542.5,294.8c-1.2,0.8-1.2,2.8,0,4.5c1.2,1.7,3.1,2.4,4.2,1.6s1.2-2.8,0-4.6
				C545.5,294.7,543.7,294,542.5,294.8z"/>
			<path class="cls-2" d="M534.9,285.2c-0.9,0.8-0.7,2.6,0.6,3.9c1.2,1.3,3,1.7,3.9,0.9s0.7-2.6-0.5-3.9
				C537.5,284.8,535.8,284.4,534.9,285.2z"/>
			<path class="cls-2" d="M526.7,279.2c-0.4,0.9,0.3,2.2,1.7,2.8c1.4,0.6,2.8,0.4,3.2-0.6c0.4-0.9-0.3-2.2-1.7-2.8
				C528.6,278,527.1,278.3,526.7,279.2z"/>
			<path class="cls-2" d="M596.4,314.2c-2.2,0.4-3.8,2-3.5,3.5c0.3,1.6,2.3,2.5,4.5,2.1c2.2-0.4,3.8-2,3.5-3.5
				C600.6,314.8,598.6,313.8,596.4,314.2z"/>
			<path class="cls-2" d="M578.4,318.8c0,1.5,1.9,2.8,4.1,2.7c2.3-0.1,4.1-1.3,4-2.9s-1.8-2.8-4.1-2.8S578.4,317.2,578.4,318.8z"/>
		</a>
	</g>
	<g id="linked-in-button" class="svg-button">
		<a class="link" xlink:href="https://www.linkedin.com/in/RyanAirth">
			<circle id="linkedIn" class="cls-1" cx="1099.2" cy="199.2" r="189.2"/>
			<path class="cls-2" d="M1099.2,10C994.71,10,910,94.71,910,199.2s84.71,189.2,189.2,189.2,189.2-84.71,189.2-189.2S1203.69,10,1099.2,10ZM1041,305.75H996.3V163.44H1041Zm-22-160.47A26.32,26.32,0,1,1,1045.31,119,26.32,26.32,0,0,1,1019,145.29Zm186.74,160.47h-44.65v-83.5c0-35.94-47.79-30-47.79,7.08v76.42h-44.52V163.44H1111v18.88c22.06-33.81,94.75-35.31,94.75,31.22Z"/>
		</a>		
	</g>
	<g id="twitter-button" class="svg-button">
		<a class="link" xlink:href="https://twitter.com/bogieman987">
			<circle id="twitter" class="cls-1" cx="1549.2" cy="199.2" r="189.2"/>
			<path class="cls-2" d="M1549.2,10C1444.71,10,1360,94.71,1360,199.2s84.71,189.2,189.2,189.2,189.2-84.71,189.2-189.2S1653.69,10,1549.2,10Zm118,144.45c0,3.25,0,6.4,0,9.55a150.73,150.73,0,0,1-2.68,26.3,166.93,166.93,0,0,1-16.94,48.05,161.88,161.88,0,0,1-25.25,35.14A150.46,150.46,0,0,1,1577.85,306a152.88,152.88,0,0,1-39.21,12.62,175.93,175.93,0,0,1-28.59,2.7,155.91,155.91,0,0,1-69.11-14.6c-6.21-2.89-12.1-6.48-18.14-9.76-.34-.19-.65-.44-1.17-.8,30.67,3.08,58.1-4.46,82.5-23A57,57,0,0,1,1472,261.77,55.69,55.69,0,0,1,1452.2,234c11.89,1.26,17.72,1,25-1a56,56,0,0,1-32.37-19.93c-8.34-10.39-12.3-22.33-12.38-35.85a57,57,0,0,0,25.25,7c-12.14-8.61-20.06-19.81-23.31-34.06s-1.11-27.83,6.09-40.75c30.33,35.76,68.69,55.41,115.62,58.65-3.16-15.21-1-29.29,7-42.32,5.71-9.34,13.47-16.66,23.49-21.08,24.41-10.77,46.13-6,65.56,12.06a110.05,110.05,0,0,0,18-5.2,115.55,115.55,0,0,0,17.33-8.38A57.3,57.3,0,0,1,1663.55,134a79.82,79.82,0,0,0,15.86-3.07c5.13-1.56,10.19-3.38,15.35-5.11A114.74,114.74,0,0,1,1667.17,154.45Z"/>
		</a>	
	</g>
	<g id="google-plus-button" class="svg-button">
		<a class="link" xlink:href="https://plus.google.com/u/0/+RyanAirth987">
			<circle id="googlePlus" class="cls-1" cx="1999.2" cy="199.2" r="189.2"/>
			<path class="cls-2" d="M1999.2,10C1894.71,10,1810,94.71,1810,199.2s84.71,189.2,189.2,189.2,189.2-84.71,189.2-189.2S2103.69,10,1999.2,10ZM1944,313.37A106.55,106.55,0,1,1,2015.74,128c-22.3,21.06-21.57,22.31-30.33,31.07-10.95-9.06-22.89-15.55-41.37-15.55-35,0-62.24,28.34-62.24,63.3s27.28,63.3,62.24,63.3c34.54,0,48.58-14.9,57.61-42.25-16.67,0-57.61.05-57.61.05v-42.2h102.33C2053.5,236.78,2032,313.37,1944,313.37Zm194.24-93.6v30.7h-30.94v-30.7h-30.7V188.83h30.7V159.08h30.94v29.75H2168v30.94Z"/>
		</a>		
	</g>	
</svg>