<svg id="follow-buttons-svg" xmlns="http://www.w3.org/2000/svg" xmlns:xlink="http://www.w3.org/1999/xlink" viewBox="0 0 2198.4 500">
	<defs>
		<style>
			.cls-1 {
				fill: none;
				stroke: #fff;
				stroke-miterlimit: 10;
				stroke-width: 20px;
			}
			.cls-2 {
				fill: #fff;
			}
		</style>
	</defs>
	<g id="google-plus-button" class="follow-button">
		<a class="link" xlink:href="https://plus.google.com/u/0/+RyanAirth987">
			<circle id="googlePlus" class="cls-1" cx="1999.2" cy="199.2" r="189.2"/>
			<path class="cls-2" d="M1999.2,10C1894.71,10,1810,94.71,1810,199.2s84.71,189.2,189.2,189.2,189.2-84.71,189.2-189.2S2103.69,10,1999.2,10ZM1944,313.37A106.55,106.55,0,1,1,2015.74,128c-22.3,21.06-21.57,22.31-30.33,31.07-10.95-9.06-22.89-15.55-41.37-15.55-35,0-62.24,28.34-62.24,63.3s27.28,63.3,62.24,63.3c34.54,0,48.58-14.9,57.61-42.25-16.67,0-57.61.05-57.61.05v-42.2h102.33C2053.5,236.78,2032,313.37,1944,313.37Zm194.24-93.6v30.7h-30.94v-30.7h-30.7V188.83h30.7V159.08h30.94v29.75H2168v30.94Z"/>
		</a>		
	</g>
	<g id="twitter-button" class="follow-button">
		<a class="link" xlink:href="https://twitter.com/bogieman987">
			<circle id="twitter" class="cls-1" cx="1549.2" cy="199.2" r="189.2"/>
			<path class="cls-2" d="M1549.2,10C1444.71,10,1360,94.71,1360,199.2s84.71,189.2,189.2,189.2,189.2-84.71,189.2-189.2S1653.69,10,1549.2,10Zm118,144.45c0,3.25,0,6.4,0,9.55a150.73,150.73,0,0,1-2.68,26.3,166.93,166.93,0,0,1-16.94,48.05,161.88,161.88,0,0,1-25.25,35.14A150.46,150.46,0,0,1,1577.85,306a152.88,152.88,0,0,1-39.21,12.62,175.93,175.93,0,0,1-28.59,2.7,155.91,155.91,0,0,1-69.11-14.6c-6.21-2.89-12.1-6.48-18.14-9.76-.34-.19-.65-.44-1.17-.8,30.67,3.08,58.1-4.46,82.5-23A57,57,0,0,1,1472,261.77,55.69,55.69,0,0,1,1452.2,234c11.89,1.26,17.72,1,25-1a56,56,0,0,1-32.37-19.93c-8.34-10.39-12.3-22.33-12.38-35.85a57,57,0,0,0,25.25,7c-12.14-8.61-20.06-19.81-23.31-34.06s-1.11-27.83,6.09-40.75c30.33,35.76,68.69,55.41,115.62,58.65-3.16-15.21-1-29.29,7-42.32,5.71-9.34,13.47-16.66,23.49-21.08,24.41-10.77,46.13-6,65.56,12.06a110.05,110.05,0,0,0,18-5.2,115.55,115.55,0,0,0,17.33-8.38A57.3,57.3,0,0,1,1663.55,134a79.82,79.82,0,0,0,15.86-3.07c5.13-1.56,10.19-3.38,15.35-5.11A114.74,114.74,0,0,1,1667.17,154.45Z"/>
		</a>	
	</g>
	<g id="linked-in-button" class="follow-button">
		<a class="link" xlink:href="https://www.linkedin.com/in/RyanAirth">
			<circle id="linkedIn" class="cls-1" cx="1099.2" cy="199.2" r="189.2"/>
			<path class="cls-2" d="M1099.2,10C994.71,10,910,94.71,910,199.2s84.71,189.2,189.2,189.2,189.2-84.71,189.2-189.2S1203.69,10,1099.2,10ZM1041,305.75H996.3V163.44H1041Zm-22-160.47A26.32,26.32,0,1,1,1045.31,119,26.32,26.32,0,0,1,1019,145.29Zm186.74,160.47h-44.65v-83.5c0-35.94-47.79-30-47.79,7.08v76.42h-44.52V163.44H1111v18.88c22.06-33.81,94.75-35.31,94.75,31.22Z"/>
		</a>		
	</g>
	<g id="github-button" class="follow-button">
		<a class="link" xlink:href="https://github.com/bogieman987">
			<circle id="github" class="cls-1" cx="649.2" cy="199.2" r="189.2"/>
			<path class="cls-2" d="M648.65,17.5a181.17,181.17,0,0,0-57.11,353.1l-.16-.06c9.05,1.68,12.38-3.93,12.38-8.72,0-4.32-.17-18.59-.25-33.73-50.4,11-61-21.37-61-21.37-8.24-20.94-20.11-26.51-20.11-26.51-16.44-11.24,1.24-11,1.24-11,18.19,1.28,27.77,18.67,27.77,18.67,16.16,27.69,42.38,19.69,52.72,15.06,1.63-11.71,6.32-19.7,11.5-24.22-40.24-4.58-82.54-20.11-82.54-89.52,0-19.78,7.08-35.94,18.67-48.62-1.88-4.56-8.08-23,1.75-47.94,0,0,15.21-4.87,49.83,18.57a171.77,171.77,0,0,1,90.72,0c34.58-23.44,49.77-18.57,49.77-18.57,9.86,25,3.66,43.38,1.78,47.94,11.62,12.69,18.64,28.85,18.64,48.62,0,69.58-42.38,84.9-82.72,89.38,6.5,5.62,12.29,16.65,12.29,33.55,0,24.24-.21,43.75-.21,49.71,0,4.82,3.26,10.47,12.44,8.69q-3.06,1-6.17,1.93a181.17,181.17,0,0,0-51.19-355Z"/>
			<path class="cls-2" d="M566.37,309.88c-.41,1.43.93,3.09,3,3.71s4.09,0,4.53-1.46-.92-3.09-3-3.71S566.8,308.45,566.37,309.88Z"/>
			<path class="cls-2" d="M554.69,301c-1,1.1-.55,3.17,1,4.63s3.66,1.79,4.66.69.58-3.17-1-4.63S555.7,299.87,554.69,301Z"/>
			<path class="cls-2" d="M546.57,290.33c-1.14.77-1.14,2.71,0,4.32s2.94,2.33,4,1.56,1.13-2.72,0-4.36S547.69,289.55,546.57,290.33Z"/>
			<path class="cls-2" d="M539.22,281.17c-.88.81-.66,2.5.53,3.76s2.84,1.64,3.7.84.67-2.49-.52-3.76S540.11,280.37,539.22,281.17Z"/>
			<path class="cls-2" d="M531.38,275.42c-.42.9.31,2.13,1.63,2.72s2.71.35,3.11-.55-.3-2.14-1.61-2.73S531.77,274.5,531.38,275.42Z"/>
			<path class="cls-2" d="M598.16,308.89c-2.1.39-3.62,1.88-3.36,3.38s2.21,2.35,4.32,2,3.64-1.9,3.38-3.35S600.31,308.52,598.16,308.89Z"/>
			<path class="cls-2" d="M580.92,313.35c0,1.47,1.78,2.68,3.94,2.63s3.89-1.27,3.84-2.76-1.77-2.68-3.92-2.64S580.92,311.84,580.92,313.35Z"/>
		</a>
	</g>
	<g id="blog-button" class="follow-button">
		<a class="link" xlink:href="https://ryanairth.blogspot.ie/">
			<circle id="blog" class="cls-1" cx="199.2" cy="199.2" r="189.2"/>
			<path class="cls-2" d="M199.2,10C94.71,10,10,94.71,10,199.2S94.71,388.4,199.2,388.4s189.2-84.71,189.2-189.2S303.69,10,199.2,10Zm2.63,301.53q-21.58,22.61-52,22.61-30.67,0-52.24-22.48T76,257.21V148.84q0-10.92,6.53-16.89a22.88,22.88,0,0,1,30.85,0q6.54,6,6.54,16.92V257.43a31.45,31.45,0,0,0,8.8,22.52A28.24,28.24,0,0,0,150,289.18q12.16,0,21.09-9.27A31.32,31.32,0,0,0,180,257.34q0-13.31-8.19-20.62t-22.22-7.31q-10.14,0-16.11-7-5.46-6-5.46-15.07a22.94,22.94,0,0,1,5.72-15.47q5.71-6.63,15.85-6.63,32.22,0,53,20.14t20.79,51.85Q223.41,288.93,201.83,311.53Zm49.08-71.07A82.25,82.25,0,0,0,226.86,182a81.31,81.31,0,0,0-58-24.13V124.14c63.88,0,115.85,52.18,115.85,116.33Zm59.67,0C310.58,161.94,247,98,168.89,98V64.26c96.75,0,175.47,79.06,175.47,176.24Z"/>
		</a>
	</g>
</svg>