<svg id="follow-buttons-svg" xmlns="http://www.w3.org/2000/svg" xmlns:xlink="http://www.w3.org/1999/xlink" viewBox="0 0 400 100">
	<defs>
		<style>
			.cls-1 {
				fill:none;
				stroke:#fff;
				stroke-miterlimit:10;
				stroke-width:2px;
			}
			.cls-2 {
				fill:#fff;
			}
		</style>
	</defs>
	<g id="blog-button" class="svg-button">
		<a class="link" xlink:href="https://ryanairth.blogspot.ie/">
			<circle id="blog" class="cls-1" cx="47.78" cy="40.88" r="32"/>
			<path class="cls-2" d="M47.78,8.88a32,32,0,1,0,32,32A32,32,0,0,0,47.78,8.88Zm.45,51a12.09,12.09,0,0,1-17.63,0,12.81,12.81,0,0,1-3.65-9.21V32.36a3.68,3.68,0,0,1,1.11-2.86,3.87,3.87,0,0,1,5.22,0,3.69,3.69,0,0,1,1.11,2.86V50.73a5.32,5.32,0,0,0,1.49,3.81,4.87,4.87,0,0,0,7.16,0,5.3,5.3,0,0,0,1.51-3.82,4.43,4.43,0,0,0-1.38-3.49A5.44,5.44,0,0,0,39.39,46a3.4,3.4,0,0,1-2.73-1.19,3.63,3.63,0,0,1-.92-2.55,3.88,3.88,0,0,1,1-2.62,3.35,3.35,0,0,1,2.68-1.12,12.36,12.36,0,0,1,9,3.41,11.67,11.67,0,0,1,3.52,8.77A12.84,12.84,0,0,1,48.23,59.88Zm8.3-12A13.91,13.91,0,0,0,52.46,38a13.75,13.75,0,0,0-9.81-4.08V28.19A19.66,19.66,0,0,1,62.24,47.86Zm10.09,0a24.06,24.06,0,0,0-24-24.1V18.06A29.78,29.78,0,0,1,72.33,47.87Z"/>
		</a>
	</g>
	<g id="github-button" class="svg-button">
		<a class="link" xlink:href="https://github.com/bogieman987">
			<circle id="github" class="cls-1" cx="123.89" cy="40.88" r="32"/>
			<path class="cls-2" d="M123.8,8.82a32,32,0,0,0-10.09,62.38h0c1.6.3,2.19-.69,2.19-1.54s0-3.28,0-6c-8.9,1.94-10.78-3.78-10.78-3.78-1.46-3.7-3.55-4.68-3.55-4.68-2.9-2,.22-1.95.22-1.95,3.21.23,4.91,3.3,4.91,3.3,2.85,4.89,7.49,3.48,9.31,2.66A6.81,6.81,0,0,1,118,55c-7.11-.81-14.58-3.55-14.58-15.81a12.38,12.38,0,0,1,3.3-8.59,11.5,11.5,0,0,1,.31-8.47s2.69-.86,8.8,3.28a30.34,30.34,0,0,1,16,0c6.11-4.14,8.79-3.28,8.79-3.28a11.49,11.49,0,0,1,.31,8.47,12.36,12.36,0,0,1,3.29,8.59c0,12.29-7.49,15-14.61,15.79,1.15,1,2.17,2.94,2.17,5.93,0,4.28,0,7.73,0,8.78,0,.85.57,1.84,2.18,1.54l.22-.06c13.15-4,21.66-15.84,21.66-30.3A32,32,0,0,0,123.8,8.82Z"/>
			<ellipse class="cls-2" cx="109.93" cy="60.67" rx="0.48" ry="0.69" transform="translate(20.18 148.47) rotate(-73.27)"/>
			<path class="cls-2" d="M107.2,58.89a.62.62,0,0,0,.18.82c.27.26.65.32.82.12s.1-.56-.18-.82S107.38,58.7,107.2,58.89Z"/>
			<ellipse class="cls-2" cx="106.12" cy="57.53" rx="0.44" ry="0.63" transform="matrix(0.83, -0.56, 0.56, 0.83, -13.95, 69.97)"/>
			<ellipse class="cls-2" cx="104.84" cy="55.8" rx="0.38" ry="0.55" transform="translate(-10.11 85.67) rotate(-42.59)"/>
			<path class="cls-2" d="M103.08,54.38c-.08.16.05.38.29.48s.48.06.55-.1-.05-.38-.28-.48S103.15,54.21,103.08,54.38Z"/>
			<path class="cls-2" d="M114.88,60.29c-.37.07-.64.33-.59.6s.39.41.76.35.64-.33.6-.59S115.26,60.22,114.88,60.29Z"/>
			<path class="cls-2" d="M111.83,61.08c0,.26.31.47.7.46s.69-.22.68-.49-.31-.47-.69-.47S111.83,60.81,111.83,61.08Z"/>
		</a>
	</g>
	<g id="linked-in-button" class="svg-button">
		<a class="link" xlink:href="https://www.linkedin.com/in/RyanAirth">
			<circle id="linkedIn" class="cls-1" cx="200" cy="40.88" r="32"/>
			<path class="cls-2" d="M200,8.88a32,32,0,1,0,32,32A32,32,0,0,0,200,8.88Zm-9.85,50H182.6V34.83h7.55Zm-3.71-27.14a4.45,4.45,0,1,1,4.45-4.45A4.45,4.45,0,0,1,186.43,31.76ZM218,58.9h-7.55V44.78c0-6.08-8.08-5.07-8.08,1.2V58.9h-7.53V34.83H202V38c3.73-5.72,16-6,16,5.28Z"/>
		</a>
	</g>
	<g id="twitter-button" class="svg-button">
		<a class="link" xlink:href="https://twitter.com/bogieman987">
			<circle id="twitter" class="cls-1" cx="276.11" cy="40.88" r="32"/>
			<path class="cls-2" d="M276.11,8.88a32,32,0,1,0,32,32A32,32,0,0,0,276.11,8.88Zm20,24.43c0,.55,0,1.08,0,1.62a25.49,25.49,0,0,1-.45,4.45,28.23,28.23,0,0,1-2.86,8.13,27.38,27.38,0,0,1-4.27,5.94,25.45,25.45,0,0,1-7.52,5.5,25.86,25.86,0,0,1-6.63,2.13,29.76,29.76,0,0,1-4.83.46,26.37,26.37,0,0,1-11.69-2.47c-1.05-.49-2-1.1-3.07-1.65l-.2-.13a19.06,19.06,0,0,0,14-3.9,9.64,9.64,0,0,1-5.43-1.92,9.42,9.42,0,0,1-3.35-4.69,10.13,10.13,0,0,0,4.23-.17,9.54,9.54,0,0,1-7.57-9.43,9.63,9.63,0,0,0,4.27,1.19,9.54,9.54,0,0,1-2.91-12.65,27.11,27.11,0,0,0,19.56,9.92,9.51,9.51,0,0,1,1.18-7.16,8.8,8.8,0,0,1,4-3.56c4.13-1.82,7.8-1,11.09,2a18.61,18.61,0,0,0,3-.88,19.54,19.54,0,0,0,2.93-1.42,9.69,9.69,0,0,1-4,5.22,13.5,13.5,0,0,0,2.68-.52c.87-.26,1.72-.57,2.6-.86A19.41,19.41,0,0,1,296.06,33.31Z"/>
		</a>
	</g>
	<g id="google-plus-button" class="svg-button">
		<a class="link" xlink:href="https://plus.google.com/u/0/+RyanAirth987">
			<circle id="googlePlus" class="cls-1" cx="352.22" cy="40.88" r="32"/>
			<path class="cls-2" d="M352.22,8.88a32,32,0,1,0,32,32A32,32,0,0,0,352.22,8.88Zm-9.33,51.31A18,18,0,1,1,355,28.84c-3.77,3.56-3.65,3.77-5.13,5.26a10.21,10.21,0,0,0-7-2.63,10.71,10.71,0,0,0,0,21.41c5.84,0,8.22-2.52,9.74-7.15h-9.74V38.6H360.2C361.4,47.24,357.77,60.19,342.89,60.19Zm32.85-15.83v5.19h-5.23V44.36h-5.19V39.13h5.19v-5h5.23v5h5v5.23Z"/>
		</a>
	</g>
</svg>