<svg id="interactiveFooter" xmlns="http://www.w3.org/2000/svg" xmlns:xlink="http://www.w3.org/1999/xlink" viewBox="0 0 5264 1107.3">
	<defs>
		<style>
			.cls-1, .cls-2, .cls-3, .cls-4, .cls-5 {
				fill: none;
				stroke: #fff;
				stroke-miterlimit: 10;
			}
			.cls-1 {
				stroke-width: 20px;
			}
			.cls-2 {
				stroke-width: 7px;
			}
			.cls-3 {
				stroke-linejoin:round;
				stroke-width: 2px;
			}
			.cls-4 {
				stroke-width: 3px;
			}
			.cls-5 {
				stroke-width: 6px;
			}
			.cls-6 {
				fill: #fff;
			}
		</style>
	</defs>
	<title>GlobeInteractiveFooter</title>
	<g id="circle">
		<path id="circleLeft" class="cls-1" d="M2632.35,1097.3c-300.2,0-543.6-243.4-543.6-543.7S2332.15,10,2632.35,10"/>
		<path id="circleRight" class="cls-1" d="M2632.35,10c300.2,0,543.6,243.4,543.6,543.6s-243.4,543.6-543.6,543.6"/>
	</g>
	<path id="rightLine" class="cls-1" d="M3158.63,690.22h952.12l216.11-216.11h530.56l227.11,227.11H5264"/>
	<path id="leftLine" class="cls-1" d="M2142.11,788.8H1158.25L689,214H0"/>
	<g id="buttonLines">
		<path class="cls-1" d="M3480.37,690.22V600.3"/>
		<path class="cls-1" d="M4220.36,580.61,4110.52,470.77"/>
		<path class="cls-1" d="M4581.45,474.11V611"/>
		<path class="cls-1" d="M891,461.45,776.27,576.19"/>
		<path class="cls-1" d="M1624,788.8c-1-9.06,0-160.48,0-182.35"/>
	</g>
	<g id="blogButton" class="headerButton">
		<a class="link" xlink:href="https://ryanairth.blogspot.ie/">
			<circle id="blog" class="cls-1" cx="643.74" cy="710.53" r="189.2"/>
			<path class="cls-6" d="M643.74,521.33c-104.49,0-189.2,84.71-189.2,189.2s84.71,189.2,189.2,189.2,189.2-84.71,189.2-189.2S748.23,521.33,643.74,521.33Zm2.63,301.53q-21.58,22.61-52,22.61-30.67,0-52.24-22.48t-21.57-54.45V660.17q0-10.92,6.53-16.89a22.88,22.88,0,0,1,30.85,0q6.54,6,6.54,16.92V768.76a31.45,31.45,0,0,0,8.8,22.52,28.24,28.24,0,0,0,21.22,9.24q12.16,0,21.09-9.27a31.32,31.32,0,0,0,8.93-22.58q0-13.31-8.19-20.62t-22.22-7.31q-10.14,0-16.11-7-5.46-6-5.46-15.07a22.94,22.94,0,0,1,5.72-15.47q5.71-6.63,15.85-6.63,32.22,0,53,20.14t20.79,51.85Q667.95,800.26,646.37,822.87Zm49.08-71.07a82.25,82.25,0,0,0-24.05-58.41,81.31,81.31,0,0,0-58-24.13V635.47c63.88,0,115.85,52.18,115.85,116.33H695.45Zm59.67,0c0-78.55-63.56-142.46-141.69-142.46V575.59c96.75,0,175.47,79.06,175.47,176.24H755.12Z"/>
		</a>
	</g>
	<g id="githubButton" class="headerButton">
		<a class="link" xlink:href="https://github.com/bogieman987">
			<circle id="github" class="cls-1" cx="1623.6" cy="417.25" r="189.2"/>
			<path class="cls-6" d="M1623.05,235.55a181.17,181.17,0,0,0-57.11,353.1l-0.16-.06c9.05,1.68,12.38-3.93,12.38-8.72,0-4.32-.17-18.59-0.25-33.73-50.4,11-61-21.37-61-21.37-8.24-20.94-20.11-26.51-20.11-26.51-16.44-11.24,1.24-11,1.24-11,18.19,1.28,27.77,18.67,27.77,18.67,16.16,27.69,42.38,19.69,52.72,15.06,1.63-11.71,6.32-19.7,11.5-24.22-40.24-4.58-82.54-20.11-82.54-89.52,0-19.78,7.08-35.94,18.67-48.62-1.88-4.56-8.08-23,1.75-47.94,0,0,15.21-4.87,49.83,18.57a171.77,171.77,0,0,1,90.72,0c34.58-23.44,49.77-18.57,49.77-18.57,9.86,25,3.66,43.38,1.78,47.94,11.62,12.69,18.64,28.85,18.64,48.62,0,69.58-42.38,84.9-82.72,89.38,6.5,5.62,12.29,16.65,12.29,33.55,0,24.24-.21,43.75-0.21,49.71,0,4.82,3.26,10.47,12.44,8.69q-3.06,1-6.17,1.93A181.17,181.17,0,0,0,1623.05,235.55Z"/>
			<path class="cls-6" d="M1540.77,527.93c-0.41,1.43.93,3.09,3,3.71s4.09,0,4.53-1.46-0.92-3.09-3-3.71S1541.2,526.5,1540.77,527.93Z"/>
			<path class="cls-6" d="M1529.09,519c-1,1.1-.55,3.17,1,4.63s3.66,1.79,4.66.69,0.58-3.17-1-4.63S1530.1,517.92,1529.09,519Z"/>
			<path class="cls-6" d="M1521,508.38c-1.14.77-1.14,2.71,0,4.32s2.94,2.33,4,1.56,1.13-2.72,0-4.36S1522.09,507.6,1521,508.38Z"/>
			<path class="cls-6" d="M1513.62,499.22c-0.88.81-.66,2.5,0.53,3.76s2.84,1.64,3.7.84,0.67-2.49-.52-3.76S1514.51,498.42,1513.62,499.22Z"/>
			<path class="cls-6" d="M1505.78,493.47c-0.42.9,0.31,2.13,1.63,2.72s2.71,0.35,3.11-.55-0.3-2.14-1.61-2.73S1506.17,492.55,1505.78,493.47Z"/>
			<path class="cls-6" d="M1572.57,526.94c-2.1.39-3.62,1.88-3.36,3.38s2.21,2.35,4.32,2,3.64-1.9,3.38-3.35S1574.71,526.57,1572.57,526.94Z"/>
			<path class="cls-6" d="M1555.32,531.4c0,1.47,1.78,2.68,3.94,2.63s3.89-1.27,3.84-2.76-1.77-2.68-3.92-2.64S1555.32,529.89,1555.32,531.4Z"/>	
		</a>					
	</g>
	<g id="linkedInButton" class="headerButton">
		<a class="link" xlink:href="https://www.linkedin.com/in/RyanAirth">
			<circle id="linkedIn" class="cls-1" cx="3480.37" cy="411.1" r="189.2"/>
			<path class="cls-6" d="M3480.37,221.9c-104.49,0-189.2,84.71-189.2,189.2s84.71,189.2,189.2,189.2,189.2-84.71,189.2-189.2S3584.86,221.9,3480.37,221.9Zm-58.25,295.75h-44.65V375.34h44.65V517.65Zm-22-160.47a26.32,26.32,0,1,1,26.32-26.32A26.32,26.32,0,0,1,3400.16,357.19ZM3586.9,517.65h-44.65v-83.5c0-35.94-47.79-30-47.79,7.08v76.42h-44.52V375.34h42.2v18.88c22.06-33.81,94.75-35.31,94.75,31.22v92.21Z"/>
		</a>	
	</g>
	<g id="twitterButton" class="headerButton">
		<a class="link" xlink:href="https://twitter.com/bogieman987">
			<circle id="twitter" class="cls-1" cx="3971.2" cy="329.18" r="189.2"/>
			<path class="cls-6" d="M3971.2,140c-104.49,0-189.2,84.71-189.2,189.2s84.71,189.2,189.2,189.2,189.2-84.71,189.2-189.2S4075.69,140,3971.2,140Zm118,144.45c0,3.25,0,6.4,0,9.55a150.73,150.73,0,0,1-2.68,26.3,166.93,166.93,0,0,1-16.94,48.05,161.88,161.88,0,0,1-25.25,35.14A150.46,150.46,0,0,1,3999.85,436a152.88,152.88,0,0,1-39.21,12.62,175.93,175.93,0,0,1-28.59,2.7,155.91,155.91,0,0,1-69.11-14.6c-6.21-2.89-12.1-6.48-18.14-9.76-0.34-.19-0.65-0.44-1.17-0.8,30.67,3.08,58.1-4.46,82.5-23A57,57,0,0,1,3894,391.75,55.69,55.69,0,0,1,3874.2,364c11.89,1.26,17.72,1,25-1a56,56,0,0,1-32.37-19.93c-8.34-10.39-12.3-22.33-12.38-35.85a57,57,0,0,0,25.25,7c-12.14-8.61-20.06-19.81-23.31-34.06s-1.11-27.83,6.09-40.75c30.33,35.76,68.69,55.41,115.62,58.65-3.16-15.21-1-29.29,7-42.32,5.71-9.34,13.47-16.66,23.49-21.08,24.41-10.77,46.13-6,65.56,12.06a110.05,110.05,0,0,0,18-5.2,115.55,115.55,0,0,0,17.33-8.38A57.3,57.3,0,0,1,4085.55,264a79.82,79.82,0,0,0,15.86-3.07c5.13-1.56,10.19-3.38,15.35-5.11A114.74,114.74,0,0,1,4089.17,284.43Z"/>
		</a>			
	</g>
	<g id="googlePlusButton" class="headerButton">
		<a class="link" xlink:href="https://plus.google.com/u/0/+RyanAirth987">
			<circle id="googlePlus" class="cls-1" cx="4581.45" cy="800.16" r="189.2"/>
			<path class="cls-6" d="M4581.45,611c-104.49,0-189.2,84.71-189.2,189.2s84.71,189.2,189.2,189.2,189.2-84.71,189.2-189.2S4685.94,611,4581.45,611Zm-55.17,303.37A106.55,106.55,0,1,1,4598,729c-22.3,21.06-21.57,22.31-30.33,31.07-10.95-9.06-22.89-15.55-41.37-15.55-35,0-62.24,28.34-62.24,63.3s27.28,63.3,62.24,63.3c34.54,0,48.58-14.9,57.61-42.25-16.67,0-57.61.05-57.61,0.05v-42.2h102.33C4635.75,837.74,4614.25,914.33,4526.29,914.33Zm194.24-93.6v30.7h-30.94v-30.7h-30.7V789.79h30.7V760h30.94v29.75h29.75v30.94h-29.75Z"/>
		</a>
	</g>	
	<g id="globe">
		<g id="coast">
			<line class="cls-3" x1="3158.28" y1="523.45" x2="3157.14" y2="529.53"/>
			<path class="cls-3" d="M2574.18,267.35Z"/>
			<path class="cls-3" d="M2633,695.2Z"/>
			<path class="cls-3" d="M2331.49,809.15c-2.41,1.1-2.81,1.45,0,.57"/>
			<path class="cls-3" d="M2789.11,116.76a31.09,31.09,0,0,1,3-1.85A20.65,20.65,0,0,0,2789.11,116.76Z"/>
			<path class="cls-3" d="M2616.75,524.67c0,.6-.31-4.44-.44-6Q2616.53,521.67,2616.75,524.67Z"/>
			<path class="cls-3" d="M2592.28,521.09c0-1.53,1.59-2.09,0,0Z"/>
			<path class="cls-3" d="M2792.11,114.92a16.2,16.2,0,0,0,2.93-1.21A26.21,26.21,0,0,1,2792.11,114.92Z"/>
			<path class="cls-3" d="M2640.14,552.6a46.24,46.24,0,0,0-.87-6.64,26.82,26.82,0,0,0-2.68,6.64Z"/>
			<path class="cls-3" d="M2629.29,506.26l-2.86-4.92C2627.37,503,2628.33,504.62,2629.29,506.26Z"/>
			<line class="cls-3" x1="2633.72" y1="556.82" x2="2633.78" y2="556.82"/>
			<path class="cls-3" d="M2592.31,520.94c.05-.24.61-2.6,0,0Z"/>
			<path class="cls-3" d="M2579.61,533.17c1.31-2.36-2.4-4.6,2.94-4.27-5.18-.53-3.46-1.08-7.11,3.06l3-1.85Z"/>
			<line class="cls-3" x1="2267.4" y1="316.75" x2="2267.96" y2="316.12"/>
			<path class="cls-3" d="M2455.56,184.19c-.86-.61.75-3.33-3.56-.57Z"/>
			<path class="cls-3" d="M2107.71,488.18c.27-2.22.71-4.44,1.06-6.65-2.06,3-2.3,7.47-2.25,11.5A31,31,0,0,0,2107.71,488.18Z"/>
			<path class="cls-3" d="M2128.11,706.51c.45,2,1,4,1.56,6C2129.64,709.84,2129,709.39,2128.11,706.51Z"/>
			<path class="cls-3" d="M2337.42,265.69l3.56-3.06C2337.38,261.77,2338.77,263.6,2337.42,265.69Z"/>
			<path class="cls-3" d="M2295.86,128.34l-2.25,1.91C2294.93,129.83,2295.22,129,2295.86,128.34Z"/>
			<path class="cls-3" d="M2536.87,70.56h2.93C2538.16,68.57,2538.24,70.21,2536.87,70.56Z"/>
			<path class="cls-3" d="M2127.92,706.06Z"/>
			<path class="cls-3" d="M2127.92,707.65c-.34-1.54-.22-2.81-1.19-4.28Z"/>
			<path class="cls-3" d="M2199.69,260.19Z"/>
			<path class="cls-3" d="M2198.5,263.45Z"/>
			<path class="cls-3" d="M2409.24,195.77l3-3.07C2409.4,192.78,2410.41,194.09,2409.24,195.77Z"/>
			<path class="cls-3" d="M2396.77,244.4l.62-3.06C2392.8,243.75,2396.17,243,2396.77,244.4Z"/>
			<path class="cls-3" d="M2399.13,232.84l2.38,3.06c2.05-5,18.19-12.7,15.48-17.06,2.19-.59,4.26-2,6.49-2.42-5.95-.51-13.19.73-17.22-4.22.37,4.18-1.66,6.33-5.93,6.64,2.5,1.8,4.06,4.89,6.55,6.71A12.46,12.46,0,0,0,2399.13,232.84Z"/>
			<path class="cls-3" d="M2585.55,300.33c2.26-1,4.56-3.38,6.55-4.86-3.39-3.93-3.52-3.49-7.74-1.21-1.86-3.54-2.42-4.94-1.18-7.93-2.13-1.44-1.37-1.46-3.37-4.21,3.26,2,4,.87,8.12,1.21l-3.56-4.28,3.56-1.8-11.29-5.5c4.59-1.14,8.54.8,11.85,4.28-3.63-5.48-5.79-13.24-12.85-6.77.45-1.82.66-4.15,1.62-6h-3.56c.2,1.39.78,3.45.56,4.86a37.8,37.8,0,0,1-2.37-4.86c-1.79-.65-2.34-1.4-4.12-4.28-5.43-3.3-8.44-11-16.66-6.64l1.18-2.43-4.12,1.21,3.56-1.85a13.31,13.31,0,0,0-10.11-2.42l1.18,4.27c-2.82-.34-7.63.1-10.11-1.21-1.84-1-.39-5.35-4.43-7-5.59-2.33-12.31,1-9.18,8.83l-3,.64v-4.92l-1.19,4.92c.12-2.84-.55-5.72-.56-8.57-.66,2.36-2.66,4.42-3.55,6.71l-2.44-3.06c-2.31,2-4,3.6-4.74,6.71l3-1.79c-2.69,5.42,2.53,7-1.22,14-2.25,4.16-9.7,11.29-14.19,11,1.69,4.25-9.74,6.33-12.49,12.15l-1.18-3.07c-2,1.52,0,1.31-4.18,2.43l3.56,1.21c-1.66-1-4.11-1.12-5.93-1.79a19.27,19.27,0,0,0-.57,6.07c2.39-1.06,5.5-1.64,7.68-3.07-3.74,3-3.32,2.69-4.68,6.13L2471,296l1.18,2.43c-1.9,1.13-.82-.11-2.94,0l1.44,1.47c-.55,0-.81-.6-1.44-.83-.1,1,.15,1.68-.31,2.49.84-.67-3.48,3-5.05,4.79,2.13-3.78,2.24-7.78-.56-10.93-5.44,6.94,2.68,15.7-8.93,14.57l.56,3.06-2.37.58,1.18-3c-5,3-7.53,2.83-9.49,7.28-.07-3.23-.58-6.47-.56-9.71l-.62,4.85c-2.44-4.89-.22-2.05-5.93-3.06,2.16,1.35,4.26,3.17,6.55,4.28l-2.37-1.22a54.07,54.07,0,0,1,2.93,5.44l-7.67-8.5c.76,2.37.93,4.94,1.74,7.28-1.07-2.16-2.92-4-4.12-6.07.14,2-.68,4.06-.62,6.07l-3-3V318l-1.19-3.64c-2.58,1.34-.17,1.53-3.55,1.79,4.41,1.87,9.15,2.27,10.11,6.71l-10.67-6.07c1,1.71,1.36,3.75,2.37,5.43l-4.18-3-2.37,3.64c5.54,1.8,3.46,1.27,5.37,4.86-1.54-2-4.3-3-5.94-4.86-.07.08-2,2-3.55,3.65l2.93,1.79c-4.18-1-3.7-.33-7.67,1.22,3.64,2.33,7.16,2.31,9.49-1.22a79.67,79.67,0,0,1-4.74,8.57c-1-2.77-2.72-3.38-4.18-6.07.7,1.76,1,3.7,1.81,5.43l-3-4.22c-2,3.46.35,0-2.94,1.8l1.18,3.64-2.37-1.79,1.18,4.22-1.81-3c-1.95,3.92-.22,1.39-3.56,4.86l3,1.21c-4.15.41-6.19,2.94-8.37,5.43l2.38,2.43-2.94-1.21,2.37,1.21c-3.34.92-2.37.09-2.37,3.07l-1.81-1.86,1.18,3.07-2.37-1.86c1.64,5.12,1.37,3.69-1.75,7.93,2.49,1.89,4.39,5.2,7.11,6.71l-5.36-1.21,3.55,1.21-4.12.57,2.94,1.22-2.94,2.42h3.56c-1.82.5-3.54,1.4-5.37,1.85h4.74l-4.74,2.43c5,2,1.63-.48,3.56,4.86.28-2.26,1.33-4.49,1.81-6.72l2.37,4.86.57-3.64,3.55,1.21-1.18-3.65,1.81,3.65v-3.65l3,1.86-.62-2.43,2.37,1.79-.56-2.42,3.56,1.21c.63-1.75,1.29-3.62,1.74-5.43l.62,3,.57-4.86,3.55,3.65,2.38-3.65v3.65l1.81-4.22.56,3.64.62-2.42,2.38,1.79v-3.64l1.18,3.64c1.27-3.83,2.3-1.23,1.74-6.07l3,3.07c1.2-2.55,3.78-4.65,4.74-7.29l.62,3.65c4.12-3.29,3.61-.66,6.9.13,2.38.57,5.75.1,8.52.45-2.89,1.22-2.84,1.95-4.18,3.07l2.38-1.86c.16,4.12,2.17,4.58,5.37,1.22,2.51,7.15,8.46-.4,14.11-.43s8.53,2.86,12.53,1.9c-.74,9.32,22.87,4.27,28.52,4-3.71-7.49-6.78-8.11-13.61-10.35,2.74-1.21,3.11-.61,5.93-.58l-1.37-1.28c.92.76,3.84,1.74,4.93,2.5l1.74-4.28-2.74.19c2.9-1.5,3.84-1.45,6.05-2.43,1.07,3.86-.2,7.72-2.12,11.39l4.81-1.86-2.38,3.07,2.38,1.21c1.69-4.52,1.46-4.38,5.29-7.28l-2.37-1.22,3.56-.64-3.56-1.21c3.7-2.88,2-1.42,2.12-6.58l1.5-.57,1.74,4.73c.14-2.06,1.42-4.15,1.69-6.14a5.81,5.81,0,0,1,2.43,2.5s.29-3.58-.44-3.26c8.43.45,9.25-6.18,16.47-5.24-1.45-4.5,4.22-9.84,7.74-13.35,4.07-4.05,5.54-2.51,8.85-6.72,1.76-2.24-4.14-2.22,1.19-3.64-.21-6.93,10-11.47,15.48-14.57l-4.18-.64c2.12-2.73,5.29-3.15,8.93-1.8-1.66-1.1-3-2.65-4.74-3.7A55.41,55.41,0,0,1,2585.55,300.33Z"/>
			<path class="cls-3" d="M2126.74,426.18c0,10.63-4.78,29.54.56,38.28l1.18-12.14,1.19,2.42c.64-11.15,3.51-22.74,1.81-34.07-.34,4.79-2.42,9.57-4.18,14,.62-5,1.71-10.63,1.18-15.21C2127.9,421.7,2127.27,423.93,2126.74,426.18Z"/>
			<path class="cls-3" d="M2113.63,561.1c.59-.47-.38,0,.62,4.86a14.18,14.18,0,0,0,0-8.5Z"/>
			<path class="cls-3" d="M2148.22,325.79c10.06-8.18,13.46-19.2,17.64-31.53l-3.55,4.22c1-6.91,5.73-13.82,8.92-20-2.94,5.91-9,14.7-10.11,18.78"/>
			<path class="cls-3" d="M2146.9,326.47l-6.56,15.79.62-2.42c-1.27,4.09-2.61,8.16-4.18,12.14l.62-3c-2.79,8.14-5.52,16.15-8.3,24.29-1.25,1,.5-1.39,0-1.21a133.68,133.68,0,0,1-4.18,12.78c9-18.52,12.93-41.23,23.15-58.35"/>
			<path class="cls-3" d="M2398.57,286.33c-1.5,1.48-2.8,3.26-4.17,4.86a11.61,11.61,0,0,0,8.29-7.28c3.16.69.54.76,4.81-1.79l-2.43-1.22,3.61-2.42-3,.57c2.88-.83,5.56-3,8.29-4.28l-2.37-2.42a36.22,36.22,0,0,1,5.37-1.8v3.65a50.53,50.53,0,0,0,4.74-3.65c-1,3.87-.44,4.36-4.18,7.28l3,.65h-4.17l4.17,3.65c-6.78-4.68-9,2.42-12.48,7.28,2.8-1.38,6.07-1.8,8.93-3.07l-2.38,3.65a44,44,0,0,0,4.74-3l-.62,3.65,2.38-3.65v4.22l2.37-3,1.18,2.42,2.38-3.07-3.56-1.21,3-1.21-1.82-2.42,4.74.64-4.11-1.21h2.93l-2.37-3.07,2.37,1.85.62-3.07v3.07l4.18-3.07a22.13,22.13,0,0,0-2.43-1.85l3-2.42h-3l3.61-.57-2.37-.64,2.93-.58-1.74-1.21c2.67-2.42,2.55-.67,2.94-3.65l1.81,3c.78-3,2.42-6,2.94-9.08v4.86l3-1.85-1.81-1.79,2.37,1.79,1.19-3c-.7,2.32-.7,4.92-1.19,7.29,2.64-2.78,3.28-6.32,2.38-10.35-.37,7.11,3.3,9,7.11,3.64l-2.93-1.79,1.74.57-1.18-3.65c1,1.63,3,2.78,4.18,4.28,1.53-4.83,2.52-2-.63-6.07l3.56,1.21c-2.42-.81-4.75-2.09-7.11-3.06h4.18l-.63-1.8c1.71,1,3.7,1.43,5.38,2.43l-3.56-4.28c3.48,2.9,6.65,2.75,8.93-1.21-1.81-.61-3.51-2-5.37-2.43,2.17.08,4.37-.66,6.55-.64-1.68-.79-3.06-2.21-4.74-3,1.69-.44,4.11-1.21,4.12-1.21l3.55,2.42-1.18-4.86c6.85,6,11.6-10,2.38-1.85l1.81-4.22c-1.53,1-3.32,1.85-4.74,3,2.55-1.23,4.84-3.74,7.12-5.43-.83-.64-1.59-1.4-2.44-2,7.16,2.07,17.45-.56,13.11-9.52l-4.18,2.43,1.81-3.65-3.56,3,2.38-3.65c-2.88,1.2-6.13,1.69-8.93,3.06l3-2.42-1.18-1.86c-2.67,3.2-6.14,4.38-10.11,3.07,4-2.34,4-6.59,5.36-11.57-5,.14-9.81,2.22-7.73,7.28-7,.31-7,6.58-8.93,12.21l1.18-1.22c-.74.55-1.81,2.32-2.93,3l2.37-1.21c-.85,2.58-.9,4.84-2.37,7.28.31,1,1.29.92-1.82,3.07l1.82,1.21c-4,1.07-5.64,7.09-11.29,2.43,2.63,2.75-.18,7.11-1.19,8.49-5.64,3.19-10,7.91-16,4.86l-1.18,3.65c1.1-7-5.93-7.83-10-2.43a14,14,0,0,1,1.18-12.78c-10.32-4-9,4.13-10.11,11.57l4.18-1.79c-1.61,1.59-3.1,3.38-4.81,4.86h2.38a14,14,0,0,0-8.86,9.71l-1.18-3.06c-6.9,5.57-8.82,18-11.86,26.14l14.23-15.79c-1.11,1.76-1.92,3.71-3,5.5l3-1.86-8.3,14Z"/>
			<path class="cls-3" d="M2131.48,705.8a6,6,0,0,0-1.19-4.86Z"/>
			<path class="cls-3" d="M2390.84,225c1.17,1.94,3.25,3.73,4.74,5.44C2396.59,225.85,2395.25,223.55,2390.84,225Z"/>
			<path class="cls-3" d="M2444.25,307.61c1.35,2.34,3.19,4.52,4.74,6.72C2449.63,309.51,2447.46,309.67,2444.25,307.61Z"/>
			<path class="cls-3" d="M2479.26,418.25c4.14,8.46,3.57,9,12.49,10.35,5.61.87,11.1.8,16-2.42l-1.18-2.43,2.93,1.21c-.26-5.4-2.69-11.13,3-12.78l-4.18.64-.56-4.92c-2.47,3.52-5.06,2.95-7.74-.57l-2.37,4.28.62-5.5-4.18,2.42a14.19,14.19,0,0,0-1.18-4.86c-2,1.92-4.83,3.33-6.49,5.5,3.55-4,4.23-9.36,1.18-14-.43,2.05-1.44,4-1.81,6.07l-.56-4.86-2.44,4.21-1.74-3-.62,3-2.38-1.79,7.74,6.65h-4.18l1.81,3.06c-2.34-1.75-5.33-2.63-7.73-4.28l5.37,10.35c-2.31.11-4.82,1.36-7.12,1.21A54,54,0,0,0,2479.26,418.25Z"/>
			<path class="cls-3" d="M2549.91,341l.63-4.22-3.56,2.43Z"/>
			<path class="cls-3" d="M2483.45,234.69c1.52-2.14,2.08-5,3.56-7.28-7.27-.31-12,3.52-10.11,10.93C2478.93,237.2,2481.67,236.18,2483.45,234.69Z"/>
			<path class="cls-3" d="M2132,391.54c-2.68,5.83-2.91,11.94-3.56,18.21C2130,403.73,2131,397.66,2132,391.54Z"/>
			<path class="cls-3" d="M2424.1,220.06c-2.3,1.4-3.81.77-4.74,3.7C2420.93,222.53,2422.49,221.26,2424.1,220.06Z"/>
			<path class="cls-3" d="M2431.22,276a27.93,27.93,0,0,0,3,.64Z"/>
			<path class="cls-3" d="M2488.81,218.84c6.8-7.45-17.57-22.54-20.78-1.21C2475.07,213.74,2482.16,214.74,2488.81,218.84Z"/>
			<path class="cls-3" d="M2519.08,192.63c-2-2.64-9.12-1.63-7.17,1.91,2.06,3.74,10,2.7,13.67,3.07.23-3.41-.58-.68,1.18-4.92-1.81.25-3.86.11-5.63.57,2.11-.47,4.15-1.27,6.25-1.79-2,0-4-.11-5.93,0l.56-3.65A37.94,37.94,0,0,0,2519.08,192.63Z"/>
			<path class="cls-3" d="M2527.38,168.41c.33,4.78-1.4,9.39-5.37,12.15,3.57,2.89,4.44,3.62,8.29,2.42l-2.93-1.79c3.81-1.53,7.88-.82,11.85.57-2.22-3.51-5.62-4.46-10.11-4.22,4.87-4.8,14.54-1.21,16.67-6.71l-3,1.21,1.81-3.65-3.55,2.43,2.37-4.86-3,3.65c.89-1.65,1.1-3.76,1.82-5.5-5.44,1.16-5,1.48-4.81,6.13-4.89-.5-2.67-1.37-6.49,3.64,1-2.22,1-5,1.74-7.35A35.52,35.52,0,0,0,2527.38,168.41Z"/>
			<path class="cls-3" d="M2506.6,211.56c2.74-1.87,6,.71,4.74-3.65l1.81,2.43,2.38-2.43-1.82,4.28c1.18-.49,4.95-2.54,4.74-2.43V204.9c3.74,1.1,6.26-.47,7.74-4.27-7.3-1.55-6.49,3.62-11.15,4.72-6.64,1.56-9.9-2.39-15.57,3.2l2.38,3.65c-4.93.31-6.67,4.27-6.55,9.14l3,.57c-4.48,1.56-5.44,4.15-2.37,7.92C2505.77,230.21,2507.14,216.82,2506.6,211.56Z"/>
			<path class="cls-3" d="M2110.7,487Z"/>
			<path class="cls-3" d="M2494.74,207.91l5.94-10.29L2484,195.2c4,3.25.13,2.27,5.37,2.42C2485.12,202.59,2489.85,205.66,2494.74,207.91Z"/>
			<path class="cls-3" d="M2532.69,203.69c3,3.4,6.27,2.9,9.55-.64C2538.83,201.45,2535.54,201.58,2532.69,203.69Z"/>
			<path class="cls-3" d="M2437.14,241.34c-2.64-.66-6.19,0-8.93,0C2427.53,249.13,2435.39,246.95,2437.14,241.34Z"/>
			<path class="cls-3" d="M2544.6,200.05c2.84-.91,5.64-2.91,8.3-4.28-4.68,0-2.37-1.19-6.55.64l-2.38-3.07c-1.22,3.22-4.55,5.34-8.29,6.07A54.76,54.76,0,0,0,2544.6,200.05Z"/>
			<path class="cls-3" d="M2547,163.55c-.37,2.3-3.19,2.59.56,4.28Z"/>
			<path class="cls-3" d="M2561.77,217.05c-1.49,1.55-1.47,3.27-3.56,1.21v3.65l-2.94-3.65c.09,2.19-.29,4.54,0,6.71.09-1.92-.89-4.23-1.18-6.13-4.15,1.77-3.64,4.83-.62,8.57a42.35,42.35,0,0,0-4.12-5.5c1.07,2.65.41,4,.56,5.5l-1.74-1.86c.58,2.72.39,2.23,1.74,4.28-1.21-1.52-2.07-1-3.55-4.28-2.37,1-5.55,1.63-7.68,3.07a15.79,15.79,0,0,0,8.86-7.28c-4.34,1-10.82,4.15-12.49,1.21l-.56,4.22a20.85,20.85,0,0,0-4.18-1.22c5.25-3.27,5.29-7.8-1.74-8.49l1.74,3h-2.93l4.12,1.85c-3-.86-6.4-.63-9.49-1.21l3.56,4.27c-1.89-.64-4.3-2.48-5.94-3.64,2.43-1.61,4.52-4.21,7.12-5.5-4.75,2.84-8.74,1.47-10-4.28l-2.38,1.85,3.56.57-4.74,1.21h2.94l-3.56,1.22,3,.64-4.18,2.42,3,1.86-3,1.79,3.55-.57-4.11,1.79,4.11-.57c-2.31.3-4.91,2.21-7.11,3,2.4,7.76,7.07,4.06,11.6,2.17l-1.49,2.12,5.3.57-.56,3.64L2525,234l1.18,2.43,1.74-2.43v3.07c1.55-2.18,3.9-3.84,5.37-6.07-.57,2-.58,4.11-1.18,6.07.95-1.75,2.53-3.16,3.56-4.86-.29,2.14.69,4.48.56,6.64l3.61-1.79-1.81,4.22c3.86-.78,2,.91,4.74-1.8v3l3-1.21-1.82,1.85,10.11,4.86c-1.29-1.92-2.14-4.23-3.55-6.07l4.11,3.64,1.82-3.64c-2.73,10.91,16,9.21,8.29,0l3.56,1.79c2.24-6.11,2.37-19.31-7.74-13.94,1.91-1.24,3.46-3,5.38-4.28-2.6-.08-1.63-1.25-5.38,0C2564.28,223.23,2564.62,220.38,2561.77,217.05Z"/>
			<path class="cls-3" d="M2192.58,271.76c1.25-2,2.37-4.05,3.56-6.07C2193.73,267.45,2193.54,269.63,2192.58,271.76Z"/>
			<path class="cls-3" d="M2195.82,865.59a15.68,15.68,0,0,0,1.62,2.3c-1.93-3.92-8.68-14.4-9-20.45,1.56,6.29,7.11,5.3,12.48,4.86-1.53-20.57-20.08-42.35-29.08-60.77a44,44,0,0,0,.56,7.28c.46-9-6.46-14.65-10.73-22.23-2.53-4.48-10.64-14.85-10.61-19.06l1.19,1.21-2.37-4.27,1.75,1.79c-2.56-12.36-8.49-21.95-13.67-33.43-.09,1.72-.54,2.35,0,4.92-3.57-5.12-2.89-10-7.68-15.21l5.3,9.08c2.26-5.83-2.93-12.66-5.3-18.22l-1.18,1.86a81.51,81.51,0,0,1-1.81-9.14c1.37,1.41,3.29,2.31,4.74,3.65-.25-5.84-3-28.77-4.12-29.21-2.13-20.22-10.38-38.77-13.07-58.61-1.25-9.23-.52-17.31-1.59-27.91-.89-8.81,1.13-17.88-1.37-26.55"/>
			<path class="cls-3" d="M2110.7,441.38c.29,1.18.17,2.15-.62,2.43"/>
			<path class="cls-3" d="M2111.89,557.46a38.39,38.39,0,0,1,.56-7.28c.55,1.83,1.36,3.63,1.81,5.5l-3-17.65v5.5c-3-11.74-2.44-25.1-2.06-37.1.31-9.79-2.2-23.38,1.5-32.24l.56,3.65c1.72-4.47-.41-18-.56-18.22a12.32,12.32,0,0,0-.62-6.71c-.41,1.38-.7,2.87-1.19,4.28l.62-5.51-1.19,4.87,2.93-14.57"/>
			<path class="cls-3" d="M2106.52,489.39c.33-3,.6-5.8,2.25-7.87a73.73,73.73,0,0,1-2.25,11.5Z"/>
			<path class="cls-3" d="M2129.67,712.51c-.51-2.17-1.1-4.33-1.75-6.45v1.59l-1.19-4.28A22,22,0,0,1,2129.67,712.51Z"/>
			<path class="cls-3" d="M2110.7,488.94Z"/>
			<path class="cls-3" d="M2457.92,186.63l1.18,4.28,12.49-6.08C2467.05,179.63,2462,181.87,2457.92,186.63Z"/>
			<path class="cls-3" d="M2450.18,231.05c1.26-.43,2.32,1.64,1.19-2.43Z"/>
			<path class="cls-3" d="M2476.9,178.12c6.24.22,12-4.47,19.07-4.29,5.6.14,13.25,4.85,15.94-2.35L2500,167.83c5.15,0,11.31,1.41,14.85-1.85l-5.37.57,3-1.21-1.81-1.8,2.43-1.85,1.18,3.07c4-2.09,4.83-1.27,5.3-6.08,1.28,1.3,3.4,1.77,4.74,3,2.49-8.05,3.24-14.23-4.12-13.94-1.8,2.05-4.44,3.79-5.93,6.07,1.74-2,2.68-5,4.12-7.28-6.93-1.27-12.57,7.74-19.6,10.29l11.29-12.14c-7.89-2-20.65,3-24.6,9.36-2.58,4.11-1.93,8.39-3.95,11.18-2.75,3.81-7.83,2.34-10.63,9.24h4.74l-1.75-3,5.3.57c-2.78,3.37-.61,1.65-1.74,4.86C2474.85,177.22,2473.78,177.41,2476.9,178.12Z"/>
			<path class="cls-3" d="M2177.1,268.57c1-1.61,2-3.2,2.93-4.79C2178.91,265.31,2178.07,266.94,2177.1,268.57Z"/>
			<path class="cls-3" d="M2229.4,331.33l2.37,1.21a56.23,56.23,0,0,0-2.37-9.13C2229.4,326,2229.26,328.71,2229.4,331.33Z"/>
			<path class="cls-3" d="M2210.43,235.9Z"/>
			<path class="cls-3" d="M2274.52,373.25c-7.75-3.22-14.14,2.53-5.94,7.93a18.26,18.26,0,0,0,1.75-4.28l-4.74.64-.56-1.85C2268.75,377.36,2271.89,376.49,2274.52,373.25Z"/>
			<path class="cls-3" d="M2159.38,361.75c-1,1.25-2.5.62-3,3,2.86-2.81,4-3.59,5.37-7.87Z"/>
			<path class="cls-3" d="M2135.6,416.47c.49-1.53,1.8-1.68.62-4.28Z"/>
			<path class="cls-3" d="M2150.45,368.4Z"/>
			<path class="cls-3" d="M2153.45,361.11l-1.81,4.86C2154.9,363.42,2153.47,361.19,2153.45,361.11Z"/>
			<path class="cls-3" d="M2171.23,278.47c2-3.29,4-6.58,5.87-9.91C2175,271.79,2173,275.09,2171.23,278.47Z"/>
			<path class="cls-3" d="M2268.58,353.83c-1.55,5.65-4.94,10.33.56,14-.59-5.41-3.2-10.57,2.38-13.42Z"/>
			<path class="cls-3" d="M2634.78,40.13Z"/>
			<path class="cls-3" d="M2649.63,38.34c-1.31-.39-3-1.47-1.74.57a95,95,0,0,0-12.24,1.28A19.32,19.32,0,0,0,2649.63,38.34Z"/>
			<path class="cls-3" d="M2291.12,339.83,2287,355.68C2291.4,353.29,2291,345.17,2291.12,339.83Z"/>
			<path class="cls-3" d="M2639.52,85.13c-.12-.14,2.44,2.63,3,3.07Z"/>
			<path class="cls-3" d="M2295.86,128.28l-2.94,2.42A33.08,33.08,0,0,0,2295.86,128.28Z"/>
			<path class="cls-3" d="M2276.89,783.65l1.81,1.79-1.18-4.27Z"/>
			<path class="cls-3" d="M2298.23,373.89c-2.77-.15-4.14,3.81-4.74-.64l-2.93,3.65c-.93-4.67,0-1.7-4.74-4.22l1.18,4.86c-1.66-1.17-3.78-1.81-5.37-3.07-1.72,4.12-.4,15.93,5.37,18.28l-4.18.57c1.41,1.79,2,4.4,3.56,6.07-2-1.12-4.48-1.34-6.49-2.42,1.63,3.88,4.95,5.31,9.49,4.86-3.2,2.51-3.34,4-7.74,4.86l4.18,1.21c-3.3,2.43-2.22,3.11-3.56,4.92a10.41,10.41,0,0,0,8.86-4.28l-2.94-1.21,4.74-1.21h-5.37a16.34,16.34,0,0,1,4.18-5.51l3.56,3.07c-1.3-1.51-1.92-3.82-3-5.5,2.34.16,4.78-1.34,7.12-1.21a23.18,23.18,0,0,1,.62-6.07c-1.82-.31-3.54-1.59-5.37-1.8l4.17-1.21-2.37-4.28,4.74.64c-2.44-3.51,0-3.1,0-4.28-.68-.69-1.23-.5-1.69-1.21,4.39-.07,8.54-1.08,10.61-4.86l.57,3,1.18-3C2307.42,371,2302.25,369.82,2298.23,373.89Z"/>
			<path class="cls-3" d="M2618.8,419.46a64.59,64.59,0,0,0-2.43,6.07C2620.15,423.76,2618.38,422.5,2618.8,419.46Z"/>
			<path class="cls-3" d="M2627.11,415.24c-1.8.51-3.34-1.08-4.18,3.65Z"/>
			<path class="cls-3" d="M2631.85,334.4c1.57-.44,3.07-1.92,4.74-2.43a73,73,0,0,0-5.94-7.92l-1.18,2.42c-.48-2-1.44-4-1.81-6.07.18,3.23-.16,6.49,0,9.72-.64-2.72-2.18-5.24-2.94-7.93l-1.18,4.28-3-3.06,3-1.8c-8.4,1.13-4.23,7.63-3,14,1.38-1.73,3.53-3,4.74-4.86v3l1.82-1.8,1.74,2.43c-4.32.27-8.14,2-7.11,6.07,1.92-.68,4.07-1,5.93-1.86l-4.74,2.43,3,1.85-4.75-1.21a86.35,86.35,0,0,0,5.94,9.08Z"/>
			<path class="cls-3" d="M2127.3,473.61a14.22,14.22,0,0,0,.62,12.14Z"/>
			<path class="cls-3" d="M2193,242.75c-4.45,6.78-8.67,14-13,21,7.77-11.5,15-25.88,26.21-34.58-.45.92-1.26,1.58-1.74,2.43,3.91-2,6.52-5.77,10-8.5l-1.75,4.28,2.38-2.43a38.81,38.81,0,0,0-3,3.65l-1.18,4.86,2.37-1.21c-7,8.95-13.18,22.17-17.78,32.21l1.75-1.85c-.45,1.8-1.2,3-1.18,4.86l1.81-3c-5.27,14.26-9,32.21-17.5,44.68-7.62,11.22-19,21.53-22.87,36.18,14.28-6.69,19.43-32.06,33.26-32.86-1.2,3.54,5.73,14.32,7.11,19.5l1.19-4.28,1.19,1.8,1.81-4.22c-1.57,3.74-.91,5-.62,7.93,1.37-1.55.91-3.09.62-2.43,1-2.23,1.82-2.17,1.74-5.5.09,2.41.74,2,0,5.5l3.56-3.71c-1.77,2-3.52,4.11-5.3,6.14,4.32-3.91,8-8.93,9.49-14.64l-1.18,4.27c5.08-1.86,4.7-8.27,9.49-10.93-1.72,2.52-2.94,5.41-4.74,7.87l7.73-6.65,1.19,3.65c-7.08-1.74-7.38,7.23-14.29,9.08,7.45,1.92,10.16-3.1,14.85-7.87-2,1.91-3.16,5-4.74,7.29,4.73,2.29,7.45-3.72,10.38-1.54s2.27,8.78,2.65,12.46l2.38-1.79c-2,3.55-1.28,5.07-1.18,9.08l3-1.8-2.37-.64c1.74-5.55,11.24-11.11,13-4.86l2.38-1.21-1.19,3.64,4.75-.57-2.38,1.22a37.9,37.9,0,0,0,3.56,8.49l3-3.06c-2.77,5.72,2.31,8.75,5.93,12.78l-4.17-.64c.79,2.5.3,5.46,1.18,7.93-1.54-3.89-12.21-18.8-13.67-3,4.9-.26,8.87,1.12,7.18,6.07,4-1.17,5.46,6.53,8.29,10.29,4.55-6.32.39-10.9,1.54-17.33,1.09-6.06,8.14-9.26,6.76-14.24h5.37c-1.62-4.08-.69-6.13.56-10.93-1.62,13,9.55,11.88,8.3-.52-.93-9.32-10.4-13.6-17.23-18.34,3.18,3.09,8,1.14,9.22,1.82,2.4,1.3,4.81,5.58,7.83,8.1,7.8,6.49,5.8-2.07,9,10,1.68,6.33-.6,19.15,3.36,24.2.75,1,8,2.5,9.39,3.39,3.94,2.56,2.26,7.08,8.71,8.46l1.81-4.28,1.18,2.43-.62-4.86,1.18,3.65c2.39-3,12.17-7.89,4.18-11.51,12.72-1.71-1.86-11.74-5.37-14.63q5,3.43,10.11,6.71c-1-1.58-1.88-3.33-3-4.86l6.55,7.86c2.4-4.26.47-6.22,2.37-9.71l-1.74-1.22h2.37l-4.73-1.21,4.11.64-1.18-2.42h1.81c-1.18-.69-2.33-1.72-3.55-2.43,2.13-.49,4.32-1.6,6.49-1.85l-1.74-.57c.73-2.07,1.79-3,1.74-6.72l2.37,1.22v-3.07l.63,1.85L2341,324l1.18,1.79,1.18-4.22-.56,4.22c4.19-.14,6-2.79,5.93-7.28l1.75,2.42c1.22-3.16,2.06-3.4,3.55-4.86l-1.74-2.42,4.12,1.21-1.74-3.65c4.77,2.34,6.74,1,5.37-4.22,4.55,3.36,4.4-6.13,10-5.5l.62-2.42c-4.4-.17-5.28-1.14-8.3,2.42l-1.18-2.42-1.18,2.42c-4.36-1.26-1.37-1-6.56,0l4.18-3.65c-2.25-.38-4.29-2.06-6.55-2.42l4.12-3.07-4.74-1.21c6.21,1,8.34-2.33,5.93-8.49l2.43.64-1.81,1.79c4.15-.24,10.58-2.63,10.11-8.5v4.86c2.45-.43,6.14-1.2,8.3-2.42-6-2.25,8.56-15.76,11.85-18.86-7.15-4.2,5.18-9.49,1.77-14-2.48-3.25-8.42,3-13.63.61-2.23,9.75-11.83,1.11-17.07,3-2.27.83-4.38,6.16-6.49,7.71-3.25,2.4-8.34,3.47-12.08,5,1.81-2.18-2.44,3.16-2.37,3.06.88-1,1.86-2.45,2.37-3.06-6.26,0-10-4.29-10.67-10.29-6.6,8.67-18.34,10.27-26.71,12.14l4.18-3.65-3.62-.64c2.67-4.91,10.14-12.37,15.25-15.61,6.15-3.91,14-2.25,18.4-7.8,5.41-6.87,7.17-13.56,13.95-20.68,6.05-6.36,15.61-12.34,14.2-22.19,4.5,3.47,14.13-.33,16.6-5.43h-3c10.15-7.15,18.42,4.72,25,1.8.4,2,1.59,4.09,1.75,6.13l3-1.86c-3.91,7.88,4.37,5.76,5.37,0,1-.57,5.13-3.24,7.68-3.64l-10.67,9.72c8.36,2.79-3.17,9.19,6.61,10.62,4.75.7,9.36-7.31,13-11.19-.76,5.38-5.37,7.54-9.49,10.93,2.71,3.86,6.05,5,9.49,1.79l-5.93,9.14c2.11-1.9,4.89-3.09,7.12-4.86-1.93,4.07-1.28,4.31-5.93,6.07,6,7.15,9.25,4.53,16.6,1.21l.62,3.65c3.63-1.1,2.37-.4,5.3-.57,1.26-1.87,3.1-3.52,4.18-5.5l.56,1.85a33.35,33.35,0,0,0,3.56-7.92l-10,2.42,1.18-2.42c-5-1.07-10.72-.44-11.93-5.5,6.59-.74,14.18-.06,19.6-4.22-2.64-.67-5-2.48-7.67-3.07l11.23-2.42-.56,3.06c1.56-4.93,4.64-7.87,8.93-4.86l-1.81,2.43,18.4-4.86c-6.37-9.72-14.91-7.3-22.59-.64-.81-4.16-.72-.45-3.56-3.65l1.18,1.79c-7.09.38-3.26-7.49-12.41-5.43,3-3.19,6.43-3.4,10-.64l-1.19-2.42c4.24.54,3.68.16,5.94-4.22l-3.5.45c-6.21-10.91,24.29-14,21.9-25.37-2.1,3.06-3.24,4-4.11,7.87.39-2.2-.59-5-.63-7.29-3.24,1-5.93.31-8.85.64l2.93-1.85c-2,.05-4-.19-5.93,0,3.58-1.54,7.34-2.17,8.3.64,9.72-1.8,13.62-15.25,23.15-14l-2.37,3.65c9.76.95,30.72-19.26,36.82-12.79-.93-1.52-1.06-3.26-1.81-4.85q6.55.57,13.1,1.21l-4.17-1.21a57.54,57.54,0,0,0,5.93-8.5c-.06,2,.71,4,.62,6.07,3.4-4.75,5.79-12,11.85-8.49l2.38-4.28-4.18-1.8c10-.37,55.28-5.88,57.6-1.21,5.27-.84,7.64.13,11.29-1.85-.37,6.77,10.1.08,11.86-2.43,5.38,2.33,5.6-1.49,9.69-3.22-.29.12,5.71-3.92,6-4.07,3.2-2,5.32.61,8.68-2.43-5.23-1.53-7.67-5.6-11.11-7.36-4.49-2.3-7.74-1.51-12-3.57h4.93l-1.37-1.21c10.77,0,15.24,1.73,26.71-.64-2.42-.8-4.66-2.31-7.11-3h3.56c-3.22-4.61-11.6-5.26-14.85-3.65a47.44,47.44,0,0,1-9.49,0l2.93-1.21L2636.59,73c9-2.89,15.83-2.74,24.34-9.14-2.76-1.84-2.39-2.22-5.94-2.43l1.75-.57c-2.57-.29-5.13-.88-7.68-1.28l5.3-.57c-2.63-6.81-9.71,1.71-13.67-6.07l3-1.85c-5.46,1.75-15.05-2.32-17.22,1.85-3.55-.88-3.59-1-8.3,0,1.35-3.2,1.62-3.23,2.37-6.07,4.95-1.62,9.89-3.26,14.85-4.86-4.67-4.74-29.17,5.44-34.44,11.5h4.74c-3.44,5.34-13.16,11.5-20.16,12.78l3.55-2.43-5.37-.57c5.39.85,11.16-.06,11.93-6.14l-4.18,1.22,3-3c-3.77.5-7.5,2.25-8.36,4.22-1.85-.34-4.84.73-7.68,3.07l4.12,1.21L2579,66.27V64.49c-2.32,1.37-2.69.72-6.49,2.43l1.74-1.21c-11.6-2.94-26.18,1.77-37.38,4.86,1.45-.52,2,.28,2.93,0l.62-2.43c-6.91.22-14.37-.64-20.78,1.79,2.37.11,4.75.64,7.12.64-1.48.59-4.6,2-4.12,1.79-3.38-1.4-4.24-1-7.74-1.22,1.8,1.11,3.47,2.72,5.37,3.65-3.64-2.61-7.86-3.38-10.11,0V72.35l-4.73,1.22c.15-.53,1.71-1.1,1.74-1.22H2503l1.74-1.79-3.18.45,4.37-1.66a27.44,27.44,0,0,0-5.94,0l1.13,1.72a35.64,35.64,0,0,1-9.42,1.28l1.18-3c-2.84,4.16-6.09,4.31-9.49.57-2.76,3.64-.94,1-4.74,3.07l2.38-2.43c-1.12.31-4,.47-5.93,1.21l1.74-2.43c-5.22.73-4.73-.39-6.5,3.64a19.86,19.86,0,0,0-4.73.58l4.11-2.43c-2.57.86-5.64.63-8.29,1.22l1.18-2.43c-2.38,2.09-2.7,1.78-5.37,4.86l.62-4.22c-2.49.33-1.73.9-3.56,1.79l1.19-2.43L2452,71.77l2.93-1.85c-1.73,1.09-3.55,2-5.3,3.07l3.56-3.07c-2.08,1.37-4.43,2.34-6.55,3.64l1.18-1.22c-4.35,1.45-7.32,2.06-8.3,4.86-2-.08-1.41-1.05-4.11,1.22L2436,76c-3.22,2.09-4.62,1.86-7.74,3.64l1.18-1.79c-3.52,3.29-11.24,4.58-16.6,2.43,3.27-.55,2.24-1.1,3.56-1.85,3.8,2.83,8.2-1.79,12.48-4.22-3.7-.39-8.89,1.2-11.26.89-4.12-.54-10-3.08-15.13-3.36-11.32-.6-19.37,4.92-30,9.11l4.18-1.79c-19.12,5.65-35.4,18.64-51.93,29.25s-31.5,21.41-45.61,34.85a285.8,285.8,0,0,1,33.45-25.81c-11.33,9.4-23.45,17.58-34.45,27.35"/>
			<path class="cls-3" d="M2455.56,184.19l-3.56-.57C2456.31,180.86,2454.69,183.58,2455.56,184.19Z"/>
			<path class="cls-3" d="M2409.24,195.77c1.16-1.68.15-3,3-3.07Z"/>
			<path class="cls-3" d="M2198.57,263.33Z"/>
			<path class="cls-3" d="M2199.69,260.19Z"/>
			<path class="cls-3" d="M2639,344.69c2.59-2.88,2.48-5.91,0-9.08-3.68,2.1-4.07,2.63-3.56,7.28l2.94-1.21Z"/>
			<path class="cls-3" d="M2614.62,421.9c1.21-.59,2.84,1.78,3-3Z"/>
			<path class="cls-3" d="M2636.59,332.54l-3,1.22,1.81,2.42Z"/>
			<path class="cls-3" d="M2149.89,370.83Z"/>
			<path class="cls-3" d="M2641.34,317.33l-3,2.43-.56-3.65-.62,4.86c-1.2-1.87-3-2.9-4.12-4.86-1.78,3-1.29,1.69-3,3.65,2.74,3.33,1.14,4,6.56,2.42l-3,3.07C2640.39,330.22,2648.39,321.26,2641.34,317.33Z"/>
			<path class="cls-3" d="M2149.27,343.48c-1.1.19-.52,3,1.81-2.43Z"/>
			<path class="cls-3" d="M2155.2,369c-1.29,3.21-2.39,6-4.74,8.5C2153.39,375.19,2154,372.63,2155.2,369Z"/>
			<path class="cls-3" d="M2554.09,182.41c-.85,1.86-2,3.64-3,5.43C2555.74,188,2554.23,186,2554.09,182.41Z"/>
			<path class="cls-3" d="M2125.55,528.31s2.46,1.18.56-3.06Z"/>
			<path class="cls-3" d="M2142.72,372.68c-2.74,6-3.27,12.43-5.93,18.22l-1.19-2.43c-.93,7.87-3.27,16.49-1.75,24.35,4.84-27.41,15.61-54.4,22-82.07l-2.31,1.21,1.12-4.28c-2.54,6.68-2,13.79-4.18,20.64l.62-3C2146.26,353.06,2144.8,363.84,2142.72,372.68Z"/>
			<path class="cls-3" d="M2434.21,246.84l-2.43,4.27C2435,250.32,2433.4,249.11,2434.21,246.84Z"/>
			<path class="cls-3" d="M2723.83,400l3.56,1.8,2.37-4.86-4.74-1.79Z"/>
			<path class="cls-3" d="M2736.88,173.27c.5,2.81,2.44,5.86,3.55,8.5C2746.51,177.89,2742.71,173.94,2736.88,173.27Z"/>
			<path class="cls-3" d="M2741.05,373.25c-7.74-3.55-17.48-6.35-15.41-17a10.89,10.89,0,0,0-7.17,4.28l2.43,1.21-2.43,3,3.62-1.22c-.47,1.09-2.43,9.05-1.82,9.72,3,3.24,4.7-.44,5.67.18C2732.41,377.53,2732.61,377.86,2741.05,373.25Z"/>
			<path class="cls-3" d="M2745.18,195.77c7.05,4.14,11.75.63,9.54-5.5-1.68-4.66-7.54-6.72-11.92-7.29-1.39,5.22-.91,10.07,5.37,8.5C2746.89,192.76,2746.37,194.5,2745.18,195.77Z"/>
			<path class="cls-3" d="M2724.46,269.33c-.51-2,1.28-2.66-1.18-4.28l-2.38,3.07Z"/>
			<path class="cls-3" d="M2718.47,257.19c-2,0-4.48.84-6.49,1.21,2.5,3,5.24,8.82,8.89,7.57C2725.34,264.44,2721.35,258.67,2718.47,257.19Z"/>
			<path class="cls-3" d="M2716.1,355a38.31,38.31,0,0,1,5.37-1.86l-1.82,4.28a22.84,22.84,0,0,0,6-2.42l-3.55-3.07,3.55-1.21-3.55-.57,2.93-.64-2.93-2.43H2725l-3.55-3.64c3.08-1.19,8.71-26.89,2.37-30.37,0,8.24-4.47,11.34-7.27,17.58-4.29,9.55,3.88,12.56.72,18.86h3.56C2716.28,349.53,2717.58,351.73,2716.1,355Z"/>
			<path class="cls-3" d="M2754.1,333.76l-1.74-2.43c-1.42,3.63-1.57,1.41.56,4.86Z"/>
			<path class="cls-3" d="M2766,187.84c-1.25-5.81-4.43-10.06-7.11-3C2761.17,185.47,2763.8,187.43,2766,187.84Z"/>
			<path class="cls-3" d="M2745.81,373.25c1.45,3.41,2.94,4.85,7.11,3.65C2752.14,373.05,2749.74,373.44,2745.81,373.25Z"/>
			<path class="cls-3" d="M2726.21,267.48a11,11,0,0,0,8.92-8.5c-3.85-1.67-7.78-2.68-11.29-1.21l1.81,2.42-3-1.21C2723.81,261.74,2724.7,264.9,2726.21,267.48Z"/>
			<path class="cls-3" d="M2743.43,260.83c-.79-6.39-3.49-11.36-10.11-7.92l3,2.42-5.37-1.21Z"/>
			<path class="cls-3" d="M2727.39,124.63l3,2.42C2730.61,123.12,2729.2,125.34,2727.39,124.63Z"/>
			<path class="cls-3" d="M3166.07,546a6.12,6.12,0,0,0,0-3.07Z"/>
			<path class="cls-3" d="M2545.8,181.77l2.37,3.06,4.12-3.64C2549.48,178.47,2548.57,180.11,2545.8,181.77Z"/>
			<path class="cls-3" d="M3150.6,647.44l1.76-3.64C3151.09,644.93,3151.2,646,3150.6,647.44Z"/>
			<path class="cls-3" d="M3157.14,647.44c.47-1.79,1.6-2.15.62-4.27Z"/>
			<path class="cls-3" d="M2777.26,242.55l.62,3.06,2.37-1.21Z"/>
			<path class="cls-3" d="M3154.13,644.38c.93-1.52,2.54-1.2,1.76-4.22C3154.87,641.51,3154.94,643.06,3154.13,644.38Z"/>
			<path class="cls-3" d="M3164.82,599.45a44.22,44.22,0,0,0-1.14,8.5v-4.28c-2.47,4.63-7.57,12.32-8.3,17.65v-3.07c-4.74,3.85-9.16,14.83-5.92,20.07,3.44-4.59,2.16-3.35,5.92-3.65l1.76-4.86c.23,1.85,1,3.64,1.14,5.5.27-.76,1.09-2.61,1.87-3.06l1.14,3.06"/>
			<path class="cls-3" d="M3163.06,604.31c0-1.41-.32,1.46,0,2.42C3163.24,605.94,3163.05,601.93,3163.06,604.31Z"/>
			<path class="cls-3" d="M3163.68,602.46Z"/>
			<path class="cls-3" d="M2338.6,248.69l.62,3,4.12-1.22Z"/>
			<path class="cls-3" d="M2381.35,295.47l-.62-3.07C2377.53,296,2380.29,294.27,2381.35,295.47Z"/>
			<path class="cls-3" d="M2341.6,252.33a15.93,15.93,0,0,0-4.18-.64Z"/>
			<path class="cls-3" d="M2386.1,240.77l3.55-1.22-5.3-.64Z"/>
			<path class="cls-3" d="M2456.12,306.4c10.89-9.17-5.3-12.05-1.19-3.64H2452Z"/>
			<path class="cls-3" d="M2888.27,1001.28c-.18-3.52-5.05,5.51-7.7,8.13-3.52,3.49-4.81,3.72-9,8.24.34-.08-3.43,2.11-5.3,3.64l1.19-1.79c-4.64,4.55-10.22,6.06-16,9.38-2.9,1.67-6.31,2.68-8.39,5.51-1.94,2.63-.62,6.48-1.38,7.48-1.79,2.33-15.12,7.81-12.25,12,2.54,3.71,17.12-4,19.87-5.46,12-6.28,24.69-17.38,33.56-27.68C2886.08,1017,2901.69,998.59,2888.27,1001.28Z"/>
			<path class="cls-3" d="M2847.9,1017.65c1.51-.32,2.5.87,2.37-1.22Z"/>
			<path class="cls-3" d="M2841.34,1017.06c-.4,1.12-3.12,1.8-.56,1.8S2840.86,1018.43,2841.34,1017.06Z"/>
			<path class="cls-3" d="M2554.65,161.13c-2.23,1.58-1.19,4-5.3,3,1.15,2,1.13,4.77,2.38,6.71l-4.18-1.21c1.25,4.6,4.93,7.87,8.3,3.35C2558,170.07,2555.41,164.46,2554.65,161.13Z"/>
			<path class="cls-3" d="M2513.15,201.84c-.58-1.64-2.08-3.37-3-4.86a26,26,0,0,0-5.93,4.86C2507.13,201.84,2510.27,202.21,2513.15,201.84Z"/>
			<path class="cls-3" d="M2506,176.34c2.94,3.4,5.67,2.7,6.55-1.86A63.17,63.17,0,0,0,2506,176.34Z"/>
			<path class="cls-3" d="M2529.75,206.7l1.19-3.65C2526.19,206.46,2529.62,206,2529.75,206.7Z"/>
			<path class="cls-3" d="M2525.58,212.77c-.95-1.36,1.47-3.81-2.94-1.21Z"/>
			<path class="cls-3" d="M2541.05,138.63c-6.3,2.87-10.67-2.24-14.39,5.36-.78,1.58.85,13.53.72,16.5,5.46.64,19.6-4.08,23.16-9.08C2543.51,150.31,2543.29,144.56,2541.05,138.63Z"/>
			<path class="cls-3" d="M2484.63,190.27c6.72,4.67,11.83-3.69,15.41,3.64a23.92,23.92,0,0,0,5.94-7.28h-4.12l2.37-2.43c-3.92,2.07-3.83,1.15-7.11,1.22a44.48,44.48,0,0,0,5.3-3c-4.59-3.3-16,.21-19,4.86C2486.62,187.25,2483.85,188.63,2484.63,190.27Z"/>
			<path class="cls-3" d="M2924.47,1004.92a6.38,6.38,0,0,0-3,1.21Z"/>
			<path class="cls-3" d="M2552.91,212.77l.56-3.65-4.74,1.86,3-2.43c-4.1.54-4.15-.1-8.3-.64-1,2.17-3,4.41-3.56,6.71l.56-5.5c-1.68.87-3.81,1.36-5.37,2.43-2.07-1.38-2.29-2.46-4.74,2.42h4.18l-4.74,1.21c2.41.41,4.71,1.49,7.12,1.86l-3.56.57c3.88,9.12,8.55-.52,15.41,2.43l-2.37-1.22,13.66-3.65C2557.71,210.92,2556.33,212.57,2552.91,212.77Z"/>
			<path class="cls-3" d="M3090.65,717.94c.38,1-2.42,3,1.19.64-3.49,4.64.23,16.8,3,21.87C3098.61,734.24,3107.18,713.52,3090.65,717.94Z"/>
			<path class="cls-3" d="M2808.7,871.15c1.55.77,1.33,2.88,4.74,1.21C2812.05,871.85,2810,871.72,2808.7,871.15Z"/>
			<path class="cls-3" d="M2808.14,1006.71l2.93.64a22.19,22.19,0,0,0-1.74-3.06Z"/>
			<path class="cls-3" d="M2530.94,970.21l-4.18,1.86C2529.83,974.49,2529,971.8,2530.94,970.21Z"/>
			<path class="cls-3" d="M2915.55,731.94c-2,2.18-4,4.47-5.94,6.71C2912.37,736.82,2913.82,734.59,2915.55,731.94Z"/>
			<path class="cls-3" d="M2690,304l.56-3.07-3.55,1.28Z"/>
			<path class="cls-3" d="M2677,302.76c-.83,2.53-1.22,5.32-1.82,7.92C2679.49,307.48,2677.75,306.25,2677,302.76Z"/>
			<path class="cls-3" d="M2771.88,665.66c-2.35-1.37-12.88,2.58-18.06,2.43-7.17-.2-12.25-4.72-18.68-5.12-8.09-.5-12.32,5.66-18,9.7-7,5-10.33,4.76-19.36,5.13,2.43,3.71.86,3.47,5.93,4.28-3.25.07-5.48,2.33-6.55,2.75-.6.24-5.89,1.36-7.71,2.14-6.16,2.64-12.18-.09-12.45,9.68,1.94-1,4.55-.77,6.49-1.79-1.77,4.4-2.15,8.6,2.37,10.35l-3.55,1.79-1.75-3.65-1.18,4.28c2.55,0,5.12,1.77,7.68,1.79-1.06,4.46-1.41,3.08,3,6.08l-2.37,3.06c2.5-.79,5.3-.9,7.74-1.85-2.24,1.33-4.29,3-6.56,4.28,9.41-7.46,9.43,3.4,17.23,3,8.17-.42,3.79-7.55,12-7.92,9.93-.45,8.93,6.83,19.48,1.28,2.36-1.24,5-4.44,6.8-5.46,2.45-1.36,5.3,0,8-3.68-.76,7.73,1.72,12.61,1.81,19.32s-3.11,14.09-5,20.71c-2.8,9.75-1.81,9.59-9.67,13.83-9.31,5-9.12-.4-16.91.12-6.25.42-10.59,8.21-16.53,9.24-5.46.95-12.94-3.24-18.65-3.58-9.21-.56-11.68-.68-19.21-3.49-2.61-1-7.43-2-9.36-2.61-2.15-.72-4.54-3.05-8.07-3.5-4.25-.53-14.09,1.78-16.55,5.89-4.06,6.79,3.76,10-4.77,14.29-6.3,3.19-10.07-1.89-16.31-4.32-3.32-1.29-9.74-1.34-12.44-3.63-2.15-1.82-2.23-6.16-4.39-7.92-9.16-7.49-31-5.4-37.23-17.27-4.33-8.27,5.6-5.63,7.51-12.72,2-7.58-7.59-7.47.56-16.42-6.71,5.69-4.06-2.1-8.38-2.86-3.22-.57-7.28.68-11.08.54a171.58,171.58,0,0,1-19.93-2.13c-13.84-2.3-27.54-8.44-42.47-2.28"/>
			<path class="cls-3" d="M2633.78,556.82c-.93.66-2.63,1.67-3.75,2.5l3-3.65c-6.2,4.89-7.74-1.56-12.93-1.59-5.49,0-16.12,4.17-16.15,10.09-8.37-8.57-8.45-8.45-20.22-5.5l1.82-4.22c-5.8,1.41-7.89-2.69-7.85-7.54.05-6.43,4.94-8.54,9.6-11.94-5.95-2.45-2.95-7.77,0-12.15-14.53,5.54-12.88,11-16.6,26.15,4.39.62,3.1,1.41,1.18,4.27l5.93,8.5c-1.51-1.73-4.15-2.8-5.93-4.28l-1.75,4.86c-2.87-4.37-2.83-2.19-7.11-3.65l1.18,3.65c-12.22-8-8.32,3.4-13.66,6.07-.21-2.22-1.76-4.42-1.82-6.64-3,4.24-8.21,7.67-2.93,11.57-2.33-.29-4.8.37-7.12,0l4.12,3c-3.85.16-11-1.07-14.27.59-2.4,1.24-1.24,5.27-3.51,7-8.82,6.75-12.81,2.91-20.22-2.74V592.1c-5.36.58-6.3-3.72-8.56-4.38-2.7-.79-7.05-1.05-11-1.05l2.93,3.64-2.93-1.21c-1.52,7.75,6.09,6,9.56,10.87,1.69,2.36,2.81,8.75,3.18,11.76.76,6.13,1.17,14-4.82,21.46-4.56,5.67-.21,3.88-5.93,4.43-4.88.47-14.51-5.83-19-7.62-11.33-4.55-13.51-8.75-25.77-6.83,6.34,12.83-5.71,27.12-13.67,36.43h3.56l-3,3.65,3.62,1.85c-2.64,2.32-4.27,7-6,10.93,9.21,2.35,11.51,2.28,16.31,9.18,1.85,2.66,1.62,7.61,4.08,8.81,1.79.87,8-2.51,10.46-2.32,4.32.32,8.83,5.35,13.13,5.17,2.93-.12,3.8-3,6.67-4.19,3.56-1.52,4.86-1.3,7.83-3.26s2.49-4.53,7.43-4.88c-14.32-13.19,22.89-20.25,25.52-23.2,4.95-5.55-2.59-14.92,11.1-12,3.41.73,7.34,6.52,10.86,6.61,3.77.1,9.43-5.57,13-6.64,17.25-5.24,15.43,15.17,27,24.67,8.48,7,36.38,23.13,21.24,36.69,5.37,2.3,5.53-7,11.85-8.5-10.71-9.06,3.3-18.63,8.3-6.71,4.09-9.07-21.18-10.86-14.85-20.07-11.66-2.19-12.73-9.87-18.51-19.18-4.6-7.4-11.74-17.07,3.1-18.46.3,3.13,1.84,6.27,1.81,9.45,1.14-1.78,3.45-2.81,4.68-4.53,2.88,6,5.5,13.62,9.87,17.81,3.08,2.95,10.08,5.41,13.85,8.49,8.83,7.2,5.85,6,7.34,16.3.61,4.19.35,8.09,3.45,9.88,2.44,2.78,4.28,8.61,9.24,7.22-7.25,7.67,10.74,7.25,15.41,7.68-9.54,7.11-19.21-6.68-11.11,12.71l3.43-2.23c.54,1.92,2.16,3.72,2.5,5.69l1.12-3.84,4.06,3.07-3.12-9.84c1.76.54,3.84.35,5.55,1-1.28-1.35-2.4-3-3.8-4.22,4.45-.41,3.57-2.33,7.48,1.54.76-6.52-5.74-7.27-11.17-10,1.88-2.17,1.82-3.2,3.05-4.92l2.63,1-5.68-11.26c3.72-1.46,6.91,1.17,9.74,4.42l-1.51-3.65,4.56,1.28c-2-1.28-3.34-3.69-5.18-5.18,8.69-2.48,13.48-2.24,22-.51-1.36,1.85-2.51,4.5-4.18,6.07,7-7.65,8.81-9.7,19-10.93-3.71-4.51-7.21-11-12.3-11.69,6.05-9.38,7.15-13.61,7.55-24.55,5.66,4.19,5.88-4,4.19-9.4a17,17,0,0,1,1.18,2.42c3.57-3.93,9-20.67,16-11.5-2.14.07-4.42.72-6.55.57l3.55.64-1.18,1.8c7.87-.8,19.94.74,5.93,7.28,6.89-3.51,3.75,6.77,11.06,7,3.31.11,12.28-10.14,15.08-12.45-6.93,3.37-21.21,1.18-11.29-8.49l-.56,4.21c4.38-9.07,15.48-12.89,23.72-17.64-.34,4.8-2.87,8-7.73,7.92,7.7,3.42,1.8,13.35-4.13,15.8,9.93,3.88,24.78,6.6,33.63,12.52,11.69,7.83,2.48,13.27-2.73,20.9"/>
			<path class="cls-3" d="M2677.53,411.61c-3.08-.15-4.59,1.64-5.3-2.43h3.56c-5-1.28-2.54-1.88-5.93,2.43-4.39-.82-2.31-.3-5.37,0a25.9,25.9,0,0,1-4.18-4.28c4.61.66,5.32-.22,7.74-3.64-4.06-3.43-8.11-3.89-10.11,1.21.76-6,1.27-2.29-1.19-6.07-.43,3.3-2.25,5.09-2.93,7.28v-5.5c-1.09,2.88-2.61,5.64-3.56,8.57,2-4.05,2-7.76-2.37-8.57l-3,9.78c-1.68-1.52-4.3-2.13-5.87-3.76.77,2.12.72,4.08,1.75,6.18l-3-2.43c-1.32,2.24-3.74,4.32-4.74,6.65.69-2.17,1.06-4.47,1.75-6.65-.59,1.84-1.69,3.6-2.37,5.43v-3.64c-.39,3.05-1.42,1.13-.56,5.5l-4.18-2.43c.28,4.57-1.51,8-5.93,8.5l4.74,1.22c-4.74-1.14-6.48.7-5.31,5.43l-1.19-4.22-3,1.79,2.37,1.22h-3.56l3,3.07c-1.66.72-3.6,2.06-5.37,2.43l3.56,1.79c-2.36,0-4.75,1.16-7.12,1.28.15,2.91.42,2.34-2.37,6.65l4.12-.58c-2,.53-3.93,1.26-5.93,1.79l1.81,2.43c-3.38,0-2.34.59-4.74,4.86h3.56c-2.41.9-4.68,2.25-7.11,3.07l3.56-.64-3.56,2.43,1.75,2.43L2598,461.4l-.62-3-7.11,7.92c3.4,1.54,6.14.31,8.3-3.06-.62,6.55-5.07,8.29-7.67,3.64-4.35.09-6.06,2.39-5.37,6.71l-3-2.43,2.37,3.64c-1.94-1.23-4.09-2.27-5.93-3.64l4.18,3c-2.44-.65-5.25-.13-7.74-.58,1.17,1.65,1.7,3.88,3,5.43l-1.81-2.43c-1.76,2.2-1,1.46-3.56.64l1.19,1.79-4.74-2.43V479c2.19.57,4.38,1.22,6.55,1.85-5.28-1.69-5-.78-8.3,1.21l3.56,1.79-4.18-.58,3,1.22-2.37,2.43c3.71-1,4.4-.07,7.12-1.85l2.37,3.07,1.75-3.07c-.71,3.12-1.3,2.88-3.56,5.5-1.45-3.54-4.63-4.43-8.86-3.64l2.37,2.43h-3l1.19,2.43,2.37-1.22c-2.53,2.68-1.83,3.42-2.93,5.5l2.37-2.43-2.37,4.86c2.68-1.47,5.79-2.54,8.3-4.28-4.26,3.07-16.29,11.6-4.18,7.92l-4.12,3.65,3.56,1.21c-1.82-.4-1.47.92-4.74-.64-4.5,18.84,24.25,5.93,24.9-4.22.26,5.2.38,10.15.62,15.21l2.25-.51c-.34,1.57-.79,3.16-1.06,4.73,1.3-2.68.19-1.5.19-.51a22.49,22.49,0,0,1,2.06-3c-3.41,6.41,1.87,11.5,2.42,17.22.38,3.92-6.43,13.69,5.13,11.83,2.23-.36,3.56-5.77,5.16-7.05,3.62-2.9,3.12,1.58,7-3.53s2.95-12.13,2.29-17.89c.16,2.19.33,4.39.5,6.58.5-5.08-.74-4.42,2-6.71-1.06-.47-2.2-1.5-3.31-1.79,4.88-1.43,5-.27,7-4.47l1.06,3.26a26.77,26.77,0,0,0,4.18-4,26.62,26.62,0,0,1-2.87-2.11c4.58-1.68,5.39-4.46,1.56-8.05,1,1.64,1.91,3.28,2.87,4.92-1.4-3.77-8.13-7.9-8.61-9.48-1.6-5.2,2.12-15.68,2.87-21.2,7.57,6.32,18.07-14.34,14.91-21.86.7.06,1.7,1.28,2.31,1.6-.16-1.79-.37-3.58-.56-5.37,1.05.33,1.84,1.43,2.87,1.79.62-7.31,9.42-3.11,10.84,2.33,2,7.71-12.25,14.68-14.42,22.25-1.35,4.7-.38,29.55,8.33,24.26-.49,1.65,0,3.63-.56,5.24,8.5-3.67,17-7.29,25.52-10.93.49,4.43,4.31,5.8,8.92,6.07-2.77.82-5.88,1.36-8.53,2.53-1.41.62-1.85,3.86-2.14,3.92-3,.65-6.67-1.51-9.68-.9-1.75.36-9.82,2.54-10.86,4.59a6.26,6.26,0,0,0,5.68,8.9c1.25,21.53-6.72,2.46-14.23,7.67-6.49,4.51-2.56,18.71-1.81,24.93h-3.56c.86-2,1.44-4.83,2.69-6.65-2.2,4.42-4.36,6-5.68,9.72L2636,555l-2.24,1.79"/>
			<path class="cls-3" d="M2796.23,327c-2.6-1.3-5.42-2.17-7.68-4.86l2.37,3.65-7.73-8.5c-2.83,5.11-17.8,7-8.3,10.35l-3.56,4.28h11.3c-6.27,6.72-13.74-.38-20.22-3.71,7.08,2.62,4.47,8.78,8.42,12.59,1.71,1.65,6.61,2.48,8.84,4.16,2.66,2,4.88,5.7,7.08,8.18,6.11-15.85,15.08.75,22-1.79-6,4.36-9.51-.25-14.85-3.65-8.81,11.19,23.73,21.39,0,32.79,9-12.65-2.12-20.55-11.23-27-3.63-2.57-6.07-6.7-9.55-9.42-.85-.66-12.18-9.94-12.31-10-5.28-1.72-6.79,1.74-6.79,5.76,0-.29,5,13.57,5.49,14.52,2.91,5.39,8.46,8.36,11.58,9.77,4.78,2.17,9.59-2.95,11,7.86l-12.42-1.79,1.74-.64c-4.72,1.17-29.41,7.61-10.67,11.57-.36,1.7-.81,4.75-1.18,6.07-1.44-1.55-3.9-2.13-5.37-3.65-.06,5.83-7.62,14.51-11.85,16.42-1.45-4.3-2-4.77,0-8.49a11.27,11.27,0,0,0-3,9.07l-1.74-2.42-7.74,11,3,1.79c-4.79,1.73-3.23,18-12.49,7.29,11.25-8.24-4.73-8.56-10.11-9.08,8.21,2.7,9.75,15.78,12.49,23.08-12.09-8.23-16.53,9.31-8.93,17-3.8-.9-7.6-.43-9.49,2.42l1.19-3c-1.77-.83-4.57-.85-6.5-1.21-2.25,8.22,9.86,3.1,5.3,12.14-7.32-2.65-19.66-6.24-14.85-17-2.56-.18-5.11-1.84-7.67-1.86l2.37-1.79c-2.59-1.65-5-4.2-7.73-5.5,7.22.8,37.42,9.19,33.26-8.5-2-8.34-25.7-14-31.45-12.78"/>
			<path class="cls-3" d="M2797.47,325.26c2.55,1.36,1.09,1.75-1.18,1.85"/>
			<path class="cls-3" d="M3079.8,315.26c-.14-2.26-1.11-4.78-1.63-7-2,4.6-6.14,3.4-10,.57-.08,1.85-.89,3.47-.62,5.5-9.12-7.88-11.16-25.45-20.16-31,.51,9.31,3.1,14,6.49,22.49-1.55-1-3.68-1-5.3-1.85.38,1.94-.44,4.14,0,6.07-5.43-2-8-13.65-11.4-18.77-3.22-4.83-6.84-9.36-9.38-14.66,5.08-.78,7.36,4.6,10.67,8.5l-1.18-4.22c1.72,2.46,3.76,4.75,5.37,7.29-5.68-10-10.55-18.08-13.11-29.21a54.45,54.45,0,0,1,5.37,4.86l.56-1.79c1.34,2.73,3.35,4.71,4.81,7.28l-1.25-3.65,1.81,1.8c-1.6-2.77-1.69-5.49-2.37-8.5,3.58.4,6.1,3.26,7.73,4.86l-1.81-1.21,3,1.85-1.19-2.42c3.22,4,7.37,5.91,9.49,8.49,0,.17-2.73-8.21-1.81-6.07-1.54-1.53-23.3-35.59-25.52-14.64-5.76-4.55-8.49-11.62-13.6-16.73-3.56-3.55-9.46-6.36-13.08-9.84-8.1-7.77-10.56-19.06-21.14-28-11.41-9.66-24.45-19.23-38.13-25.46-6.83-3.11-29-11.48-33.3-5.65-1-2-1.91-2-3-3.65-5.3,10.81,5,10.09,9.49,17.06-1.94-.71-4-1.07-5.94-1.85,2.07,1,3.91,2.53,5.94,3.64-1.86-.54-4-.22-5.94-.57,2.49,3.45,1.29,4.36,1.82,6.65-27.86-19.65-59.2-30.18-76-57.71a56.28,56.28,0,0,1,4.74,3.64l1.18-1.21-14.84-10.35-1.18,1.21,3,2.42c-7.44-.41-15.42-1.51-22.34-4.12-6.26-2.36-10.85-8.13-16.85-2.53,3.26-1.95,4.09-3.22,4.74-4.28,2.58-.08,4.29-.88,6.55-1.21l-1.81-1.21,3-.64c-6.69-1.24-24.68-.89-27.34-6.07,5.76,3.59,6.37-1.39,11.81-1.22,3.56.11,6.45,2.27,10.16,3.07,8.11,1.76,16.78.8,24.9,2.91s12.07,5.66,21.41,4.05c8.27-1.43,15-5.52,22.59-9.39-10-2.76-19.22-4.5-27.33-7.29-2.18-.75-10.61-3.3-13.61-3.71-5.35-.73-7.71,4.69-13.1-.57-3.33,4.05-1.57,3.93-7.11,3.64,1.76,1.15,3,3.06,4.74,4.28-5.71.2-12,1-17.49.13-4-.66-5.46-4.27-11.6-3.77l3-2.43c-4.25,1.19-6.28-.07-10.11-1.53-2.62-1-5.57-6.1-6.56-6.39-4.37-1.27-14.27,1.07-19.59.58-10.17-.94-30.79-12.63-27.28,3.71a41.8,41.8,0,0,0,7.74,3,24.38,24.38,0,0,0,2.93,2.43c-4.58-1.5-12.49-6-17.19-5.29-5.71.91-6.51,4.07-11.26,4.71l2.37-4.28c-8.26.1-10-10.61-17.22-8.5-1.65-1.38-.26-1.57-4.18-1.85l3.55,2.43c-3.11.14-4,1.79-5.93,2.43l3,1.85c-2.11-1-4.41-1.53-6.55-2.43l.62,1.79c-3.6-.73-3.41-.48-7.12.64a26.47,26.47,0,0,0,16.61,7.92l-.63-4.86c-1,13.85,19.44,23.87,29.5,29.31,6.22,3.36,5.89,3.19,10.88,3.48-.94-.05-.45-4.91,3.52-3.51,3.36,1.18,3.43,5.4,2.4,7.79,8.38-.32,12,9.64,20.78,7.87-2.41,7.58-5.39,8.6.5,15.64,6.21,7.43,10.62,4.49,10.8,16l-3.56-1.85c-.51,6.72,4.28,8.2,10.67,7.92a30,30,0,0,1-5.37,1.85l2.38-1.85-5.3-.57,5.3,12.71c4.34,0,7.79,1.21,12.48-1.21,3.38,3.91.81,3,5.94,4.28-3.73,6.5,5.07,8.24-.56,12.79l12.41,2.42-8.86,7.87-2.37-3-1.82,3c-6.91-6.46-3.12,5.81-7.67,9.13,10.63,1,12.56,14.49,5.3,12.15a9.81,9.81,0,0,0,4.74,12.14c-2.34,0-4.79.82-7.12.64l3,1.21c-4.59,1.79-4.28,3.94,0,6.08v-3.07c2,5.42,2.93,10.48,7.67,14-8.46-4.05-18.87-24.66-27.27-19.43l2.38-1.85c-8.21-3.33-12,4.49-8.3,11.57l-3.56-2.43c-.43,2.07-2.08,4-2.37,6.07l-2.38-4.21-3.55,3c3,5.42,12,6,9.49,11.57l4.73-.64c-2.8,1.94-2.27,5.12,0,8.57l-2.37-1.85c-1.48,4.34-1.55,3.91,0,6.71l.56-2.43c.48,6.69-1.61,15.83,5.37,18.79l-3,.64c3.19.27,6.33,1.88,9.49,2.43-3,8.31-9.35,17.32,3.62,19.43,3.36.55,7.22-2.22,10.53-1.48,3.79.85,9.29,6.05,12.56,8.19"/>
			<path class="cls-3" d="M3157.14,529.53c4.34-12.51,1.2-50.39-11.31-50.88-2.2-.09-.74,5.34-6.54,4-3.27-.74-1.86-2-3.92-5.39-1.6-2.66-3.37-11.32-3.78-13.39-1.89-9.67-.57-18.33-1.19-26.78,1,3.16,2.71,4.43,4.18,6.71-.81-7.15-2.91-25.85-8.3-32.86l1.75.65c-1.58-3.69-.58-3.81-4.12-6.72l2.93-3.06c-2.1-3.72-2.65-20.56-6.49-20.64-1.1-5.08-2.1-14-5.37-14.57-1.72-9.74-6-15.66-10.11-23.72l.62,2.43c-2.75-4.18-10.9-23.5-14.85-23.72a24.64,24.64,0,0,0-2.37-5.5l1.18,4.28c-.9-2.26-2-4.45-2.93-6.71a19.59,19.59,0,0,0,.56,3.64,2.71,2.71,0,0,1-.63-2.42,18.9,18.9,0,0,0,1.82,10.93l-6.56-14.57-2.37,3.65"/>
			<path class="cls-3" d="M2994.48,698.51a3.43,3.43,0,0,0,3.56-1.85l1.18,3.65a54.4,54.4,0,0,0,1.81-5.43l-1.18,4.86c7.08,2.7,9.08-2.48,13-7.29-.58,5.29-3.46,8.41-6.49,12.79,9.12.35,12.92,2.82,17.46-4.89,3.49-5.92-1.34-13.24,3.88-17-.42,2.59.07,4.16,0,6.07l1.74-2.43c-2.38,15.4,16.73,34.7,28.91,44.07,2.43,1.87,14,16.33,15.64,16.71,8.8,2.06,9.13-15.09,12.41-20.07l-1.74,1.21c-.35-5.69,2.53-9.52,2.58-14.1s-3.32-11.54-2-12.61c1.25-7-3.44-8.79-4.43-15.08-.94-6,.72-5.95,2-11.28,2.25-9.35,3.08-17.23,5.08-26.82,2.12-10.16,3.14-20.47,4.6-30.69a83.5,83.5,0,0,0,1.06-14c-.06-3.53-.32-11.41-1.18-15.85l2.37,2.42a16,16,0,0,1,2.38-5.42l-1.19-3.07,1.75,1.21c.72-3.74-1.12-2.47,1.18-4.22l-1.74-4.27,2.93,1.21c-.77-2.31-.76-5.07-1.74-7.29l2.37,3.07c-1.94-3.1-2.59-6.48,0-9.78l11.86,6.07-.57-4.86,1.19,3.65c3.22-4.93,4.58-4.91,3.56,1.21l2.93-.57-1.18-3.65c5.94,5.64,7.24,11.17,9.49,18.86v-4.86l.62,4.22c.51-6.61,4.06-11,1.18-18.22,2.62-2.41,2.21-6.07,0-9.72l3.56,2.43.56-3.06c1.92,4.94,4.26,9.92,7.71,14l-.52-3.06a10.86,10.86,0,0,1,4.77,9.77l1.14-1.85c-.29,4.34.06,9.07,2.39,12.79a35.3,35.3,0,0,1-.62-3.65c1.17,5,1.68,10.08,2.39,15.15,4.18-11.84,6.56,3.85,10.07,7.35,4.39-10.29,3.07-18.1.52-28.56a17.15,17.15,0,0,0-5.29,10.93c-1-2.59-3-4.77-4.15-7.29l-.52,4.86c-3.56-8.12-8.23-28.6-5.4-37.07.41,1.85,1.31,3.59,1.76,5.43a17.73,17.73,0,0,1,3.63-10.93l2.91,3.65-.62-4.86,1.25,3.64c.12-3.55,1.38-5.74,2.39-9.13.36,3.06,1.42,6.06,1.76,9.13.76-4.69,1.16-11.08-1.25-14.56"/>
			<path class="cls-3" d="M2811.07,1021.92c-1.83-3.64-3.75-5.28-1.18-8.49l-2.37.57,3.55-4.22c-2.22-.21-4.27-2.11-6.49-2.43,2.86-6,6.37-12.21,10.87-17.13,2.92-3.19,9.69-6.45,7.48-9,10-.79,18.19-16.49,24.91-23,9.38-9.07,19.19-16.6,27.67-26.57s13.22-20.24,19-32.24c2.9-6,7.66-25.13,12.75-28.26l-3,1.85,1.26-10.35c-6.8.35-9.54,6.92-14.76,10.59-5.82,4.1-13.53,8.13-19.69,11.59-4.77,2.68-12.7,9.68-17.92,11.07-6.54,1.73-12-6.26-18.9-1,22.66-11.52-22.11-16-25.52-20.63l-1.18,3.64c-4.27-6.66-8.29-15.11-14.06-20-3.23-2.72-6.57-1.43-9.08-4.78-2.39-3.2-3.07-11.42-4.14-15.41l1.75.65c-2.31-5.35-23.65-15.12-15.41-19.5-9.67-3.83-13.25-16.29-19-24-4.9-6.54-13.69-11.39-13.6-20.34,5.15,7.92,7.83,11.32,16,15.79l4.12-16.42-1.74,12.79c12.51-4.11,19.51,19.05,26.89,24.69,3.71,2.84,8.13,2.89,11.81,6.5,5.19,5.09,3.51,12.3,7.36,16.63,2.69,3,11.52,4.4,15.11,6.84,4.42,3,14.78,11.16,17.24,16,4.35,8.52,1.39,25.52,14,25.81,8,.18,9.36-6.81,13.83-10.74,5.27-4.63,12.44-7.31,18-11.53,8.65-6.52,23-17.38,29.11-26.13,2.51-3.61,3-7.41,5.59-11,3.79-5.24,11.29-7.84,15.55-12.73,1.45-1.67,1.38-6,2.59-8s4.71-4.26,6.17-6.27c2.75-3.77,6.1-11.67,7.05-15.32.59-2.24-.72-6.16-.23-8.92.31-1.77,2.43-.77,3.29-3,2.55-6.64,5.51-14.89,1.16-19.09-7.55-7.28-33.13,7.9-28.34-14.83-5.12,11.56-8.54,21.5-17.22,29.49-2.69,2.47-9.3,8.47-13.15,7-3.52-1.34-2.53-9.75-2.89-14-6,2.38-3.87,6.7-3.55,12.79-2.87-2.71-5.57-6.47-7.89-8.87-1.08-1.11.3-3.56-1-4.66-1.56-1.31-5.12-.66-6.73-1.82-4-2.89-12.2-13-15.84-11.44,1.95-4.2,3.06-2.43,0-6.64,4.92-1.94,5.68-1.1,6.56-5.5,7.73,1.24,5.61-2.27,12.06,1.19,3.58,1.92,5.94,7.68,9.74,9.06,2.53.92,5.17-.83,7.95-.38,17.12,2.76,20-.05,30.78-13.52,7.78,8,7,8.2,17.19,4,6.16-2.56,13.09-4.94,18.68-8.65,11.09-7.36,20.06-19.16,29.41-28.74,4.5,5.16,8-.62,10.67,6.64l1.18-3"/>
			<path class="cls-3" d="M2734.5,1086.35c2.26-1.24,4.39-2.85,6.55-4.25-1.34.29-2.14.44-3.55.64,7.87-2.5,25.15-4.09,28.45-12.22-12.61-2.85,0-5.77,4.94-8,8-3.51,15.05-8.22,23.27-11.78,5.86-2.54,16.83-5.49,20.74-11.47,3.62-5.52-1.45-10.9,3.91-16.81a30,30,0,0,0-7.74-.58"/>
			<path class="cls-3" d="M2331.49,809.73c-3.37,2.77-7.37,5.62-12.49,6.13,3.71,6.43,4.88,15.94,12.49,17-4.84-.66-5.16-1.39-8.3-4.28-2.58,3.85-2,6.56,2.38,7.92l-4.18-1.21c1.85,1.11,3.51,2.55,5.37,3.65h-3c2.5,3.72,5.51,6.45,10.73,7.28l-4.73-1.21,3.55,3.07h-4.18c2.61,3.38.84,2.25,4.18,3l-1.18,1.86c5.46,1.86,5,10.29,13,13.35-1.89-1.12-4-2-5.94-3l3.56,3.64-1.81.57c3.77,3.13,3.07,7.21,5.93,10.35l-3.56-1.21c8.38,9.71,15.94,19.39,25,29.79,11.28,13,16.9,16.2,33.09,19.54,14.43,3,25.65,13.35,39.81,14.46,15.07,1.18,29.49,1,44.61,3.07l-4.12.64c8.09,1.55,11.75,6.58,19,9.08l-3-.57c2.4,1.05,1.47,1.07,4.18,1.21l-3,1.8c3.17,4.56,8.6,8.35,12.49,6.07l1.18,1.85-.56-2.42,1.74,2.42.62-2.42c2.89,3,7,3.74,11.24,3.64l-.56-2.42c4.78,2.72,9.11,7.45,14.22,9.08l-2.37-.57c7.22,4.54,1.35,9.79-1.74,15.2,2.07,2,1.49,2.3,2.93,4.22l-3.56-.57c2.23.65,4.35,1.71,6.56,2.43-1.92-1-4.09-.87-5.93-1.86-1.43,5.21-1.81,4.88-6,4.86,6,7.39,10.21,11.56,18.13,16.74,5.65,3.7,12.93,13.6,18.69,14.89l-3.56.57,10.67,11-3.56,2.42c2.93,3.82,9.43,7,7,11.71-2.19,4.24-10.33,3.33-13.51,8.36-7.62,12,8.43,14.43,17.11,20.31,9.22,6.24,13.16,11.22,24.78,13.79,9.49,2.1,19.12,2,28.72,2.35"/>
			<path class="cls-3" d="M2485.2,709.44c-8.3-2.08-13.68,1.92-21.35-.75.25.09-10-3.57-11.18-4.43-1.69-1.21-3.58-8.45-4.86-8.81-5.39-1.53-12.82,10.91-18.52,13.35-9.72,4.16-17.93,1.27-22.61,12.76-3.66,9-.94,12.18-11.51,16-6.51,2.32-8.4-.18-14.49.73-5.44.81-6,2.44-11.18,5.92-3,2-6.37,2.54-9.44,4.56s-6.46,5.53-9.66,7.76c-6.58,4.6-16.6,8.83-17.74,18l1.81-1.85c.86,3,3.05,7.25,2.94,10.35-.07,1.94-3.84,3.22-4,5.73-.68,10.5,1.24,12.18-4.31,21.62l2.38-1.21"/>
			<path class="cls-3" d="M2592.31,520.94c.57-2.64,0-.2,0,0Z"/>
			<path class="cls-3" d="M2578.43,527.67l4.12,1.22c-3.06,3-.95.71-2.94,4.27l-1.18-3.06-3,1.85Z"/>
			<path class="cls-3" d="M2690.57,294.83c-.79,2.45-3.44,2.61,0,4.86Z"/>
			<path class="cls-3" d="M3142.92,639Z"/>
			<path class="cls-3" d="M2691.75,120.41l4.82-2.42c-3.77,0-7.54-.25-11.29-.64C2687.28,119.57,2689.82,119.89,2691.75,120.41Z"/>
			<path class="cls-3" d="M3158.28,529.53c.35-2.37,1.38-8.21,0-6.08"/>
			<path class="cls-3" d="M2937.51,995.14l3-1.79C2938.73,993.33,2938.83,994.12,2937.51,995.14Z"/>
			<path class="cls-3" d="M3131.6,613.38a6.15,6.15,0,0,0,0-3Z"/>
			<path class="cls-3" d="M2925.65,848.08l3.56-3.65-9.49,4.86C2921.69,848.89,2923.71,848.59,2925.65,848.08Z"/>
			<path class="cls-3" d="M2594.46,537.39Z"/>
			<path class="cls-3" d="M2346.91,757.45Z"/>
			<path class="cls-3" d="M2315.46,252.33c2.71-2.76,4.94-3.19,3.55-7.36A67.83,67.83,0,0,0,2315.46,252.33Z"/>
			<path class="cls-3" d="M2899.5,155.63c6.53,7,13.67,2.34,21.41,2.14,9-.24,18.41,2.21,27.27,3.36-4-.57-6.87-2.79-7.68-6.71l2.94.64c-3.25-.84-23.93,4.89-19.6-7.29-10.46,3.67-16.9,6.62-28.46,7.87C2897.27,158.77,2897.32,156.08,2899.5,155.63Z"/>
			<path class="cls-3" d="M2938.14,139.84,2925,130.7C2928.53,135.2,2933.22,137.17,2938.14,139.84Z"/>
			<path class="cls-3" d="M2799.84,96.06c-2.54-.53-5.17-.81-7.73-1.21C2795,96.88,2796.74,96.22,2799.84,96.06Z"/>
			<path class="cls-3" d="M2870.42,104.56c.14.89-3.61-1.84-1.44.31,1,1,4.79,1.74,6.19,2.11Z"/>
			<path class="cls-3" d="M2979.63,171.48c1,5.19,5,6.65,9.55,9.08-.27-.89-.94-1.54-1.18-2.43,8.41,3.64,24,14.34,26.08,23.14l-4.12-3.65c3.38,4.77,8.63,6.56,12.5,10.69s5.75,9.75,8.72,14.5c4.64,7.45,9.92,16.06,16.73,21.59-3.88-10.68-12-17.79-17.23-28.56,1.49,1.33,3.31,2.3,4.81,3.64-1.11-4.81-5.12-7.79-8.36-11.57-1.61.58-1.69-1-1.75-1.21-1.35-1.26-1.67-1.27-2.37-3l2.37,2.43a28.41,28.41,0,0,0-8.93-10.93l2.38.57c-3.73-2.6-6.24-6-9.49-9.14,1.14.66,2.57,1.26,3.56,1.85-6.23-6.67-28.6-22.43-37.39-19.43C2976.66,172.05,2977.84,171,2979.63,171.48Z"/>
			<path class="cls-3" d="M2951.17,148.35l-3-2.43A15.61,15.61,0,0,0,2951.17,148.35Z"/>
			<path class="cls-3" d="M2949.37,150.2c3.47,3.74.15,8.83,2,11.2,2.33,3,9,2.7,13,4.85,5.75,3.1,7.06,9.89,15.28,10.09a36.35,36.35,0,0,0-5.3-6.71l.56,4.27c-6.09-8.07-17-26.52-29.64-26.78Z"/>
			<path class="cls-3" d="M2945.81,145.91l2.38,1.21c-2.64-1.95-5.53-3.68-8.3-5.43C2941.44,144,2943.42,144.46,2945.81,145.91Z"/>
			<path class="cls-3" d="M2595.66,49.85c3.44.11,4.78-.74,7.67-.58l-1.74-1.85a16.28,16.28,0,0,0,5.93-.58c-2.15-.58-3.5.08-5.37,0l.62-1.85c-1.92,1.1-4.06,1.89-5.93,3.07l1.74.58C2595.23,47.92,2596.24,49,2595.66,49.85Z"/>
			<path class="cls-3" d="M2514.9,71.77c-1.88-1.32-4-2.44-5.93-3.64C2507.73,72.21,2510.56,72.87,2514.9,71.77Z"/>
			<path class="cls-3" d="M2517.9,69.34c-1.88.39-3.25.13-4.18,1.21,2.37-.37,4.79-1.25,7.11-1.85l-4.73-1.21,1.18,1.21-4.74.64Z"/>
			<path class="cls-3" d="M2655,60.2l3.56-.64C2653.27,58.2,2655.07,59.46,2655,60.2Z"/>
			<path class="cls-3" d="M2662.12,59c1.94.17,4,0,5.93,0-3.35-2-4.87-2.08-8.3-1.85Z"/>
			<path class="cls-3" d="M2660.3,37.13c-3.34-.12-6.71,0-10,0A13.54,13.54,0,0,0,2660.3,37.13Z"/>
			<path class="cls-3" d="M2598.58,50.49l-4.12,1.79C2598.1,52.63,2597.93,51,2598.58,50.49Z"/>
			<path class="cls-3" d="M3143.54,393.32c.22,2.43.76,4.87,1.14,7.28,1.31-.24.12-.58,1.25.65A72.41,72.41,0,0,0,3143.54,393.32Z"/>
			<path class="cls-3" d="M3036.67,225c3.94,5.4,6.13,8.48,10.68,13.94l-1.82-2.42,3,.64c-3.57-4.68-7.77-13.92-13-15.79Z"/>
			<path class="cls-3" d="M3078.17,273l-2.94-3.65A17.69,17.69,0,0,0,3078.17,273Z"/>
			<path class="cls-3" d="M3054.46,254.12c-.49-.22,1.36-.2,2.94,1.21-2.25-2.35-3.25-4.27-5.31-6.64,3.78,2.17,6.42,5.35,9.49,8.5-1.07-2.17-1.17-3.17-3-5.5l3.61,3.06c-3.17-5.9-8.34-10.06-13.1-14.64C3047.15,245.63,3051.43,249.33,3054.46,254.12Z"/>
			<path class="cls-3" d="M3117.37,357.47l3-1.21L3107.26,335C3106.87,342,3114.16,350.76,3117.37,357.47Z"/>
			<path class="cls-3" d="M3137,439c-3.06,1.22-1.88,17.7,3.53,21.86C3142,453.41,3139.11,446,3137,439Z"/>
			<path class="cls-3" d="M3138.15,386.68a15.19,15.19,0,0,0,4.15,9.08c-.5-1.79-.69-3.69-1.14-5.44.7,2.25,1.63,4.43,2.39,6.65-1.23-7.37-2.75-15.47-5.6-22.37.34,1.53.25,5.26.21,3.51,1.07,2.61,1.58,5.43,2.39,7.93-5.1-7.2-7.07-16.24-11.87-23.72A108.57,108.57,0,0,0,3138.15,386.68Z"/>
			<path class="cls-3" d="M2682.27,74.78c-3.77-2-8.23-3.48-12.42-2.43C2674.12,73.89,2679.85,77.67,2682.27,74.78Z"/>
			<path class="cls-3" d="M2198.57,869.36c-1.45-.24-1.58-2.2,1.18,2.42C2199,870.65,2197.81,869.24,2198.57,869.36Z"/>
			<path class="cls-3" d="M2197.32,867.5Z"/>
			<path class="cls-3" d="M2507.16,68.7,2503,66.27C2504.11,69.05,2505.22,67.91,2507.16,68.7Z"/>
			<path class="cls-3" d="M2275.7,145.91c-2,1.51,2.5-2.06,2.49-2.05Z"/>
			<path class="cls-3" d="M2437.14,75.42c6.82-1.39,13.24-5.14,19.6-7.92a47.3,47.3,0,0,0-5.93,2.43l.56-2.43c-5.71,4.56-13.62,2.5-18.35,7.92-3.48-2.17-6.74,1.17-11.29,3.64Z"/>
			<path class="cls-3" d="M2466.85,69.34c.57.73-.83,1.91,2.37,1.21Z"/>
			<path class="cls-3" d="M2490.57,69.34c-.78,1.08-2.8-.53-1.19,1.79C2491.87,71.52,2489.77,70.43,2490.57,69.34Z"/>
			<path class="cls-3" d="M2491.75,66.91h-2.94c2.92.86,2.09,1.11,5.93.58l-2.37,1.21a71.05,71.05,0,0,0,9.49-.58C2497.55,66.7,2495.82,66.43,2491.75,66.91Z"/>
			<path class="cls-3" d="M2486.45,71.13h2.93C2488.1,69.13,2488,70.76,2486.45,71.13Z"/>
			<path class="cls-3" d="M2481.08,64.49l4.12-1.21v3.64l1.81-3.64c.74.26,2.71.11,5.37.57-6-2.71-11-1-17.22,0C2479.89,62.72,2481.13,64.53,2481.08,64.49Z"/>
			<path class="cls-3" d="M2691.2,725.24c1.43-.58,3.08,1.45,4.18-3Z"/>
			<path class="cls-3" d="M2561.77,660.23c-6.58,2.2-7.77,7.53-4.74,13.36C2561.89,670.75,2563,665.48,2561.77,660.23Z"/>
			<path class="cls-3" d="M2358.82,724.66l-1.81,1.79,3.56.64Z"/>
			<path class="cls-3" d="M2550.54,696.09c8.71.2,17-12.56,8.67-19.12C2549.21,669,2550.67,691.72,2550.54,696.09Z"/>
			<path class="cls-3" d="M2370.06,731.37l2.37-4.28a27.89,27.89,0,0,0-5.93,3.07Z"/>
			<path class="cls-3" d="M2515.53,679.09c-2.09.14-4.53,1.23-6.56,1.79C2512.59,685,2516.85,684.73,2515.53,679.09Z"/>
			<path class="cls-3" d="M2351.65,722.23a49.48,49.48,0,0,0,5.37-2.42,21.7,21.7,0,0,0-5.93-1.22Z"/>
			<path class="cls-3" d="M2376,727.09c-.72-.64,1-2.95-2.94-.64Z"/>
			<path class="cls-3" d="M2531.5,562.32c-.37-4.73-3.53-6.79-8.3-6.64,2.74-4,2.53-7-1.74-8.5,9.36.68,1.2-5-.07-10-1.8-7.11,2.11-14.27-5.3-18.55,5.94-.41,7.59-4.1,11.29-8.57l-12.49-3.65,10.12-7.86c-6-4.09-11.22-4-11.86,4.21l-3.62-1.79c1,4.73-.45,8.47-5.3,9.08,1.84.35,3.5,1.9,5.3,2.42l-8.29,11c2.43-2.19,5.25-3.94,7.73-6.07-2.35,4.57-5.86,8.94-5.37,13.94,2.44-2.32,5.84-1.16,10.11,0-4.13,1.67-5.63,4.55-3.56,8.5l2.38-1.22c-3,2.71-4,5.73-1.74,8.57-4.3-2.09-9.21-2.53-12.49,1.21h4.12c-.84,5.4-5,5.36-10,7.29,4.84,4.29,8.52,10.35,15.41,6.07-4.78,6.39-6.25.54-11,2.1-3.92,1.29-8.29,4.49-12.14,7,10.72,2.25,12.53-.55,22,1,6.25,1,16.19,6.58,20.75.24-2.05-.82-3.86-2.29-5.93-3.07C2526.08,569.09,2528.62,566,2531.5,562.32Z"/>
			<path class="cls-3" d="M2645.51,513.67c.19,1.41-2.64,3.61,2.94,1.22Z"/>
			<path class="cls-3" d="M2478.7,549.6c15,.85,8.89-3.6,15.27-15.41,2-3.61,6,.38,5.89-5-.1-5.12-.51-7.7-6.93-5.71l3-1.21-1.82-2.42-2.93,3-.62-3c-2,.58-4.1,2-5.94,3l3.56,1.86c-3.37,3.72-7.37,2.59-11.29-.64,2.06,3.94.85,6.16-3.56,6.71,2.23,1.13,3.74,3.65,5.93,4.86-2.64.86-5,3-7.67,3.65,2.14.49,4.31,1.52,6.49,1.79-3.27-.56-6.74-.26-10-.57l2.94,2.42-4.12,1.21L2471,546l-4.12.57,4.12.64L2468,549Z"/>
			<path class="cls-3" d="M2507.16,505.82l-1.74-4.28a42,42,0,0,0,.56,6.71Z"/>
			<path class="cls-3" d="M2501.86,514.32h3.56l-.63-2.43Z"/>
			<path class="cls-3" d="M2510.15,494.25c-2.71,1.51-4.88,2.74-5.93,5.5C2507.55,499.2,2508.67,497.3,2510.15,494.25Z"/>
			<path class="cls-3" d="M2657.37,702.16l-3,1.21,11.29,7.29C2665.18,706.07,2662,703,2657.37,702.16Z"/>
			<path class="cls-3" d="M2584.35,547.74c-.27-5.73-1.64-6.45-4.18-1.21Z"/>
			<path class="cls-3" d="M2590.28,553.82c-.37-6.3,6.56-8.29,3.56-14.57l-1.74,4.27-1.18-3.7C2583.2,541.76,2588.19,547.74,2590.28,553.82Z"/>
			<path class="cls-3" d="M2596.84,556.25l2.93,1.21v-3Z"/>
			<path class="cls-3" d="M2624.11,527.67l.62,4.86a51.35,51.35,0,0,0,4.12-8.49C2627.3,525.23,2625.54,526.34,2624.11,527.67Z"/>
			<path class="cls-3" d="M2601.58,708.23l-23.16.64c1.17,7.3,11.84,10.09,17.79,13.36Z"/>
			<path class="cls-3" d="M2643.7,524c2.13-1.44,4-3.7,5.93-5.43a24.24,24.24,0,0,0-7.11,0Z"/>
			<path class="cls-3" d="M2636,710.09l3.55.57-1.74-3Z"/>
			<path class="cls-3" d="M2660.93,736.23c5.71,1.68,18.3,4,20.78-2.43-5.67,4.57-14.31.21-20.78-1.21Z"/>
			<path class="cls-3" d="M2592.91,735.08c1.56-1.38,4.54-1-.69-2.43Z"/>
			<path class="cls-3" d="M2681.71,700.31c-2.53-1.78-2.21-4.19-5.93-1.8C2677.88,701,2679.23,700.31,2681.71,700.31Z"/>
			<path class="cls-3" d="M2726.83,729.51c4.31,5.85,9.43,3.86,13.6-1.21-1.26-3.69-1.08-3.82,2.38-7.28Z"/>
			<line class="cls-3" x1="3159.53" y1="642.6" x2="3159.53" y2="644.38"/>
		</g>
	</g>
</svg>
