<?xml version="1.0" encoding="utf-8"?>
<!-- Generator: Adobe Illustrator 19.2.1, SVG Export Plug-In . SVG Version: 6.00 Build 0)  -->
<svg version="1.1" id="Graphic" xmlns="http://www.w3.org/2000/svg" xmlns:xlink="http://www.w3.org/1999/xlink" x="0px" y="0px"
	 viewBox="0 0 398.4 398.4" style="enable-background:new 0 0 398.4 398.4;" xml:space="preserve">
<style type="text/css">
	.st0{fill:none;stroke:#FFFFFF;stroke-width:20;stroke-miterlimit:10;}
	.st1{fill:#FFFFFF;}
</style>
<g id="GooglePlusBotton">
	<circle id="GooglePlus" class="st0" cx="199.2" cy="199.2" r="189.2"/>
	<path class="st1" d="M199.2,10C94.7,10,10,94.7,10,199.2s84.7,189.2,189.2,189.2c104.5,0,189.2-84.7,189.2-189.2S303.7,10,199.2,10
		z M144,313.4c-58.8,0-106.6-47.7-106.6-106.6c0-58.8,47.7-106.6,106.6-106.6c27.6,0,52.8,10.5,71.7,27.7
		c-22.3,21.1-21.6,22.3-30.3,31.1c-10.9-9.1-22.9-15.6-41.4-15.6c-35,0-62.2,28.3-62.2,63.3c0,35,27.3,63.3,62.2,63.3
		c34.5,0,48.6-14.9,57.6-42.3c-16.7,0-57.6,0.1-57.6,0.1v-42.2c0,0,81.5,0,102.3,0C253.5,236.8,232,313.4,144,313.4z M338.3,219.8
		v30.7h-30.9v-30.7h-30.7v-30.9h30.7v-29.7h30.9v29.7H368v30.9H338.3z"/>
</g>
</svg>
