<svg id="Layer_2" data-name="Layer 2" xmlns="http://www.w3.org/2000/svg" viewBox="0 0 5445 1221">
	<defs>
		<style>
			.cls-1{fill:#ad1a1a;}
			.cls-1,.cls-2,.cls-3,.cls-4,.cls-5,.cls-6,.cls-8{stroke:#fff;stroke-miterlimit:10;}
			.cls-2,.cls-3,.cls-4,.cls-5,.cls-6{fill:none;}
			.cls-2{stroke-width:20px;}
			.cls-3{stroke-width:7px;}
			.cls-4{stroke-width:8px;}
			.cls-5{stroke-width:3px;}
			.cls-6{stroke-width:6px;}
			.cls-7{fill:#fff;}
			.cls-10,.cls-8{font-size:56px;font-family:Myriad Pro;}
			.cls-8{stroke-width:0.25px;}
			.cls-9{letter-spacing:-2px;}
		</style>
	</defs>
	<title>InteractiveHeaderWithCircle</title>
	<rect class="cls-1" x="0.5" y="0.5" width="5444" height="1220"/>
	<circle class="cls-2" cx="2719.59" cy="617.75" r="543.65"/>
	<g id="Brain">
		<path id="Stem" class="cls-3" d="M2587.35,758.3c8.5,17.2,19.3,39.1,35.5,48,15.8,8.7,50.8,15.4,57.3,15.8,1.9,0.1,3.9.2,5.5,1.3a11.44,11.44,0,0,1,3.2,3.7q14.4,22.65,30.2,44.4c13.2,18.2,34.2,30.8,51.9,44.8s18.6,37.4,54.8,29.4c6.9-1.5,14.4-.9,20.1-4.8s7.2-8.4,4.9-15c-2.9-8.5-15.7-9.4-23.3-13.9-7.1-4.2-13.4-22.8-23.1-33.4-5-5.4-8.1-11.9-13.2-14.2-2.6-1.2-30.1-11.5-51.9-33.1-18.3-18.1-31.7-28.5-39.4-45.7-16-35.6-12.6-72.4-12.6-72.4-37.4-2.5-97.6,33.4-102.2,39.3A53.06,53.06,0,0,0,2587.35,758.3Z" transform="translate(87.19 64.1)"/>
		<g id="BottomBack">
			<path id="OuterBottomBack" class="cls-4" d="M3047.15,670.1s7.9,61.3-22.9,101.4c-32.4,42.2-9.7,37.3-113,90.9s-199.4-50.4-211-75.8-14.1-51.5-14.1-69.6c91-24.7,235.4-60.4,285.7-67.9C3023.35,651.4,3047.15,670.1,3047.15,670.1Z" transform="translate(87.19 64.1)"/>
			<g id="InnerBottomBack">
				<path class="cls-5" d="M3049.55,705.7c-76.3-5-152.5,8.1-227.8,21.1-19.9,3.4-40,7-58.2,15.7" transform="translate(87.19 64.1)"/>
				<path class="cls-5" d="M2847.65,863.8a133.5,133.5,0,0,1-63.7-13.2" transform="translate(87.19 64.1)"/>
				<path class="cls-5" d="M2894.55,796.4a499.1,499.1,0,0,1-162.2-6.6" transform="translate(87.19 64.1)"/>
				<path class="cls-5" d="M3039.75,742.1a308.31,308.31,0,0,1-71.5,22c-14.5,2.6-29.1,4.2-43.8,5.7-41.8,4.3-83.9,8.2-125.8,5.1" transform="translate(87.19 64.1)"/>
				<path class="cls-5" d="M3011.85,788.1c-16.6,9.2-33.9,17.3-52.2,22.6-24.4,7-50.1,8.5-75.5,9.6q-63.6,2.55-127.3,1.3" transform="translate(87.19 64.1)"/>
				<path class="cls-5" d="M2942.35,844.2c-35.1,6.7-71.8,13.4-106,3.2" transform="translate(87.19 64.1)"/>
				<path class="cls-5" d="M2965,682c-9.7.3-19.2,2.1-28.7,3.8-40.8,7.4-81.6,14.8-121.9,24.1-25.2,5.8-66.1,12.3-91.6,16.4" transform="translate(87.19 64.1)"/>
				<path class="cls-5" d="M2905.55,747.8c-9.6-.8-19.2.7-28.8,2.2q-34.5,5.4-69,10.7c-32.7,5.1-63.2,8.4-95.7,2.5" transform="translate(87.19 64.1)"/>
				<path class="cls-5" d="M2860,839.1a425.86,425.86,0,0,1-87.4-4" transform="translate(87.19 64.1)"/>
			</g>
		</g>
		<g id="Main">
			<g id="LargeLines">
				<path id="OuterLargeLines" class="cls-6" d="M2359.85,684.6a0.3,0.3,0,0,0-.3-0.4c-98.6,0-157.8-12.4-186.2-84s-64.5-83.3-25.1-168.3,34.3-99.5,173.7-164.1,174.2-55.1,333.4-68.3,189.6,17.1,287.5,73.3,157.1,188,183.7,262.4,12.4,112.9-37.3,130.1-77.4-35.5-169.8-8.3-207.9,52.5-258,59-120.8,72.8-143.2,72.8C2453.85,788.7,2345.35,742.2,2359.85,684.6Z" transform="translate(87.19 64.1)"/>
				<path class="cls-6" d="M2815.55,385.4c-30.4,15.2-29.1,38-52,54.5s-52,2.5-88.7,21.5-32.3,43.7-65.9,55.8-49.4-3.2-91.2,11.4-83.6,43.1-119.1,76-38.7,79.5-38.7,79.5" transform="translate(87.19 64.1)"/>
				<path class="cls-6" d="M2400.35,715.3s13.6-.7,32.9-20.3,14.4-31.3,62.5-63.4,56.6-17.7,105.6-18.6,95.5-47.2,131.8-54,34.6,4.2,54.1-3.4,27.9-35.5,38-53.2,17.7-14.4,39.7-33.8,26.2-56.6,32.9-67.6,10.1-38,11.8-55.8,31.4-46.4,31.4-46.4" transform="translate(87.19 64.1)"/>
				<path class="cls-6" d="M2194.05,346.2c-0.2,10.9,1.6,46.3,4.1,56.9s8.2,20.8,17.3,26.6c10,6.4,22.7,6.7,34.3,4.2,2.8-.6,5.6-1.4,8.5-1.3,4.5,0.2,8.7,2.4,12.2,5.3,15.1,12.3,19,34.4,33.5,47.5,9,8.2,22,12.9,26.8,24.1,2.6,6.1,2.2,13,4.1,19.4a29.05,29.05,0,0,0,19.7,19.4" transform="translate(87.19 64.1)"/>
				<path class="cls-6" d="M2701.15,208.4a42.09,42.09,0,0,1,12,13.2,7.17,7.17,0,0,1,1.3,4.7c-0.3,2.1-2.2,3.5-3.9,4.6-15.6,9.7-34.9,10.6-52.6,15.3s-36.5,16.2-38.7,34.5c-0.8,6.9.8,14.6-3.1,20.4-4.2,6.2-12.7,7.2-19.3,10.7-9.6,5-15.3,15.1-20,24.9-8.5,17.4-16.1,35.6-28.6,50.5-3.5,4.2-7.5,8.2-10,13.1s-3.3,11.1-.4,15.8c1.6,2.6,4.2,4.5,5.9,6.9,6.6,9.4-.7,22.4-9.5,29.7s-20,13.5-23.4,24.4c-1.8,5.7-1.3,12.4-5.2,17.1-4.1,4.9-11.5,5.5-16.7,9.1a16.38,16.38,0,0,0-6.6,16c1.1,6,10.1,15.7,16,17.3" transform="translate(87.19 64.1)"/>
				<path class="cls-6" d="M2627.15,201.71c0,11.4-20.2,13.79-28,21.89-8.5,8.7-9,22.6-15.7,32.7-3.5,5.3-8.8,9.8-10.3,16-1.5,6.4,1.3,13.3-.3,19.7-3.4,13.2-23.5,16.8-26.1,30.2-0.5,2.9-.2,5.8-0.4,8.7-0.9,12-12.2,21-23.8,24.2s-24,2.2-36,3.2-24.9,4.5-32.1,14.2c-6.8,9-7.2,21.3-5.9,32.4s4,22.5,2.3,33.6c-1.5,10-6.3,19.1-10.7,28.1a385.47,385.47,0,0,0-22.2,56.9c-3.8,12.9-6.9,27.3-.8,39.3" transform="translate(87.19 64.1)"/>
			</g>
			<g id="SmallerLines">
				<path class="cls-5" d="M2239.75,473.3c-11.9-2.1-25.3-3.8-34.8,3.6-8.3,6.5-10.8,18.3-8.5,28.6s8.4,19.2,14.9,27.4c8.6,10.9,18.6,22.3,19,36.2" transform="translate(87.19 64.1)"/>
				<path class="cls-5" d="M2222.35,502.7a28.61,28.61,0,0,0,18.4,19.4c4.2,1.4,8.8,1.7,13.2,2.1,4.6,0.3,9.1.7,13.7,1,2.4,0.2,4.9.4,7,1.7,4.5,2.8,4.7,9.7,2,14.3s-7.4,7.6-11.7,10.8-8.4,7.4-9.1,12.7,2.2,10.3,6.2,13.7,9,5.3,13.8,7.2" transform="translate(87.19 64.1)"/>
				<path class="cls-5" d="M2252.25,646.9a134.43,134.43,0,0,1,18.6-5c21.1-4.1,42.9-3.2,64.4-2.2" transform="translate(87.19 64.1)"/>
				<path class="cls-5" d="M2675.35,713.9c-12.6-6.1-28.4-13.6-41.6-18-9-3-19.1-5.6-27.7-1.7-5.2,2.3-9.2,6.7-14.3,9.1-15.7,7.3-34.9-6.4-51,.1-5.5,2.2-9.9,6.6-14,10.9-9.4,9.7-18.9,19.3-28.3,29a131.32,131.32,0,0,0-12.2,13.7c-4,5.5-8.2,12.3-15,12.4" transform="translate(87.19 64.1)"/>
				<path class="cls-5" d="M2686.15,581.7a97.32,97.32,0,0,0,84.3,88.6" transform="translate(87.19 64.1)"/>
				<path class="cls-5" d="M2722.85,651.4a207,207,0,0,1-39.4,15.2" transform="translate(87.19 64.1)"/>
				<path class="cls-5" d="M2553.35,630.7c1.9,0.2,2,2.9,1.8,4.8-0.8,7.4,2.2,14.9,6.6,20.9s10.3,10.8,16.1,15.5c2.7,2.2,5.7,4.5,9.2,4.4" transform="translate(87.19 64.1)"/>
				<path class="cls-5" d="M2543.45,548.9a62,62,0,0,0,3.4,44.6c2.4,5.1,6.1,16,11.5,17.3" transform="translate(87.19 64.1)"/>
				<path class="cls-5" d="M2581.85,581.3c4-.9,6.9-4.3,8.7-8s2.5-7.7,3.7-11.6c4.1-13.5,13.6-31.6,17.1-45.3" transform="translate(87.19 64.1)"/>
				<path class="cls-5" d="M2692.65,513.4a81.31,81.31,0,0,0,51.7,4.9c6.3-1.5,13-4.2,16.2-9.9,3.3-5.9,2-13.4,4.9-19.5" transform="translate(87.19 64.1)"/>
				<path class="cls-5" d="M2768.75,467.1l25.2,2.4c7.6,0.7,15.2,1.4,22.7.4,8.5-1.2,17.2-4.7,25.4-2.1a6.25,6.25,0,0,1,3.1,1.9c0.8,1.1,1,2.6,1.5,3.8s4.7,5.1,6,4.8" transform="translate(87.19 64.1)"/>
				<path class="cls-5" d="M2803.65,546.4A79.25,79.25,0,0,1,2831,561" transform="translate(87.19 64.1)"/>
				<path class="cls-5" d="M2754.35,588.6c8.8,8.1,17.6,16.3,26.5,24.4,3,2.7,6,5.5,9.7,7,5.1,2.1,10.8,1.7,16.2,1.2,17.6-1.6,35.2-3.6,52.7-5.9,11-1.5,22.2-3.2,31.9-8.7" transform="translate(87.19 64.1)"/>
				<path class="cls-5" d="M2878.25,578.7c8.7-4.7,11.7-15.6,13-25.4,0.8-5.6,1.3-11.6-1.4-16.6-3-5.7-9.4-8.6-15.3-11.2s-11.9-5.1-17.8-7.7" transform="translate(87.19 64.1)"/>
				<path class="cls-5" d="M2891.35,539.8a86.42,86.42,0,0,0,30.5-9.3" transform="translate(87.19 64.1)"/>
				<path class="cls-5" d="M2921.85,439.2c11.9,2.6,17.4,16.4,19.4,28.4,4.2,24.8,2.4,50.2.5,75.4-0.6,7.8-1.2,15.7-3.8,23.1-4,11.3-12.8,22.4-9.3,33.9,2.8,9,12.7,14.3,22.2,14.6s18.5-3.3,27.3-6.8c23-9.2,46.1-18.5,69.1-27.7,4.8-1.9,9.9-4.1,12.7-8.4s1.9-11.4-3-13.1" transform="translate(87.19 64.1)"/>
				<path class="cls-5" d="M2908.15,508.9a128.1,128.1,0,0,0,47.5-17.2,36.58,36.58,0,0,0,8.5-6.6c2.9-3.3,4.8-7.3,7-11.1a68.23,68.23,0,0,1,36.4-30c6.6-2.3,15.2-3,19.5,2.5,2.4,3,2.8,7.1,3,11,1.1,15.2,2.1,30.4,3.2,45.5" transform="translate(87.19 64.1)"/>
				<path class="cls-5" d="M2980.75,552.9a416.31,416.31,0,0,0,60.9-17.8c10.6-4,21.6-8.9,27.8-18.3,9.7-14.5,4.6-33.9-1.2-50.4-2.7-7.8-5.7-15.9-11.2-22.1-6.8-7.7-16.6-11.9-26.4-15.3-3.6-1.2-7.2-2.4-10.9-3.6s-7.3-2.4-11-3.8c-22.2-8.4-38.6-26.1-52.1-43.7" transform="translate(87.19 64.1)"/>
				<path class="cls-5" d="M2910,411.1c19.9-14.9,40.5-29,61.5-42.3,3.9-2.5,8-5,10.6-8.9,4-5.9,3.9-13.9,7.8-19.9" transform="translate(87.19 64.1)"/>
				<path class="cls-5" d="M3017.35,359.9c2.9,6,5.8,12.1,8.7,18.1,2.5,5.1,5,10.4,5.6,16.1,1.1,10.3-5.1,22.9-10.2,31.9" transform="translate(87.19 64.1)"/>
				<path class="cls-5" d="M3074.75,501.3c6.4-2.5,11.7-12,15.9-17.4" transform="translate(87.19 64.1)"/>
				<path class="cls-5" d="M3041.55,535.1c5.4-1.3,24.6-4.6,30-3.4a56.77,56.77,0,0,1,17.1,7.5,116,116,0,0,1,49.2,63.8" transform="translate(87.19 64.1)"/>
				<path class="cls-5" d="M3082.85,569.8c1.7,5.7,3.4,11.4,5.1,17,2.3,7.8,4.6,16.3,1.5,23.8a34.56,34.56,0,0,1-4.6,7.3c-12.7,16.8-23.3,29.9-37.7,45.2" transform="translate(87.19 64.1)"/>
				<path class="cls-5" d="M2836.55,679.6c0.2-8.2-3.5-13.7-9.8-19" transform="translate(87.19 64.1)"/>
				<path class="cls-5" d="M2836.25,314.4c7.4-.8,14.9-1.7,22.3-2.5,3.9-.4,7.9-0.9,11.3-2.9a26.43,26.43,0,0,0,5.2-4.3c4.6-4.5,9-9.1,13.4-13.8" transform="translate(87.19 64.1)"/>
				<path class="cls-5" d="M2871.75,231.8c0.2,5.8-2.4,14.3-7,17.9-2.2,1.7-4.9,3-6.9,5s-3.2,6.9-1.9,9.4" transform="translate(87.19 64.1)"/>
				<path class="cls-5" d="M2817.75,279.5c9.7-6.2,19.9-12,31.1-14.4,13.7-2.8,28.2-.2,41.1,5.1s24.6,13.3,36,21.5" transform="translate(87.19 64.1)"/>
				<path class="cls-5" d="M2751.75,445.2c-9.8-.7-19.2-4.5-27.8-9.3s-17-10.9-23.1-18.8-9.9-17.9-9.2-27.8" transform="translate(87.19 64.1)"/>
				<path class="cls-5" d="M2710.45,297.1c7.6,1.1,14.6,5.4,20,10.9s9.3,12.3,12.6,19.3,6.2,14.5,5.4,22.2" transform="translate(87.19 64.1)"/>
				<path class="cls-5" d="M2256.95,377.3c-6.3-11.1-12.6-22.2-18.9-33.4-1.8-3.2-3.6-6.5-4-10.1-0.9-10.5,10.7-17.7,21.1-19.2s21.6-.1,30.9-5c6.4-3.4,11-9.4,17.1-13.2s13-5.1,19.6-7.5,13.2-6.4,15.9-12.9" transform="translate(87.19 64.1)"/>
				<path class="cls-5" d="M2291.45,573.6c36.7,7.2,77.4,5.7,108.1-15.6" transform="translate(87.19 64.1)"/>
				<path class="cls-5" d="M2408.85,525.2c-1.4-27.4,5-54.6,4.9-82-0.1-12.7-2.4-26.9-12.6-34.4" transform="translate(87.19 64.1)"/>
				<path class="cls-5" d="M2481.65,390.3a103.27,103.27,0,0,1,6.6,43.7" transform="translate(87.19 64.1)"/>
				<path class="cls-5" d="M2583.65,440.8c2.6,8-.7,16.9,1.7,24.9,0.8,2.8,2.4,5.4,3.1,8.2s0.6,6.2-1.4,8.2" transform="translate(87.19 64.1)"/>
				<path class="cls-5" d="M2494,316.2c6.2-5.2,12.5-10.5,17.3-17.1a138.44,138.44,0,0,0,7.9-13.4,159.12,159.12,0,0,1,36.1-43.5" transform="translate(87.19 64.1)"/>
				<path class="cls-5" d="M2443.85,314.9c1-7.1,5.7-12.9,9.9-18.7s8.2-12.4,7.4-19.5" transform="translate(87.19 64.1)"/>
				<path class="cls-5" d="M2332.65,376.4c-1.8-12.4,6.1-25.5,17.8-29.9,8.6-3.2,19.6-2.6,25-10.1,2.1-2.9,4.2-6.5,3.7-10.1-2-12.9,8.5-25.1,15.7-36.1" transform="translate(87.19 64.1)"/>
				<path class="cls-5" d="M2827,570.8c-0.1-2.6-.7-7.3,3.9-9.8a123.2,123.2,0,0,0,12.1-3.3" transform="translate(87.19 64.1)"/>
				<path class="cls-5" d="M2351.35,456.4c-9.9-1.5-17.3-10.7-19.3-20.5s0.4-19.9,4.1-29.2c2.8-7.3,6.6-14.5,12.7-19.4,5.2-4.1,11.6-6.2,17.8-8.2l27-8.7c9.9-3.2,20-6.4,30.3-6.3s21.3,4.2,27,12.8" transform="translate(87.19 64.1)"/>
				<path class="cls-5" d="M2641.75,484.8a158.42,158.42,0,0,1-23.2-89c0.4-8.4,1.4-17,4.8-24.7,3.1-7.1,7.9-13.2,12.7-19.2,10.8-13.3,21.8-26.4,33.2-39.3,10.3-11.6,21.1-23.3,34.5-31.1,14.8-8.7,31.9-12.3,48.6-15.9" transform="translate(87.19 64.1)"/>
				<path class="cls-5" d="M2745.15,201.7c-0.9,13.9,9.5,25.9,20.3,34.7s23.3,16.5,29.8,28.9c4.6,8.8,5.6,18.9,9.4,28.1,3.5,8.5,9.3,15.8,13.4,24,3.3,6.7,5.5,13.9,9.2,20.3,14.8,25.8,53.7,37.9,71.7,61.6" transform="translate(87.19 64.1)"/>
				<path class="cls-5" d="M2547.85,216.4c-12.9,11.8-31.6,13.8-48.7,17a286,286,0,0,0-42.7,11.4c-10.7,3.8-21.4,8.4-29.9,15.9s-14.8,18.4-14.3,29.7,8.8,22.6,20.1,24.2c5.1,0.7,10.4-.5,15.5.2,8.4,1.3,21.3,19.6,25.1,27.2" transform="translate(87.19 64.1)"/>
				<path class="cls-5" d="M2431.25,257.1a40.35,40.35,0,0,0-57.1,27.8c-0.8,3.7-1.1,7.5-2.8,10.9-2,4.2-5.9,7.1-9.7,9.8-22.8,15.7-49.4,25.9-69.9,44.5-4.4,4-8.7,8.8-9.6,14.7-1,6.6,2.6,13.1,7.1,18.1s10,9,14.1,14.3c5.4,7,12.2,18.7,16.9,26.2" transform="translate(87.19 64.1)"/>
			</g>
		</g>
	</g>
	<path id="RightLine" class="cls-2" d="M3158.63,690.22h952.12l216.11-216.11h530.56l227.11,227.11H5264" transform="translate(87.19 64.1)"/>
	<path id="LeftLine" class="cls-2" d="M2142.11,788.8H1158.25L689,214H0" transform="translate(87.19 64.1)"/>
	<g id="ButtonLines">
		<path class="cls-2" d="M3480.37,690.22V600.3" transform="translate(87.19 64.1)"/>
		<path class="cls-2" d="M4220.36,580.61L4110.52,470.77" transform="translate(87.19 64.1)"/>
		<path class="cls-2" d="M4581.45,474.11V611" transform="translate(87.19 64.1)"/>
		<path class="cls-2" d="M891,461.45L776.27,576.19" transform="translate(87.19 64.1)"/>
		<path class="cls-2" d="M1624,788.8c-1-9.06,0-160.48,0-182.35" transform="translate(87.19 64.1)"/>
	</g>
	<g id="Buttons">
		<g id="GooglePlusBotton">
			<circle id="GooglePlus" class="cls-2" cx="4668.64" cy="864.26" r="189.2"/>
			<path class="cls-7" d="M4581.45,611c-104.49,0-189.2,84.71-189.2,189.2s84.71,189.2,189.2,189.2,189.2-84.71,189.2-189.2S4685.94,611,4581.45,611Zm-55.17,303.37A106.55,106.55,0,1,1,4598,729c-22.3,21.06-21.57,22.31-30.33,31.07-10.95-9.06-22.89-15.55-41.37-15.55-35,0-62.24,28.34-62.24,63.3s27.28,63.3,62.24,63.3c34.54,0,48.58-14.9,57.61-42.25-16.67,0-57.61.05-57.61,0.05v-42.2h102.33C4635.75,837.74,4614.25,914.33,4526.29,914.33Zm194.24-93.6v30.7h-30.94v-30.7h-30.7V789.79h30.7V760h30.94v29.75h29.75v30.94h-29.75Z" transform="translate(87.19 64.1)"/>
		</g>
		<g id="LinkedInButton">
			<circle id="LinkedIn" class="cls-2" cx="3567.56" cy="475.2" r="189.2"/>
			<path class="cls-7" d="M3480.37,221.9c-104.49,0-189.2,84.71-189.2,189.2s84.71,189.2,189.2,189.2,189.2-84.71,189.2-189.2S3584.86,221.9,3480.37,221.9Zm-58.25,295.75h-44.65V375.34h44.65V517.65Zm-22-160.47a26.32,26.32,0,1,1,26.32-26.32A26.32,26.32,0,0,1,3400.16,357.19ZM3586.9,517.65h-44.65v-83.5c0-35.94-47.79-30-47.79,7.08v76.42h-44.52V375.34h42.2v18.88c22.06-33.81,94.75-35.31,94.75,31.22v92.21Z" transform="translate(87.19 64.1)"/>
		</g>
		<g id="TwitterButton">
			<circle id="Twitter" class="cls-2" cx="4058.39" cy="393.28" r="189.2"/>
			<path class="cls-7" d="M3971.2,140c-104.49,0-189.2,84.71-189.2,189.2s84.71,189.2,189.2,189.2,189.2-84.71,189.2-189.2S4075.69,140,3971.2,140Zm118,144.45c0,3.25,0,6.4,0,9.55a150.73,150.73,0,0,1-2.68,26.3,166.93,166.93,0,0,1-16.94,48.05,161.88,161.88,0,0,1-25.25,35.14A150.46,150.46,0,0,1,3999.85,436a152.88,152.88,0,0,1-39.21,12.62,175.93,175.93,0,0,1-28.59,2.7,155.91,155.91,0,0,1-69.11-14.6c-6.21-2.89-12.1-6.48-18.14-9.76-0.34-.19-0.65-0.44-1.17-0.8,30.67,3.08,58.1-4.46,82.5-23A57,57,0,0,1,3894,391.75,55.69,55.69,0,0,1,3874.2,364c11.89,1.26,17.72,1,25-1a56,56,0,0,1-32.37-19.93c-8.34-10.39-12.3-22.33-12.38-35.85a57,57,0,0,0,25.25,7c-12.14-8.61-20.06-19.81-23.31-34.06s-1.11-27.83,6.09-40.75c30.33,35.76,68.69,55.41,115.62,58.65-3.16-15.21-1-29.29,7-42.32,5.71-9.34,13.47-16.66,23.49-21.08,24.41-10.77,46.13-6,65.56,12.06a110.05,110.05,0,0,0,18-5.2,115.55,115.55,0,0,0,17.33-8.38A57.3,57.3,0,0,1,4085.55,264a79.82,79.82,0,0,0,15.86-3.07c5.13-1.56,10.19-3.38,15.35-5.11A114.74,114.74,0,0,1,4089.17,284.43Z" transform="translate(87.19 64.1)"/>
		</g>
		<g id="GithubButton">
			<path class="cls-7" d="M1623.05,235.55a181.17,181.17,0,0,0-57.11,353.1l-0.16-.06c9.05,1.68,12.38-3.93,12.38-8.72,0-4.32-.17-18.59-0.25-33.73-50.4,11-61-21.37-61-21.37-8.24-20.94-20.11-26.51-20.11-26.51-16.44-11.24,1.24-11,1.24-11,18.19,1.28,27.77,18.67,27.77,18.67,16.16,27.69,42.38,19.69,52.72,15.06,1.63-11.71,6.32-19.7,11.5-24.22-40.24-4.58-82.54-20.11-82.54-89.52,0-19.78,7.08-35.94,18.67-48.62-1.88-4.56-8.08-23,1.75-47.94,0,0,15.21-4.87,49.83,18.57a171.77,171.77,0,0,1,90.72,0c34.58-23.44,49.77-18.57,49.77-18.57,9.86,25,3.66,43.38,1.78,47.94,11.62,12.69,18.64,28.85,18.64,48.62,0,69.58-42.38,84.9-82.72,89.38,6.5,5.62,12.29,16.65,12.29,33.55,0,24.24-.21,43.75-0.21,49.71,0,4.82,3.26,10.47,12.44,8.69q-3.06,1-6.17,1.93A181.17,181.17,0,0,0,1623.05,235.55Z" transform="translate(87.19 64.1)"/>
			<path class="cls-7" d="M1540.77,527.93c-0.41,1.43.93,3.09,3,3.71s4.09,0,4.53-1.46-0.92-3.09-3-3.71S1541.2,526.5,1540.77,527.93Z" transform="translate(87.19 64.1)"/>
			<path class="cls-7" d="M1529.09,519c-1,1.1-.55,3.17,1,4.63s3.66,1.79,4.66.69,0.58-3.17-1-4.63S1530.1,517.92,1529.09,519Z" transform="translate(87.19 64.1)"/>
			<path class="cls-7" d="M1521,508.38c-1.14.77-1.14,2.71,0,4.32s2.94,2.33,4,1.56,1.13-2.72,0-4.36S1522.09,507.6,1521,508.38Z" transform="translate(87.19 64.1)"/>
			<path class="cls-7" d="M1513.62,499.22c-0.88.81-.66,2.5,0.53,3.76s2.84,1.64,3.7.84,0.67-2.49-.52-3.76S1514.51,498.42,1513.62,499.22Z" transform="translate(87.19 64.1)"/>
			<path class="cls-7" d="M1505.78,493.47c-0.42.9,0.31,2.13,1.63,2.72s2.71,0.35,3.11-.55-0.3-2.14-1.61-2.73S1506.17,492.55,1505.78,493.47Z" transform="translate(87.19 64.1)"/>
			<path class="cls-7" d="M1572.57,526.94c-2.1.39-3.62,1.88-3.36,3.38s2.21,2.35,4.32,2,3.64-1.9,3.38-3.35S1574.71,526.57,1572.57,526.94Z" transform="translate(87.19 64.1)"/>
			<path class="cls-7" d="M1555.32,531.4c0,1.47,1.78,2.68,3.94,2.63s3.89-1.27,3.84-2.76-1.77-2.68-3.92-2.64S1555.32,529.89,1555.32,531.4Z" transform="translate(87.19 64.1)"/>
			<circle id="Github" class="cls-2" cx="1710.79" cy="481.35" r="189.2"/>
		</g>
		<g id="BlogButton">
			<circle id="Blog" class="cls-2" cx="730.93" cy="774.63" r="189.2"/>
			<path class="cls-7" d="M643.74,521.33c-104.49,0-189.2,84.71-189.2,189.2s84.71,189.2,189.2,189.2,189.2-84.71,189.2-189.2S748.23,521.33,643.74,521.33Zm2.63,301.53q-21.58,22.61-52,22.61-30.67,0-52.24-22.48t-21.57-54.45V660.17q0-10.92,6.53-16.89a22.88,22.88,0,0,1,30.85,0q6.54,6,6.54,16.92V768.76a31.45,31.45,0,0,0,8.8,22.52,28.24,28.24,0,0,0,21.22,9.24q12.16,0,21.09-9.27a31.32,31.32,0,0,0,8.93-22.58q0-13.31-8.19-20.62t-22.22-7.31q-10.14,0-16.11-7-5.46-6-5.46-15.07a22.94,22.94,0,0,1,5.72-15.47q5.71-6.63,15.85-6.63,32.22,0,53,20.14t20.79,51.85Q667.95,800.26,646.37,822.87Zm49.08-71.07a82.25,82.25,0,0,0-24.05-58.41,81.31,81.31,0,0,0-58-24.13V635.47c63.88,0,115.85,52.18,115.85,116.33H695.45Zm59.67,0c0-78.55-63.56-142.46-141.69-142.46V575.59c96.75,0,175.47,79.06,175.47,176.24H755.12Z" transform="translate(87.19 64.1)"/>
		</g>
	</g>
	<text class="cls-8" transform="translate(3985.5 430.1)">
		<tspan class="cls-9">
			T</tspan>
			<tspan x="25.59" y="0">
				wit</tspan>
				<tspan x="98.45" y="0">
					t</tspan>
					<tspan x="116.65" y="0">
						er</tspan>
					</text>
					<text class="cls-10" transform="translate(3464.28 508.27)">
						Linked<tspan x="156.52" y="0">
						I</tspan>
						<tspan x="170.46" y="0">
							n</tspan>
						</text>
						<text class="cls-10" transform="translate(4560.94 886.14)">
							G<tspan x="36.46" y="0">
							oogle+</tspan>
						</text>
						<text class="cls-10" transform="translate(1620.44 503.3)">
							Github</text>
							<text class="cls-10" transform="translate(674.94 792.1)">
								Blog</text>
							</svg>