<?xml version="1.0" encoding="utf-8"?>
<!-- Generator: Adobe Illustrator 19.2.1, SVG Export Plug-In . SVG Version: 6.00 Build 0)  -->
<svg version="1.1" id="Graphic" xmlns="http://www.w3.org/2000/svg" xmlns:xlink="http://www.w3.org/1999/xlink" x="0px" y="0px"
	 viewBox="0 0 398.4 398.4" style="enable-background:new 0 0 398.4 398.4;" xml:space="preserve">
<style type="text/css">
	.st0{fill:none;stroke:#FFFFFF;stroke-width:20;stroke-miterlimit:10;}
	.st1{fill:#FFFFFF;}
</style>
<g id="LinkedInButton_1_">
	<circle id="LinkedIn" class="st0" cx="199.2" cy="199.2" r="189.2"/>
	<path class="st1" d="M199.2,10C94.7,10,10,94.7,10,199.2s84.7,189.2,189.2,189.2c104.5,0,189.2-84.7,189.2-189.2S303.7,10,199.2,10
		z M141,305.8H96.3V163.4H141V305.8z M119,145.3c-14.5,0-26.3-11.8-26.3-26.3s11.8-26.3,26.3-26.3c14.5,0,26.3,11.8,26.3,26.3
		S133.5,145.3,119,145.3z M305.7,305.8h-44.7c0,0,0-47.6,0-83.5c0-35.9-47.8-30-47.8,7.1c0,45.8,0,76.4,0,76.4h-44.5V163.4H211v18.9
		c22.1-33.8,94.8-35.3,94.8,31.2C305.7,279.5,305.7,305.8,305.7,305.8z"/>
</g>
</svg>
