<svg version="1.1" id="Graphic" xmlns="http://www.w3.org/2000/svg" xmlns:xlink="http://www.w3.org/1999/xlink" x="0px" y="0px"
	 viewBox="0 0 398.4 398.4" style="enable-background:new 0 0 398.4 398.4;" xml:space="preserve">
	 <defs>
		<pattern id="octacatBG" x="0" y="0" width="1" height="1">
			<image xlink:href="image/Logos/Octocat.png"/>
		</pattern>
	</defs>
	<g id="blogButton">
		<a class="link" xlink:href="http://ryanairth.weebly.com/blog">
			<circle id="blog" class="st0" cx="199.2" cy="199.2" r="189.2"/>
			<path class="st5" d="M199.2,10C94.7,10,10,94.7,10,199.2s84.7,189.2,189.2,189.2c104.5,0,189.2-84.7,189.2-189.2S303.7,10,199.2,10
				z M201.8,311.5c-14.4,15.1-31.7,22.6-52,22.6c-20.4,0-37.9-7.5-52.2-22.5c-14.4-15-21.6-33.1-21.6-54.4V148.8
				c0-7.3,2.2-12.9,6.5-16.9c4.4-4,9.5-6,15.4-6c5.9,0,11.1,2,15.4,6c4.4,4,6.5,9.6,6.5,16.9v108.6c0,8.9,2.9,16.4,8.8,22.5
				c5.9,6.2,12.9,9.2,21.2,9.2c8.1,0,15.1-3.1,21.1-9.3c6-6.2,8.9-13.7,8.9-22.6c0-8.9-2.7-15.7-8.2-20.6c-5.5-4.9-12.9-7.3-22.2-7.3
				c-6.8,0-12.1-2.3-16.1-7c-3.6-4-5.5-9-5.5-15.1c0-5.9,1.9-11,5.7-15.5c3.8-4.4,9.1-6.6,15.9-6.6c21.5,0,39.2,6.7,53,20.1
				c13.9,13.4,20.8,30.7,20.8,51.9C223.4,278.4,216.2,296.5,201.8,311.5z M250.9,240.5c0-22.1-8.5-42.8-24.1-58.4
				c-15.5-15.6-36.1-24.1-58-24.1v-33.8c63.9,0,115.8,52.2,115.8,116.3H250.9z M310.6,240.5C310.6,161.9,247,98,168.9,98V64.3
				c96.8,0,175.5,79.1,175.5,176.2H310.6z"/>
		</a>				
	</g>
	<g id="googlePlusButton">
		<a class="link" xlink:href="https://plus.google.com/u/0/+RyanAirth987">
			<circle id="googlePlus" class="st0" cx="199.2" cy="199.2" r="189.2"/>
			<path class="st5" d="M199.2,10C94.7,10,10,94.7,10,199.2s84.7,189.2,189.2,189.2c104.5,0,189.2-84.7,189.2-189.2S303.7,10,199.2,10
				z M144,313.4c-58.8,0-106.6-47.7-106.6-106.6c0-58.8,47.7-106.6,106.6-106.6c27.6,0,52.8,10.5,71.7,27.7
				c-22.3,21.1-21.6,22.3-30.3,31.1c-10.9-9.1-22.9-15.6-41.4-15.6c-35,0-62.2,28.3-62.2,63.3c0,35,27.3,63.3,62.2,63.3
				c34.5,0,48.6-14.9,57.6-42.3c-16.7,0-57.6,0.1-57.6,0.1v-42.2c0,0,81.5,0,102.3,0C253.5,236.8,232,313.4,144,313.4z M338.3,219.8
				v30.7h-30.9v-30.7h-30.7v-30.9h30.7v-29.7h30.9v29.7H368v30.9H338.3z"/>
		</a>			
	</g>
	<g id="linkedInButton">
		<a class="link" xlink:href="https://www.linkedin.com/in/RyanAirth">
			<circle id="linkedIn" class="st0" cx="199.2" cy="199.2" r="189.2"/>
			<path class="st5" d="M199.2,10C94.7,10,10,94.7,10,199.2s84.7,189.2,189.2,189.2c104.5,0,189.2-84.7,189.2-189.2S303.7,10,199.2,10
				z M141,305.8H96.3V163.4H141V305.8z M119,145.3c-14.5,0-26.3-11.8-26.3-26.3s11.8-26.3,26.3-26.3c14.5,0,26.3,11.8,26.3,26.3
				S133.5,145.3,119,145.3z M305.7,305.8h-44.7c0,0,0-47.6,0-83.5c0-35.9-47.8-30-47.8,7.1c0,45.8,0,76.4,0,76.4h-44.5V163.4H211v18.9
				c22.1-33.8,94.8-35.3,94.8,31.2C305.7,279.5,305.7,305.8,305.7,305.8z"/>
		</a>		
	</g>
	<g id="twitterButton">
		<a class="link" xlink:href="https://twitter.com/bogieman987">
			<circle id="twitter" class="st0" cx="199.2" cy="199.2" r="189.2"/>
			<path class="st5" d="M199.2,10C94.7,10,10,94.7,10,199.2s84.7,189.2,189.2,189.2c104.5,0,189.2-84.7,189.2-189.2S303.7,10,199.2,10
				z M317.2,154.4c0,3.3,0,6.4,0,9.6c-0.1,8.8-1,17.6-2.7,26.3c-3.2,16.9-8.8,32.9-16.9,48.1c-6.9,12.8-15.2,24.6-25.2,35.1
				c-12.8,13.6-27.6,24.4-44.5,32.5c-12.5,6-25.6,10.2-39.2,12.6c-9.5,1.7-19,2.5-28.6,2.7c-24.2,0.4-47.2-4.4-69.1-14.6
				c-6.2-2.9-12.1-6.5-18.1-9.8c-0.3-0.2-0.6-0.4-1.2-0.8c30.7,3.1,58.1-4.5,82.5-23c-11.9-0.6-22.6-4.2-32.1-11.4
				c-9.5-7.1-16.1-16.4-19.8-27.8c11.9,1.3,17.7,1,25-1c-13.2-3-24-9.5-32.4-19.9c-8.3-10.4-12.3-22.3-12.4-35.9
				c7.9,4.3,16.1,6.6,25.3,7c-12.1-8.6-20.1-19.8-23.3-34.1c-3.3-14.3-1.1-27.8,6.1-40.8c30.3,35.8,68.7,55.4,115.6,58.6
				c-3.2-15.2-1-29.3,7-42.3c5.7-9.3,13.5-16.7,23.5-21.1c24.4-10.8,46.1-6,65.6,12.1c6-1.2,12.1-2.9,18-5.2c5.9-2.3,11.6-5,17.3-8.4
				c-4.4,13.3-12.5,23.4-23.9,30.8c5.4-0.5,10.7-1.5,15.9-3.1c5.1-1.6,10.2-3.4,15.4-5.1C337.2,137,328,146.6,317.2,154.4z"/>
		</a>		
	</g>
	<g id="githubButton">
		<a class="link" xlink:href="https://github.com/bogieman987">
			<circle id="github" class="st0" cx="199.2" cy="199.2" r="189.2"/>
			<path class="st5" d="M198.7,17.5c-100,0-181.1,81.1-181.1,181.1c0,80.1,52,148,124,172c-0.1,0-0.2-0.1-0.2-0.1
				c9.1,1.7,12.4-3.9,12.4-8.7c0-4.3-0.2-18.6-0.2-33.7c-50.4,11-61-21.4-61-21.4c-8.2-20.9-20.1-26.5-20.1-26.5
				c-16.4-11.2,1.2-11,1.2-11c18.2,1.3,27.8,18.7,27.8,18.7c16.2,27.7,42.4,19.7,52.7,15.1c1.6-11.7,6.3-19.7,11.5-24.2
				c-40.2-4.6-82.5-20.1-82.5-89.5c0-19.8,7.1-35.9,18.7-48.6c-1.9-4.6-8.1-23,1.8-47.9c0,0,15.2-4.9,49.8,18.6
				c14.5-4,29.9-6,45.3-6.1c15.4,0.1,30.9,2.1,45.4,6.1c34.6-23.4,49.8-18.6,49.8-18.6c9.9,25,3.7,43.4,1.8,47.9
				c11.6,12.7,18.6,28.8,18.6,48.6c0,69.6-42.4,84.9-82.7,89.4c6.5,5.6,12.3,16.6,12.3,33.5c0,24.2-0.2,43.7-0.2,49.7
				c0,4.8,3.3,10.5,12.4,8.7c-2,0.7-4.1,1.3-6.2,1.9c75.1-22.1,130-91.5,130-173.8C379.8,98.6,298.7,17.5,198.7,17.5z"/>
			<path class="st5" d="M116.4,309.9c-0.4,1.4,0.9,3.1,3,3.7c2.1,0.6,4.1,0,4.5-1.5c0.4-1.4-0.9-3.1-3-3.7
				C118.8,307.8,116.8,308.5,116.4,309.9z"/>
			<path class="st5" d="M104.7,301c-1,1.1-0.6,3.2,1,4.6c1.5,1.5,3.7,1.8,4.7,0.7c1.1-1.1,0.6-3.2-1-4.6
				C107.8,300.2,105.7,299.9,104.7,301z"/>
			<path class="st5" d="M96.6,290.3c-1.1,0.8-1.1,2.7,0,4.3c1.1,1.6,2.9,2.3,4,1.6c1.1-0.8,1.1-2.7,0-4.4
				C99.5,290.3,97.7,289.6,96.6,290.3z"/>
			<path class="st5" d="M89.2,281.2c-0.9,0.8-0.7,2.5,0.5,3.8c1.1,1.3,2.8,1.6,3.7,0.8c0.9-0.8,0.7-2.5-0.5-3.8
				C91.7,280.7,90.1,280.4,89.2,281.2z"/>
			<path class="st5" d="M81.4,275.4c-0.4,0.9,0.3,2.1,1.6,2.7c1.3,0.6,2.7,0.3,3.1-0.6c0.5-0.9-0.3-2.1-1.6-2.7
				C83.2,274.2,81.8,274.5,81.4,275.4z"/>
			<path class="st5" d="M148.2,308.9c-2.1,0.4-3.6,1.9-3.4,3.4c0.3,1.4,2.2,2.3,4.3,2c2.1-0.4,3.6-1.9,3.4-3.4
				C152.2,309.4,150.3,308.5,148.2,308.9z"/>
			<path class="st5" d="M130.9,313.4c0,1.5,1.8,2.7,3.9,2.6c2.2,0,3.9-1.3,3.8-2.8c0-1.5-1.8-2.7-3.9-2.6
				C132.6,310.6,130.9,311.8,130.9,313.4z"/>	
		</a>
	</g>	
</svg>
